<!-- icon666.com - MILLIONS vector ICONS FREE --><svg id="Bahan_copy_2" viewBox="0 0 64 64" xmlns="http://www.w3.org/2000/svg" data-name="Bahan copy 2"><g fill="rgb(0,0,0)"><path d="m12.67 28.12c-.36515-.34609-.08743 17.70362-.17011 18.02009-.027 2.19907 1.46567 3.737 3.35019 4.62984.94449-.94425 5.61631-5.61648 6.66-6.66a7.495 7.495 0 0 0 -3.36-1.1.98519.98519 0 0 1 -.88-1.1c.35255-2.28165 5.69105.46936 6.26989 1.3a8.489 8.489 0 0 1 2.47003 5.45007 1.00107 1.00107 0 0 1 -1.99.22 7.37228 7.37228 0 0 0 -1.1-3.35c-1.06521 1.06468-5.28882 5.29306-6.28 6.27 0 0 12.9 7.35 13.36 7.44v-20.77c-.96382-.55349-17.90874-10.10369-18.33-10.35z" fill="rgb(0,0,0)" style="fill: rgb(255, 255, 255);"></path><path d="m50.45 26.43c.12479-.67855-15.4801-9.14589-16.1199-9.6601a4.38934 4.38934 0 0 0 -1.3301-.4999v8.78a7.28428 7.28428 0 0 0 3.15-1.59.99954.99954 0 1 1 1.25 1.56c-3.51155 2.82084-7.28849 2.82084-10.8 0a.99953.99953 0 1 1 1.25-1.56 7.28428 7.28428 0 0 0 3.15 1.59v-8.78a4.38485 4.38485 0 0 0 -1.33.5s-15.73 9.17-16.05 9.58l18.38 10.39c.82921-.44728 18.242-10.20589 18.45-10.31z" fill="rgb(0,0,0)" style="fill: rgb(255, 255, 255);"></path><path d="m40.08 45.53a7.37228 7.37228 0 0 0 -1.1 3.35 1.00106 1.00106 0 0 1 -1.99-.22 8.73429 8.73429 0 0 1 2.22-5.21 8.59335 8.59335 0 0 1 5.42-2.43.99963.99963 0 0 1 1.1.89.98519.98519 0 0 1 -.88 1.1 7.49492 7.49492 0 0 0 -3.36 1.1l6.66 6.66c1.88178-.89237 3.37931-2.43116 3.34989-4.63008.00011.00008-.04989-17.55992-.13989-17.92992-.41864.24976-17.40373 9.70821-18.36 10.26v20.77c.46-.09 13.36-7.44 13.36-7.44-.96427-.95069-5.23653-5.22655-6.28-6.27z" fill="rgb(0,0,0)" style="fill: rgb(255, 255, 255);"></path><path d="m33 16.27v-8.52977l2.73389 3.24659a1.0003 1.0003 0 0 0 1.53023-1.28813l-4.49898-5.34269a1.03426 1.03426 0 0 0 -1.53028 0l-4.499 5.34277a1.00011 1.00011 0 1 0 1.53027 1.28809l2.73387-3.24663v8.52977a4.2268 4.2268 0 0 1 2 0z" fill="rgb(0,0,0)" style="fill: rgb(255, 255, 255);"></path><path d="m55.3667 51.95557a1.00042 1.00042 0 0 0 -1.99316.171l.363 4.23-5.58654-5.58657-1.79 1.03 5.97033 5.97033-4.23706-.36358a1.00041 1.00041 0 0 0 -.17084 1.99316l6.95893.59668a1.00086 1.00086 0 0 0 1.082-1.082z" fill="rgb(0,0,0)" style="fill: rgb(255, 255, 255);"></path><path d="m10.26349 56.35651.363-4.23a1.00033 1.00033 0 0 0 -1.99316-.17085l-.59668 6.95894a1.00086 1.00086 0 0 0 1.082 1.082l6.959-.59668a1.00042 1.00042 0 0 0 -.171-1.99315l-4.237.36357 5.97035-5.97034-1.79-1.03z" fill="rgb(0,0,0)" style="fill: rgb(255, 255, 255);"></path></g></svg>