<!-- icon666.com - MILLIONS vector ICONS FREE --><svg id="Layer_1" enable-background="new 0 0 512 512" viewBox="0 0 512 512" xmlns="http://www.w3.org/2000/svg" xmlns:xlink="http://www.w3.org/1999/xlink"><linearGradient id="SVGID_1_" gradientTransform="matrix(1 0 0 -1 0 512.5)" gradientUnits="userSpaceOnUse" x1="256.05" x2="256.05" y1="512.45" y2=".45"><stop offset="0" stop-color="#f704fe"></stop><stop offset="1" stop-color="#24bce3"></stop></linearGradient><circle clip-rule="evenodd" cx="256" cy="256" fill="url(#SVGID_1_)" fill-rule="evenodd" r="256"></circle><g id="Layer_x0020_1"><g id="_426063336" clip-rule="evenodd" fill="#fffffe" fill-rule="evenodd"><path id="_426064896" d="m330.5 204.8c0-2 .3-3.9.8-5.7l-57.3-25.7c-3.8 5.9-10.5 9.8-18 9.8s-14.2-3.9-18-9.8l-57.2 25.6c.5 1.8.8 3.7.8 5.7s-.3 3.9-.8 5.7l57.2 25.6c3.8-5.9 10.5-9.8 18-9.8s14.2 3.9 18 9.8l57.2-25.6c-.4-1.8-.7-3.6-.7-5.6z"></path><path id="_426065232" d="m252.8 336v-67.3c-10.3-1.6-18.2-10.5-18.2-21.2 0-2 .3-3.9.8-5.7l-57.2-25.6c-3.3 5-8.6 8.6-14.8 9.6v67.3c10.3 1.6 18.2 10.5 18.2 21.2 0 2-.3 3.9-.8 5.7l57.2 25.6c3.2-5 8.6-8.6 14.8-9.6z"></path><path id="_426065352" d="m348.6 293.1v-67.3c-6.2-.9-11.5-4.5-14.8-9.6l-57.2 25.6c.5 1.8.8 3.7.8 5.7 0 10.7-7.9 19.6-18.2 21.2v67.3c6.2.9 11.5 4.5 14.8 9.6l57.2-25.6c-.5-1.8-.8-3.7-.8-5.7.1-10.7 8-19.5 18.2-21.2z"></path><path id="_426065304" d="m271 357.2c0-8.2-6.7-14.9-14.9-14.9s-14.9 6.7-14.9 14.9 6.7 14.9 14.9 14.9c8.1 0 14.9-6.6 14.9-14.9z"></path><path id="_426064968" d="m175.1 314.4c0-8.2-6.7-14.9-14.9-14.9s-14.9 6.7-14.9 14.9 6.7 14.9 14.9 14.9c8.2-.1 14.9-6.8 14.9-14.9z"></path><path id="_426064080" d="m175.1 204.8c0-8.2-6.7-14.9-14.9-14.9s-14.9 6.7-14.9 14.9 6.7 14.9 14.9 14.9 14.9-6.8 14.9-14.9z"></path><path id="_426064272" d="m271 161.9c0-8.2-6.7-14.9-14.9-14.9s-14.9 6.7-14.9 14.9 6.7 14.9 14.9 14.9c8.1 0 14.9-6.7 14.9-14.9z"></path><path id="_426064464" d="m271 247.6c0-8.2-6.7-14.9-14.9-14.9s-14.9 6.7-14.9 14.9 6.7 14.9 14.9 14.9c8.1.1 14.9-6.6 14.9-14.9z"></path><path id="_426064008" d="m366.9 204.8c0-8.2-6.7-14.9-14.9-14.9s-14.9 6.7-14.9 14.9 6.7 14.9 14.9 14.9c8-.1 14.9-6.8 14.9-14.9z"></path><path id="_426064584" d="m366.9 314.4c0-8.2-6.7-14.9-14.9-14.9s-14.9 6.7-14.9 14.9 6.7 14.9 14.9 14.9c8-.1 14.9-6.8 14.9-14.9z"></path><path id="_426064056" d="m379.6 123.2-7.1.9c-3.6.4-6.8-2.1-7.3-5.7-.4-3.6 2.1-6.8 5.7-7.2l25.9-3.2c4.2-.5 7.8 3.1 7.2 7.4l-3.1 25.7c-.4 3.6-3.7 6.1-7.2 5.7-3.6-.4-6.1-3.7-5.7-7.3l.9-7.1-35.3 35.3c-1.2 1.2-2.9 1.9-4.6 1.9s-3.4-.7-4.6-1.9c-2.5-2.5-2.5-6.7 0-9.2z"></path><path id="_426063936" d="m123.2 132.4.9 7.1c.4 3.6-2.1 6.8-5.7 7.3-3.6.4-6.8-2.1-7.2-5.7l-3.2-25.9c-.5-4.2 3-7.8 7.3-7.3l25.8 3.2c3.6.4 6.1 3.7 5.7 7.3s-3.7 6.1-7.2 5.7l-7.1-.9 35.3 35.3c2.5 2.5 2.5 6.7 0 9.2s-6.7 2.5-9.2 0c-.2.1-35.4-35.3-35.4-35.3z"></path><path id="_426063576" d="m107.9 396.9 3.2-25.9c.4-3.6 3.7-6.1 7.2-5.7 3.6.4 6.1 3.7 5.7 7.2l-.9 7.1 35.3-35.3c2.5-2.5 6.7-2.5 9.2 0s2.5 6.7 0 9.2l-35.3 35.3 7.1-.9c3.6-.4 6.8 2.1 7.2 5.7s-2.1 6.8-5.7 7.3l-25.8 3.1c-4 .6-7.7-3-7.2-7.1z"></path><path id="_426063480" d="m404 396.9-3.2-25.9c-.4-3.6-3.7-6.1-7.2-5.7-3.6.4-6.1 3.7-5.7 7.2l.9 7.1-35.3-35.3c-2.5-2.5-6.7-2.5-9.2 0s-2.5 6.7 0 9.2l35.3 35.3-7.1-.9c-3.6-.4-6.8 2.1-7.2 5.7s2.1 6.8 5.7 7.3l25.8 3.1c4.2.6 7.7-3 7.2-7.1z"></path></g></g></svg>