<!-- icon666.com - MILLIONS vector ICONS FREE --><svg id="Capa_1" enable-background="new 0 0 512 512" viewBox="0 0 512 512" xmlns="http://www.w3.org/2000/svg"><g id="XMLID_137_"><path id="XMLID_149_" d="m213.157 461.837c0 5.522 4.478 10 10 10h30.122c5.523 0 10-4.478 10-10s-4.477-10-10-10h-30.122c-5.523 0-10 4.478-10 10z" fill="#000000" style="fill: rgb(255, 255, 255);"></path><path id="XMLID_177_" d="m499.238 190.734c0-63.048-48.695-114.931-110.449-120.031v-26.563c0-24.339-19.801-44.14-44.14-44.14h-212.86c-24.339 0-44.14 19.801-44.14 44.14v150.01l-70.939 53.887c-5.269 4.002-5.26 11.931 0 15.926l70.938 53.887v150.01c0 24.339 19.801 44.14 44.14 44.14h212.86c24.339 0 44.14-19.801 44.14-44.14v-150.013l11.241-8.54c56.322-10.061 99.209-59.403 99.209-118.573zm-20 0c0 55.388-45.061 100.449-100.449 100.449s-100.449-45.061-100.449-100.449c0-53.148 42.216-99.898 100.525-100.448 55.353.042 100.373 45.087 100.373 100.448zm-286.239 91.373v-40.667l35.221 20.334v40.673zm71.641-52.902-26.42 15.248-35.223-20.334 35.222-20.34 23.031 13.302c.924 4.123 2.054 8.17 3.39 12.124zm-16.421 32.57 24.45-14.111c3.142 5.834 6.754 11.379 10.78 16.588v17.854l-35.23 20.341zm54.312-241.775-10.082 20.163h-108.174l-10.251-20.163zm-194.882 24.14c0-13.31 10.829-24.14 24.14-24.14h19.801l17.637 34.694c1.705 3.355 5.15 5.469 8.914 5.469h120.489c3.788 0 7.25-2.14 8.944-5.527l17.318-34.636h19.757c13.311 0 24.14 10.829 24.14 24.14v26.564c-33.8 2.792-63.682 19.598-83.814 44.581l-40.706-30.917c-3.576-2.717-8.524-2.717-12.098 0l-124.522 94.59zm130.57 60.748 35.52 26.979c-10.323 18.35-15.657 39.014-15.379 60.449l-15.14-8.745c-3.094-1.788-6.908-1.787-10.002-.001-8.618 4.978-53.701 31.008-55.292 31.937-3.107 1.825-4.928 5.161-4.928 8.613v63.76c0 3.572 1.905 6.873 4.999 8.66 10.23 5.906 54.221 31.318 55.313 31.935 3.154 1.783 6.993 1.664 9.908-.045l55.23-31.89c3.094-1.786 5-5.088 5-8.66v-3.243c17.383 13.975 38.71 23.23 62.023 25.806l-127.252 96.669-198.928-151.112zm130.57 362.972c0 13.31-10.829 24.14-24.14 24.14h-212.86c-13.311 0-24.14-10.829-24.14-24.14v-134.817l124.522 94.59c3.572 2.715 8.523 2.717 12.098 0l124.52-94.592z" fill="#000000" style="fill: rgb(255, 255, 255);"></path><path id="XMLID_194_" d="m395.05 220.857c0 5.522 4.478 10 10 10s10-4.478 10-10v-16.678l20.493 23.285c3.653 4.151 9.973 4.545 14.113.9 4.147-3.65 4.549-9.968.9-14.113l-16.638-18.904c11.159-3.997 19.131-14.371 19.131-26.509 0-15.586-13.144-28.267-29.3-28.267h-18.253c-5.612-.249-10.447 4.241-10.447 10v70.286zm28.701-60.286c5.041 0 9.3 3.786 9.3 8.267s-4.259 8.267-9.3 8.267c-2.036 0-5.329.013-8.583.027l-.059-16.561z" fill="#000000" style="fill: rgb(255, 255, 255);"></path><path id="XMLID_197_" d="m351.844 147.754c-1.796-4.364-6.003-7.183-10.721-7.183h-.01c-4.883.004-9.138 3.026-10.811 7.431l-26.392 69.296c-1.966 5.161.624 10.939 5.785 12.904 5.161 1.966 10.94-.624 12.904-5.785l4.12-10.818h28.6l4.072 10.79c1.956 5.184 7.737 7.77 12.887 5.824 5.167-1.949 7.774-7.719 5.824-12.887-27.508-72.893-26.146-69.299-26.258-69.572zm-17.506 45.845 6.748-17.718 6.686 17.718z" fill="#000000" style="fill: rgb(255, 255, 255);"></path></g></svg>