<!-- icon666.com - MILLIONS vector ICONS FREE --><svg viewBox="0 0 64 64" xmlns="http://www.w3.org/2000/svg" xmlns:xlink="http://www.w3.org/1999/xlink"><linearGradient id="linear-gradient" gradientUnits="userSpaceOnUse" x1="3.25" x2="60.75" y1="32" y2="32"><stop offset="0" stop-color="#5bb4f6"></stop><stop offset=".61" stop-color="#2191e5"></stop><stop offset="1" stop-color="#007edb"></stop></linearGradient><g id="Layer_74" data-name="Layer 74"><rect fill="url(#linear-gradient)" height="57.5" rx="12.75" width="57.5" x="3.25" y="3.25"></rect><g fill="#fff"><path d="m42 11.25a.76.76 0 0 0 -.75.75v40a.75.75 0 0 0 1.5 0v-40a.76.76 0 0 0 -.75-.75z"></path><path d="m35.72 18.28a.75.75 0 0 0 -1.06 0l-13.19 13.19a.75.75 0 0 0 0 1.06l13.19 13.19a.73.73 0 0 0 .53.22.74.74 0 0 0 .53-.22.75.75 0 0 0 0-1.06l-12.66-12.66 12.66-12.66a.75.75 0 0 0 0-1.06z"></path></g></g></svg>