<!-- icon666.com - MILLIONS vector ICONS FREE --><svg id="Layer_1" enable-background="new 0 0 512 512" viewBox="0 0 512 512" xmlns="http://www.w3.org/2000/svg" xmlns:xlink="http://www.w3.org/1999/xlink"><linearGradient id="SVGID_1_" gradientTransform="matrix(1 0 0 -1 0 512.5)" gradientUnits="userSpaceOnUse" x1="256.05" x2="256.05" y1="512.45" y2=".45"><stop offset="0" stop-color="#f704fe"></stop><stop offset="1" stop-color="#24bce3"></stop></linearGradient><circle clip-rule="evenodd" cx="256" cy="256" fill="url(#SVGID_1_)" fill-rule="evenodd" r="256"></circle><g id="Layer_x0020_1"><g id="_426170472" clip-rule="evenodd" fill="#fffffe" fill-rule="evenodd"><path id="_426171696" d="m199.6 341.6v-124.8c0-7.2 5.9-13.1 13.1-13.1h86.7c7.2 0 13.1 5.9 13.1 13.1v124.9c63.4-5.3 87.1-17.4 87.1-23.9 0-3.9-9.8-12.2-46.6-18.8-1.6-.3-2.7-1.6-2.7-3.2v-128.4c0-1.6 1.1-2.9 2.7-3.2 36.8-6.6 46.6-14.9 46.6-18.8 0-4.4-10.6-11.6-40.4-17.6-27.5-5.5-64.2-8.6-103.2-8.6s-75.6 3-103.2 8.6c-29.8 6-40.4 13.2-40.4 17.6 0 3.9 9.8 12.2 46.6 18.8 1.6.3 2.7 1.6 2.7 3.2v128.3c0 .8-.3 1.5-.7 2.1-.5.5-1.1.9-1.8 1-36.7 6.5-46.6 14.9-46.6 18.8 0 6.6 23.6 18.8 87 24zm64.5-157.7v-37.6c0-3.4 2.7-6.1 6.1-6.1h60.8c3.4 0 6.1 2.7 6.1 6.1v37.7c0 3.4-2.7 6.1-6.1 6.1h-60.7c-3.4 0-6.2-2.7-6.2-6.2zm-83 6.2c-3.4 0-6.1-2.7-6.1-6.1v-37.6c0-3.4 2.7-6.1 6.1-6.1h60.7c3.4 0 6.1 2.7 6.1 6.1v37.6c0 3.4-2.7 6.1-6.1 6.1-20.2 0-40.6 0-60.7 0z"></path><path id="_426171816" d="m305.9 360.5h-99.7v25.8c0 3.6 2.9 6.5 6.5 6.5h86.7c3.6 0 6.5-2.9 6.5-6.5zm-38.7 5.5c4.6 0 8.3 3.7 8.3 8.3v4.9c0 4.6-3.7 8.3-8.3 8.3h-22.6c-4.6 0-8.3-3.7-8.3-8.3v-4.9c0-4.6 3.7-8.3 8.3-8.3z"></path><path id="_426172176" d="m267.2 372.5h-22.6c-1 0-1.8.8-1.8 1.8v4.9c0 1 .8 1.8 1.8 1.8h22.6c1 0 1.8-.8 1.8-1.8v-4.9c0-1.1-.8-1.8-1.8-1.8z"></path><path id="_426172032" d="m305.9 242.1h-99.7v111.9h99.7c0-37.4 0-74.6 0-111.9zm-21.5 77-26.9 12c-.9.4-1.9.4-2.8 0l-27-12.1c-1.2-.5-2-1.7-2-3v-4.6c-8.7-2.2-15.3-5.7-15.3-11.1 0-4.8 5.1-8.5 15.3-11.1v-4c0-1.4.8-2.6 2-3.1l27-12.1c.9-.4 1.8-.4 2.7 0l27 12.1c1.3.5 2 1.7 2 3v4.2c10.2 2.6 15.3 6.3 15.3 11.1 0 5.4-6.6 8.9-15.3 11.1v4.5c0 1.4-.9 2.6-2 3.1z"></path><path id="_426171720" d="m275 285.1-19-8.5-19.1 8.5 19.1 8.5z"></path><path id="_426170808" d="m279.8 306.2v-16l-20.5 9.2v8.8c8.2-.2 15.2-1 20.5-2z"></path><path id="_426171360" d="m252.8 308.1v-8.8l-20.5-9.1v16c5.3 1 12.1 1.8 20.5 1.9z"></path><path id="_426171312" d="m252.8 323.1v-8.4c-6.3-.1-13.7-.7-20.5-1.8v1.1z"></path><path id="_426171432" d="m279.8 312.9c-6.8 1.1-14.2 1.7-20.5 1.8v8.4l20.5-9.2z"></path><path id="_426171528" d="m225.6 304.8v-8.6c-11.4 3.2-11 5.3 0 8.6z"></path><path id="_426171216" d="m286.4 304.8c11-3.2 11.4-5.4 0-8.6z"></path><path id="_426170952" d="m305.9 235.6v-18.8c0-3.6-2.9-6.5-6.5-6.5h-86.7c-3.6 0-6.5 2.9-6.5 6.5v18.8zm-33.9-12.7c0 1.8-1.5 3.3-3.3 3.3h-25.3c-1.8 0-3.3-1.5-3.3-3.3s1.5-3.3 3.3-3.3h25.3c1.8 0 3.3 1.5 3.3 3.3z"></path><path id="_426170904" d="m155.2 293v-122.9c-20.8-3.9-35.1-8.7-42.8-14.3v151.5c7.8-5.7 22-10.4 42.8-14.3z"></path><path id="_426170232" d="m399.5 307.2v-151.4c-7.6 5.6-21.9 10.4-42.8 14.3v122.9c20.8 3.9 35.2 8.6 42.8 14.2z"></path><path id="_426170016" d="m297 171.1 10.5-6-10.5-6z"></path><path id="_426170448" d="m330.5 183.6v-36.8h-59.8v36.8zm-35-33 20.2 11.7c1 .6 1.6 1.7 1.6 2.8 0 1.2-.6 2.3-1.6 2.8l-20.2 11.7c-1 .6-2.3.6-3.3 0s-1.6-1.7-1.6-2.8v-23.3c0-1.2.6-2.3 1.6-2.8.9-.6 2.2-.6 3.3-.1z"></path><path id="_426170712" d="m241.4 183.6v-36.8h-59.8v36.8h4.7l9.4-17.8c.6-1.1 1.7-1.7 2.9-1.7s2.3.7 2.9 1.7l4.3 8.1 10.8-20.5c.6-1.1 1.7-1.7 2.9-1.7s2.3.7 2.9 1.7l15.9 30.2z"></path><path id="_426170088" d="m230.8 183.6-11.4-21.6c-3.8 7.2-7.6 14.4-11.4 21.6z"></path><path id="_426170040" d="m201.9 180.9-3.5-6.7-4.8 9.4h7z"></path></g></g></svg>