<!-- icon666.com - MILLIONS vector ICONS FREE --><svg enable-background="new 0 0 520 520" viewBox="0 0 520 520" xmlns="http://www.w3.org/2000/svg"><g id="_x39_28_x2C__Code_x2C__Development_x2C__Integrate_x2C__Message"><g><g><path d="m454.95 321.29c0 35.04-16.8 66.15-42.771 85.74l4.431 36.93-40.86-19.07c-8.97 2.431-18.4 3.73-28.14 3.73-63.199 0-112.603-54.334-106.89-116.98l-.29-.55c35.64-18.33 62.39-51.5 72.1-91.34l.14.03c10.96-3.77 22.71-5.82 34.94-5.82 59.28 0 107.34 48.05 107.34 107.33z" fill="#ffd400"></path><path d="m391.134 386.57c-1.516 0-3.013-.686-3.996-1.989-1.662-2.204-1.224-5.34.981-7.003 17.052-12.861 26.831-32.467 26.831-53.788 0-2.762 2.238-5 5-5s5 2.238 5 5c0 24.488-11.229 47.003-30.81 61.772-.901.68-1.958 1.008-3.006 1.008z" fill="#fff"></path><circle cx="475" cy="150" fill="#ffec6c" r="7.5"></circle><circle cx="435" cy="206.45" fill="#ffec6c" r="7.5"></circle><circle cx="397.5" cy="87.5" fill="#f88f19" r="30"></circle><circle cx="320.44" cy="74.71" fill="#ffec6c" r="7.5"></circle><path d="m317.5 187.5c0 77.131-62.495 140-140 140-12.7 0-25-1.7-36.7-4.87l-53.3 24.87 5.78-48.17c-33.88-25.55-55.78-66.13-55.78-111.83 0-77.32 62.68-140 140-140s140 62.68 140 140z" fill="#4a78ff"></path><circle cx="240" cy="465" fill="#ffec6c" r="7.5"></circle><path d="m137.5 412.5c11.05 0 20 8.95 20 20 0 11.04-8.95 20-20 20s-20-8.96-20-20c0-11.05 8.95-20 20-20z" fill="#f88f19"></path><circle cx="70" cy="430" fill="#ffec6c" r="7.5"></circle><circle cx="55" cy="330" fill="#ffec6c" r="7.5"></circle><g fill="#fff"><path d="m113.42 185c-2.761 0-5-2.239-5-5v-26.32h-8.42c-2.761 0-5-2.239-5-5s2.239-5 5-5h13.42c2.761 0 5 2.239 5 5v31.32c0 2.761-2.239 5-5 5z"></path><path d="m158.16 185h-22.37c-2.761 0-5-2.239-5-5v-31.32c0-2.761 2.239-5 5-5h22.37c2.761 0 5 2.239 5 5v31.32c0 2.761-2.239 5-5 5zm-17.37-10h12.37v-21.32h-12.37z"></path><path d="m189.47 185c-2.761 0-5-2.239-5-5v-26.32h-8.42c-2.761 0-5-2.239-5-5s2.239-5 5-5h13.42c2.761 0 5 2.239 5 5v31.32c0 2.761-2.239 5-5 5z"></path><path d="m140.26 131.32c-2.761 0-5-2.239-5-5v-26.32h-8.42c-2.761 0-5-2.239-5-5s2.239-5 5-5h13.42c2.761 0 5 2.239 5 5v31.32c0 2.761-2.239 5-5 5z"></path><path d="m185 131.32h-22.37c-2.761 0-5-2.239-5-5v-31.32c0-2.761 2.239-5 5-5h22.37c2.761 0 5 2.239 5 5v31.32c0 2.761-2.239 5-5 5zm-17.37-10h12.37v-21.32h-12.37z"></path><path d="m216.32 131.32c-2.761 0-5-2.239-5-5v-26.32h-8.43c-2.761 0-5-2.239-5-5s2.239-5 5-5h13.43c2.761 0 5 2.239 5 5v31.32c0 2.761-2.239 5-5 5z"></path><path d="m148.42 290c-2.761 0-5-2.238-5-5v-26.319h-8.42c-2.761 0-5-2.239-5-5s2.239-5 5-5h13.42c2.761 0 5 2.239 5 5v31.319c0 2.762-2.239 5-5 5z"></path><path d="m193.16 290h-22.37c-2.761 0-5-2.238-5-5v-31.32c0-2.761 2.239-5 5-5h22.37c2.761 0 5 2.239 5 5v31.32c0 2.762-2.239 5-5 5zm-17.37-10h12.37v-21.319h-12.37z"></path><path d="m224.47 290c-2.761 0-5-2.238-5-5v-26.319h-8.42c-2.761 0-5-2.239-5-5s2.239-5 5-5h13.42c2.761 0 5 2.239 5 5v31.319c0 2.762-2.239 5-5 5z"></path><path d="m175.26 236.32c-2.761 0-5-2.239-5-5v-26.32h-8.42c-2.761 0-5-2.239-5-5s2.239-5 5-5h13.42c2.761 0 5 2.239 5 5v31.32c0 2.761-2.239 5-5 5z"></path><path d="m220 236.32h-22.37c-2.761 0-5-2.239-5-5v-31.32c0-2.761 2.239-5 5-5h22.37c2.761 0 5 2.239 5 5v31.32c0 2.761-2.239 5-5 5zm-17.37-10h12.37v-21.32h-12.37z"></path><path d="m251.32 236.32c-2.761 0-5-2.239-5-5v-26.32h-8.43c-2.761 0-5-2.239-5-5s2.239-5 5-5h13.43c2.761 0 5 2.239 5 5v31.32c0 2.761-2.239 5-5 5z"></path></g></g></g></g></svg>