<!-- icon666.com - MILLIONS vector ICONS FREE --><svg viewBox="0 0 32 32" xmlns="http://www.w3.org/2000/svg"><g id="client_x2C__customer_x2C__profil_x2C__user_x2C__care_x2C__hand"><g id="XMLID_3819_"><g id="data_base_hand_file_3_"><g id="profit_3_"><g id="XMLID_3367_"><g id="XMLID_3614_"><g id="XMLID_3615_"><path id="XMLID_3616_" d="m15.397 19.417c-2.338-2.348-6.133-2.353-8.476-.009l-2.864 3.364 4.95 4.449 1.247-1.086c.415-.361 1.205-.657 1.755-.657h4.981c.676 0 1.35-.093 2.001-.275l5.349-1.501 5.342-2.966c.579-.406-.346-3.005-3.07-1.963-1.438.552-3.311 1.159-4.123 1.723l-4.068.735c-.526.16-1.271-.03-1.656-.422z" fill="#fff"></path></g></g><path id="XMLID_3613_" d="m18.992 25.204 5.349-1.501 5.342-2.966c.579-.406-.346-3.005-3.07-1.963-1.438.552-3.311 1.159-4.123 1.723l-4.068.735c-.526.16-1.271-.03-1.656-.422l-1.367-1.392c-.499-.501-1.073-.873-1.678-1.161-1.864-.336-4.296.28-5.738 1.723l-2 2 3.506 4.826.768-.669c.414-.361 1.204-.657 1.754-.657h4.982c.674-.001 1.348-.094 1.999-.276z" fill="#ffe0b2"></path><path d="m6.674 20.2c-.115 0-.23-.039-.324-.12-.21-.179-.235-.495-.057-.705l.248-.291c2.065-2.067 5.139-2.525 7.676-1.163.243.13.335.433.204.677-.13.244-.435.334-.677.204-2.145-1.15-4.745-.764-6.469.96l-.221.262c-.099.116-.239.176-.38.176z" fill="#455a64"></path><path d="m9.481 27c-.188 0-.367-.106-.452-.287-.118-.25-.011-.548.239-.666l.715-.336c.51-.415 1.336-.711 1.998-.711h4.948c.633 0 1.262-.087 1.87-.258l5.343-1.503 5.186-3.056c-.124-.5-.372-.855-.742-1.058-.674-.369-1.781-.243-3.038.346l-2.828 1.469c-.045.023-.092.039-.142.048l-4.068.735c-.27.045-.532-.131-.581-.403-.049-.271.132-.532.403-.581l3.994-.722 2.779-1.443c1.591-.745 2.989-.858 3.961-.326.509.278 1.148.873 1.313 2.123.025.199-.069.394-.242.496l-5.542 3.266c-.037.022-.077.039-.118.051l-5.405 1.521c-.698.195-1.419.295-2.142.295h-4.948c-.439 0-1.079.235-1.397.513-.035.031-.074.056-.116.076l-.773.364c-.071.032-.143.047-.215.047z" fill="#455a64"></path><g id="XMLID_3382_"><g id="XMLID_3386_"><g><path id="XMLID_129_" d="m14.009 21.5h7.395c0-.5 0-3.002-3.531-3h-3.733z" fill="#ffe0b2"></path><path d="m21.403 22h-7.395c-.276 0-.5-.224-.5-.5s.224-.5.5-.5h6.861c-.04-.273-.13-.607-.329-.918-.46-.718-1.356-1.082-2.664-1.082-.001 0-.002 0-.004 0h-3.732c-.276 0-.5-.224-.5-.5s.224-.5.5-.5h3.732.005c1.67 0 2.85.519 3.506 1.542.521.812.521 1.675.521 1.958-.001.276-.224.5-.501.5z" fill="#455a64"></path></g></g></g></g></g><g id="XMLID_3338_"><path id="XMLID_3365_" d="m1.842 24.5 2.892-2.897 5.658 5.657-2.893 2.898z" fill="#80d8ff"></path><path id="XMLID_3364_" d="m1.595 22.905h4.093v1.001h-4.093z" fill="#fff" transform="matrix(.706 -.708 .708 .706 -15.498 9.45)"></path><path id="XMLID_3356_" d="m6.191 27.001h4.094v2h-4.094z" fill="#73c2e6" transform="matrix(-.707 .708 -.708 -.707 33.875 41.955)"></path><path id="XMLID_3340_" d="m8.217 30.854c-.194.194-.512.195-.707 0-.195-.196-.194-.513 0-.707l2.882-2.887-5.657-5.657-2.881 2.886c-.195.195-.512.195-.707 0-.195-.194-.195-.512 0-.707l3.187-3.191c.195-.195.575-.229.771-.033l6.364 6.364c.195.195.133.544-.063.739z" fill="#455a64"></path></g></g><g fill="#455a64"><path d="m17.578 29h-1.097c-.276 0-.5-.224-.5-.5s.224-.5.5-.5h1.097c4.016 0 7.954-1.382 11.091-3.891.217-.171.531-.136.703.078.172.216.138.53-.078.703-3.314 2.651-7.474 4.11-11.716 4.11z"></path><circle id="XMLID_3331_" cx="14.481" cy="28.5" r=".5"></circle></g></g><g id="XMLID_3267_"><g id="XMLID_3740_"><g id="XMLID_3768_"><g id="XMLID_3769_"><g id="XMLID_3770_"><g id="XMLID_3771_"><g id="XMLID_3772_"><g id="XMLID_3773_"><circle id="XMLID_3774_" cx="19" cy="9.001" fill="#fff" r="7.5"></circle></g></g></g></g></g></g><g id="XMLID_3761_"><g id="XMLID_3762_"><g id="XMLID_3763_"><g id="XMLID_3764_"><g id="XMLID_3765_"><g id="XMLID_3766_"><path id="XMLID_3767_" d="m26.475 9.51c-.254-3.635-3.275-6.509-6.975-6.509-3.865 0-7 3.134-7 7 0 2.118.945 4.012 2.432 5.296 1.172.76 2.567 1.205 4.068 1.205 3.969 0 7.211-3.088 7.475-6.992z" fill="#dee4e7"></path></g></g></g></g></g></g><g id="XMLID_3754_"><g id="XMLID_3755_"><g id="XMLID_3756_"><g id="XMLID_3757_"><g id="XMLID_3758_"><g id="XMLID_3759_"><path id="XMLID_3760_" d="m23.042 12.703-2.542-.913v-.8c.604-.457 1-1.174 1-1.989v-1c0-1.381 0-3-2.5-3s-2.5 1.619-2.5 3v1c0 .815.396 1.532 1 1.989v.8l-2.542.913c-.322.097-.594.354-.766.662 1.189 1.309 2.899 2.137 4.808 2.137s3.618-.828 4.808-2.137c-.172-.307-.444-.565-.766-.662z" fill="#ffe0b2"></path></g></g></g></g></g></g><g id="XMLID_3748_"><g id="XMLID_3749_"><g id="XMLID_3750_"><g id="XMLID_3751_"><g id="XMLID_3752_"><path id="XMLID_3753_" d="m23.042 12.703-2.542-.913v-.8c.604-.457 1-1.174 1-1.989v-1c0-1.381 0-3-2.5-3-.282 0-.527.023-.75.062 1.746.302 1.75 1.712 1.75 2.938v1c0 .815-.249 1.989-1 1.989-1.28 0-1.249-.334-1.249-.334l-.251 1.134-2.542.913c-.322.097-.594.354-.766.662 1.189 1.309 2.899 2.137 4.808 2.137s3.618-.828 4.808-2.137c-.172-.307-.444-.565-.766-.662z" fill="#e6caa0"></path></g></g></g></g></g><g id="XMLID_3499_"><g id="XMLID_3505_"><g id="XMLID_3508_"><g id="XMLID_3631_"><g id="XMLID_3632_"><g id="XMLID_3633_"><path id="XMLID_3634_" d="m23.042 12.703-2.542-.913s-.938.511-1.5.511-1.5-.511-1.5-.511l-2.542.913c-.322.097-1.181 1.011-1.353 1.318 1.189 1.309 3.509 2.5 5.416 2.5 1.908 0 4.165-1.004 5.354-2.313-.171-.307-1.011-1.408-1.333-1.505z" fill="#ff8a80"></path></g></g></g></g></g></g></g></g><g id="XMLID_3269_"><path d="m19 17.002c-2.194 0-4.244-.876-5.771-2.468-.127-.132-.171-.324-.115-.499.244-.762.84-1.368 1.557-1.583l2.632-1.136c.14-.06.304-.053.438.021l.535.294c.443.243 1.006.245 1.447 0l.536-.296c.134-.074.296-.083.438-.021l2.746 1.18c.617.177 1.206.791 1.443 1.543.056.174.011.365-.116.497-1.526 1.591-3.576 2.468-5.77 2.468zm-4.816-2.929c1.308 1.247 3.006 1.929 4.816 1.929 1.812 0 3.51-.683 4.819-1.931-.169-.31-.438-.557-.714-.638l-2.578-1.104-.322.178c-.736.406-1.673.405-2.411 0l-.32-.176-2.462 1.059c-.353.109-.65.364-.828.683z" fill="#455a64"></path><g id="XMLID_3395_"><g id="XMLID_3397_"><g id="XMLID_3398_"><g id="XMLID_3493_"><g id="XMLID_3494_"><g id="XMLID_3495_"><path id="XMLID_3496_" d="m12.253 12.75c-.187 0-.364-.104-.45-.283-.533-1.104-.803-2.27-.803-3.467 0-4.411 3.589-8 8-8s8 3.589 8 8c0 1.215-.266 2.381-.787 3.467-.121.249-.418.354-.668.233-.249-.12-.354-.419-.234-.667.457-.95.689-1.97.689-3.033 0-3.859-3.141-7-7-7s-7 3.141-7 7c0 1.046.236 2.066.703 3.033.119.248.016.547-.233.667-.07.034-.144.05-.217.05z" fill="#455a64"></path></g></g></g></g></g></g><g id="XMLID_3270_"><g id="XMLID_3273_"><g id="XMLID_3323_"><g id="XMLID_3361_"><g id="XMLID_3390_"><g id="XMLID_3391_"><path d="m20.5 12.29c-.276 0-.5-.224-.5-.5v-.8c0-.157.073-.304.198-.398.51-.386.802-.966.802-1.591v-1c0-1.55-.097-2.5-2-2.5s-2 .95-2 2.5v1c0 .625.292 1.205.802 1.591.125.094.198.241.198.398v.8c0 .276-.224.5-.5.5s-.5-.224-.5-.5v-.564c-.639-.571-1-1.369-1-2.225v-1c0-1.309 0-3.5 3-3.5s3 2.191 3 3.5v1c0 .856-.361 1.653-1 2.225v.564c0 .276-.224.5-.5.5z" fill="#455a64"></path></g></g></g></g></g></g></g></g></svg>