<!-- icon666.com - MILLIONS vector ICONS FREE --><svg enable-background="new 0 0 520 520" viewBox="0 0 520 520" xmlns="http://www.w3.org/2000/svg"><g id="_x39_10_x2C__Cloud_x2C__Lock_x2C__Secure_x2C__Dollar_x2C__Money"><g><g><path d="m467.5 265c0 33.14-26.86 60-60 60-11.818 0-283.612 0-295 0-33.137 0-60-26.858-60-60 0-33.14 26.86-60 60-60h22.92c-1.934-4.773-2.92-9.848-2.92-15 0-22.09 17.91-40 40-40h15v-2.5c0-20.02 8.12-38.14 21.24-51.26s31.24-21.24 51.26-21.24c40.04 0 72.5 32.46 72.5 72.5v2.5h15c22.079 0 40 17.919 40 40 0 5.31-1.04 10.37-2.92 15h22.92c33.138 0 60 26.858 60 60z" fill="#5cbeff"></path><circle cx="455" cy="157.5" fill="#ffec6c" r="7.5"></circle><circle cx="450" cy="362.5" fill="#ffec6c" r="7.5"></circle><circle cx="422.5" cy="80" fill="#ffd400" r="40"></circle><circle cx="420" cy="437.5" fill="#ffec6c" r="7.5"></circle><path d="m332.5 350c-24.827 0-45-20.121-45-45 0-24.85 20.15-45 45-45s45 20.15 45 45c0 24.9-20.191 45-45 45z" fill="#ffd400"></path><path d="m317.5 395c24.85 0 45 20.15 45 45s-20.15 45-45 45-45-20.15-45-45 20.15-45 45-45z" fill="#ffd400"></path><path d="m348.38 308.13c.61 1.38.92 3.03.92 4.96 0 2.24-.399 4.15-1.18 5.73-.79 1.569-1.84 2.859-3.16 3.859-1.32 1.011-2.84 1.771-4.55 2.28s-3.51.8-5.4.88v6.851h-4.069v-6.91c-5.225-.442-10.813-2.14-15.24-5.07l4.25-8.45c.16.2.58.521 1.27.98.69.45 1.57.92 2.63 1.41 1.061.5 2.261.97 3.601 1.42 1.34.449 2.72.779 4.14.97v-7.85c-1.188-.378-4.606-1.16-7.859-2.74-4.404-2.156-6.261-5.134-6.261-9.66 0-2.04.36-3.86 1.07-5.46 2.287-5.121 6.89-7.477 12.4-8.061v-5.96h4.069v5.96c2.561.24 4.96.811 7.2 1.721 2.25.899 4.19 1.83 5.85 2.77l-4.25 8.03c-.119-.16-.47-.41-1.04-.771-1.172-.72-3.008-1.604-5.13-2.329-1.09-.37-2.18-.641-3.279-.801v8.03l1.89.47c2.01.561 3.82 1.16 5.43 1.811 1.61.64 2.98 1.45 4.101 2.42 1.127.96 1.987 2.13 2.597 3.51zm-14.02 9.03c3.029-.12 4.55-1.16 4.55-3.13 0-1.021-.42-1.82-1.24-2.391-.83-.569-1.93-1.09-3.31-1.56zm-2.77-18.06v-7.27c-2.76.24-4.14 1.38-4.14 3.43 0 .98.35 1.76 1.03 2.33.69.57 1.73 1.07 3.11 1.51z" fill="#fff"></path><circle cx="340" cy="52.5" fill="#ffec6c" r="7.5"></circle><path d="m333.38 443.13c.61 1.38.92 3.03.92 4.96 0 2.24-.399 4.15-1.18 5.73-.79 1.569-1.84 2.859-3.16 3.859-1.32 1.011-2.84 1.771-4.55 2.28s-3.51.8-5.4.88v6.851h-4.069v-6.91c-5.225-.442-10.813-2.14-15.24-5.07l4.25-8.45c.16.2.58.521 1.27.98.69.45 1.57.92 2.63 1.41 1.061.5 2.261.97 3.601 1.42 1.34.449 2.72.779 4.14.97v-7.85c-1.188-.378-4.606-1.16-7.859-2.74-4.404-2.156-6.261-5.134-6.261-9.66 0-2.04.36-3.86 1.07-5.46 2.287-5.121 6.89-7.477 12.4-8.061v-5.96h4.069v5.96c2.561.24 4.96.811 7.2 1.721 2.25.899 4.19 1.83 5.85 2.77l-4.25 8.03c-.119-.16-.47-.41-1.04-.771-1.172-.72-3.008-1.604-5.13-2.329-1.09-.37-2.18-.641-3.279-.801v8.03l1.89.47c2.01.561 3.82 1.16 5.43 1.811 1.61.64 2.98 1.45 4.101 2.42 1.127.96 1.987 2.13 2.597 3.51zm-14.02 9.03c3.029-.12 4.55-1.16 4.55-3.13 0-1.021-.42-1.82-1.24-2.391-.83-.569-1.93-1.09-3.31-1.56zm-2.77-18.06v-7.27c-2.76.24-4.14 1.38-4.14 3.43 0 .98.35 1.76 1.03 2.33.69.57 1.73 1.07 3.11 1.51z" fill="#fff"></path><path d="m222.5 325c24.85 0 45 20.15 45 45s-20.15 45-45 45-45-20.15-45-45 20.15-45 45-45z" fill="#ffd400"></path><path d="m238.38 373.13c.61 1.38.92 3.03.92 4.96 0 2.24-.4 4.15-1.18 5.73-.79 1.569-1.84 2.859-3.16 3.859-1.32 1.011-2.84 1.771-4.55 2.28s-3.51.8-5.4.88v6.851h-4.07v-6.91c-5.213-.441-10.805-2.135-15.24-5.07l4.25-8.45c.16.2.58.521 1.27.98.69.45 1.57.92 2.63 1.41 1.06.5 2.26.97 3.6 1.42 1.34.449 2.72.779 4.14.97v-7.85c-1.234-.393-4.613-1.164-7.86-2.74-4.534-2.22-6.26-5.275-6.26-9.66 0-2.04.36-3.86 1.07-5.46 2.275-5.096 6.852-7.473 12.4-8.061v-5.96h4.07v5.96c2.56.24 4.96.811 7.2 1.721 2.25.899 4.19 1.83 5.85 2.77l-4.25 8.03c-.12-.16-.47-.41-1.04-.771-1.172-.72-3.01-1.604-5.13-2.329-1.09-.37-2.18-.641-3.28-.801v8.03l1.89.47c2.01.561 3.82 1.16 5.43 1.811 1.61.64 2.98 1.45 4.1 2.42 1.13.96 1.99 2.13 2.6 3.51zm-14.02 9.03c3.03-.12 4.55-1.16 4.55-3.13 0-1.021-.42-1.82-1.24-2.391-.83-.569-1.93-1.09-3.31-1.56zm-2.77-18.06v-7.27c-2.76.24-4.14 1.38-4.14 3.43 0 .98.35 1.76 1.03 2.33.69.57 1.73 1.07 3.11 1.51z" fill="#fff"></path><circle cx="185" cy="457.5" fill="#ffec6c" r="7.5"></circle><circle cx="160" cy="42.5" fill="#ffec6c" r="7.5"></circle><path d="m92.5 395c13.81 0 25 11.19 25 25s-11.19 25-25 25-25-11.19-25-25 11.19-25 25-25z" fill="#ffd400"></path><circle cx="75" cy="127.5" fill="#ffec6c" r="7.5"></circle><circle cx="65" cy="352.5" fill="#ffec6c" r="7.5"></circle><g fill="#fff"><path d="m222.5 142.5c-2.761 0-5-2.239-5-5 0-22.056 17.944-40 40-40 2.762 0 5 2.239 5 5s-2.238 5-5 5c-16.542 0-30 13.458-30 30 0 2.761-2.239 5-5 5z"></path><path d="m187.5 247.5h-80c-2.761 0-5-2.239-5-5s2.239-5 5-5h80c2.761 0 5 2.239 5 5s-2.239 5-5 5z"></path><path d="m182.5 277.5h-40c-2.761 0-5-2.238-5-5s2.239-5 5-5h40c2.761 0 5 2.238 5 5s-2.239 5-5 5z"></path></g></g></g></g></svg>