<!-- icon666.com - MILLIONS vector ICONS FREE --><svg id="Layer_1" enable-background="new 0 0 64 64" viewBox="0 0 64 64" xmlns="http://www.w3.org/2000/svg"><g id="_3._Communication"><path d="m47 13h1c.6 0 1 .4 1 1v14c0 .6-.4 1-1 1h-1c-.6 0-1-.4-1-1v-14c0-.6.4-1 1-1z" fill="#f8cf6d"></path><path d="m53 35h-6c-.6 0-1-.4-1-1s.4-1 1-1h5v-7.4l-3.5-1.7c-.5-.2-.8-.8-.5-1.3s.8-.8 1.3-.5c.3.1-1.2-.6 4.1 2.1.3.2.5.5.5.9v9c.1.5-.3.9-.9.9z" fill="#f8cf6d"></path><path d="m30 33h12v2h-12z" fill="#ee7231"></path><path d="m31 48v5h-24.3c-1.5 0-2.8-1.2-3-2.7-2.9-28.6-2.7-25.8-2.7-27.2 0-.9.7-2.1 2.1-2.1 1.1 0 2 .8 2.1 1.9l2.3 25.1z" fill="#2f79f0"></path><circle cx="19" cy="13" fill="#88b8f9" r="7"></circle><path d="m28 35h34c.6 0 1 .4 1 1v3c0 .6-.4 1-1 1h-34c-.6 0-1-.4-1-1v-3c0-.6.4-1 1-1z" fill="#2f79f0"></path><path d="m25.1 37.2c-.9.4-1.9.3-2.7-.2-.2-.1-8.3-6.6-8.5-6.7-1.3-1-1.5-2.9-.5-4.2s2.9-1.5 4.2-.5c.1 0 6.6 6.3 6.7 6.4l8.4-4.2c1.2-.6 2.7-.1 3.4 1.1s.1 2.7-1.1 3.4c.1-.1.6-.3-9.9 4.9z" fill="#88b8f9"></path><path d="m58 64h-4l-1-24h6z" fill="#0c3798"></path><path d="m15 53h4v7h-4z" fill="#0c3798"></path><path d="m28 62h-8v-1c0-.6-.4-1-1-1h-4c-.6 0-1 .4-1 1v1h-8c-.6 0-1 .4-1 1s.4 1 1 1h22c.6 0 1-.4 1-1s-.4-1-1-1z" fill="#2f79f0"></path><path d="m38 63.8c-1.6.6-3.3-.2-3.9-1.8l-5.2-14h-16.4c-3 0-5.4-2.4-5.5-5.4 0-.8-.1.1 3-15.4 1.1-5.5 8.2-7.1 11.5-2.6l2 .6 5.9-5.1c1-.9 2.6-.8 3.5.3s.8 2.6-.3 3.5l-7 6c-.4.3-.8.5-1.3.6l-2.3-.7c.1 11.5.3 5.1.1 12.2h8.9c1.3 0 2.4.8 2.8 2l6 16c.6 1.5-.2 3.2-1.8 3.8z" fill="#88b8f9"></path><path d="m36 64h-4l-1-24h6z" fill="#0c3798"></path><path d="m24 17h-2.3l-1.7-4.2v-6.8c0-.6-.4-1-1-1s-1 .4-1 1v7c0 .4-.1.1 2 5.4.2.4.6.7 1 .6h3c.6 0 1-.4 1-1s-.4-1-1-1z" fill="#2f79f0"></path><circle cx="19" cy="13" fill="#0c3798" r="3"></circle><path d="m55 2v6c0 1.1-.9 2-2 2h-10l-1.5 1.5c-.2.2-.4.1-.5-.2v-9.3c0-1.1.9-2 2-2h10c1.1 0 2 .9 2 2z" fill="#ee7231"></path><g fill="#fffeff"><circle cx="48" cy="5" r="1"></circle><circle cx="52" cy="5" r="1"></circle><circle cx="44" cy="5" r="1"></circle></g><path d="m1 2v6c0 1.1.9 2 2 2h10l1.5 1.5c.2.2.5.1.5-.2v-9.3c0-1.1-.9-2-2-2h-10c-1.1 0-2 .9-2 2z" fill="#f8cf6d"></path><circle cx="8" cy="5" fill="#fffeff" r="1"></circle><circle cx="4" cy="5" fill="#fffeff" r="1"></circle><circle cx="12" cy="5" fill="#fffeff" r="1"></circle></g></svg>