<!-- icon666.com - MILLIONS vector ICONS FREE --><svg viewBox="0 0 32 32" xmlns="http://www.w3.org/2000/svg"><g id="sell_house_x2C__document_x2C__contract_x2C__check_mark_x2C__tick_x2C__done"><g id="XMLID_3165_"><path id="XMLID_3504_" d="m27.5 30.5h-23v-23l6-6h17z" fill="#f2f4f5"></path><path d="m4.5 17c-.276 0-.5-.224-.5-.5v-9c0-.133.053-.26.146-.354l6-6c.094-.093.221-.146.354-.146h10c.276 0 .5.224.5.5s-.224.5-.5.5h-9.793l-5.707 5.707v8.793c0 .276-.224.5-.5.5z" fill="#455a64"></path><path id="XMLID_3502_" d="m10.5 7.5v-6l-5.979 6z" fill="#fff"></path><g fill="#455a64"><path d="m10.5 8h-5.979c-.202 0-.383-.122-.461-.308-.078-.187-.036-.402.107-.545l5.979-6c.195-.196.512-.196.707-.001.196.195.196.511.002.707l-5.129 5.147h4.274v-2.5c0-.276.224-.5.5-.5s.5.224.5.5v3c0 .276-.224.5-.5.5z"></path><path d="m27.5 31h-16c-.276 0-.5-.224-.5-.5s.224-.5.5-.5h15.5v-14.5c0-.276.224-.5.5-.5s.5.224.5.5v15c0 .276-.224.5-.5.5z"></path></g></g><g id="sharing_economy_2_"><circle id="XMLID_3841_" cx="16" cy="15.997" fill="#65f0cd" r="6"></circle><g id="XMLID_3689_"><circle id="XMLID_3694_" cx="24.5" cy="7.997" fill="#ffafa9" r="6"></circle><path id="XMLID_3693_" d="m19 9.497c0-3.313 2.687-6 6-6 2.373 0 4.419 1.382 5.392 3.382-.524-2.777-2.961-4.882-5.892-4.882-3.313 0-6 2.688-6 6 0 .939.223 1.826.608 2.618-.068-.363-.108-.736-.108-1.118z" fill="#fff"></path><path d="m30.028 10.832c-.065 0-.131-.013-.195-.04-.254-.107-.373-.401-.266-.655.287-.678.433-1.398.433-2.14 0-3.033-2.468-5.5-5.5-5.5s-5.5 2.467-5.5 5.5c0 .731.142 1.441.42 2.112.105.255-.015.548-.271.654-.254.104-.547-.015-.653-.27-.329-.794-.496-1.633-.496-2.496 0-3.584 2.916-6.5 6.5-6.5s6.5 2.916 6.5 6.5c0 .877-.172 1.728-.511 2.53-.081.19-.266.305-.461.305z" fill="#455a64"></path><g><path id="XMLID_122_" d="m24.5 13.997c1.646 0 3.136-.664 4.22-1.737-.471-1.037-1.506-1.763-2.72-1.763h-3c-1.214 0-2.249.726-2.72 1.763 1.084 1.073 2.574 1.737 4.22 1.737z" fill="#80d8ff"></path><path d="m24.5 14.497c-1.723 0-3.346-.668-4.571-1.882-.148-.147-.19-.372-.104-.562.566-1.249 1.813-2.056 3.175-2.056h3c1.362 0 2.608.807 3.175 2.056.087.19.045.415-.104.562-1.225 1.213-2.848 1.882-4.571 1.882zm-3.597-2.341c1 .867 2.264 1.341 3.597 1.341s2.597-.474 3.597-1.341c-.454-.714-1.244-1.159-2.097-1.159h-3c-.853 0-1.643.445-2.097 1.159z" fill="#455a64"></path></g><g><circle id="XMLID_117_" cx="24.5" cy="6.497" fill="#ffe0b2" r="2"></circle><path d="m24.5 8.997c-1.379 0-2.5-1.122-2.5-2.5s1.121-2.5 2.5-2.5 2.5 1.122 2.5 2.5-1.121 2.5-2.5 2.5zm0-4c-.827 0-1.5.673-1.5 1.5s.673 1.5 1.5 1.5 1.5-.673 1.5-1.5-.673-1.5-1.5-1.5z" fill="#455a64"></path></g></g><g id="XMLID_3650_"><circle id="XMLID_3688_" cx="7.5" cy="23.997" fill="#fff5a2" r="6"></circle><path id="XMLID_3687_" d="m2 25.497c0-3.313 2.687-6 6-6 2.373 0 4.419 1.382 5.392 3.382-.524-2.777-2.961-4.882-5.892-4.882-3.313 0-6 2.688-6 6 0 .939.223 1.826.608 2.618-.068-.363-.108-.736-.108-1.118z" fill="#fff"></path><path d="m13.028 26.832c-.065 0-.131-.013-.195-.04-.254-.107-.373-.401-.266-.655.287-.678.433-1.398.433-2.14 0-3.033-2.468-5.5-5.5-5.5s-5.5 2.467-5.5 5.5c0 .731.142 1.441.42 2.112.105.255-.015.548-.271.654-.253.104-.547-.015-.653-.27-.329-.794-.496-1.633-.496-2.496 0-3.584 2.916-6.5 6.5-6.5s6.5 2.916 6.5 6.5c0 .877-.172 1.728-.511 2.53-.081.19-.266.305-.461.305z" fill="#455a64"></path><g><path id="XMLID_109_" d="m7.5 29.997c1.646 0 3.136-.664 4.22-1.737-.471-1.037-1.506-1.763-2.72-1.763h-3c-1.214 0-2.249.726-2.72 1.763 1.084 1.073 2.574 1.737 4.22 1.737z" fill="#1de9b6"></path><path d="m7.5 30.497c-1.723 0-3.346-.668-4.571-1.882-.148-.147-.19-.372-.104-.562.567-1.249 1.813-2.056 3.175-2.056h3c1.362 0 2.608.807 3.175 2.056.087.19.045.415-.104.562-1.225 1.213-2.848 1.882-4.571 1.882zm-3.597-2.341c1 .867 2.264 1.341 3.597 1.341s2.597-.474 3.597-1.341c-.454-.714-1.244-1.159-2.097-1.159h-3c-.853 0-1.643.445-2.097 1.159z" fill="#455a64"></path></g><g><circle id="XMLID_89_" cx="7.5" cy="22.497" fill="#ffe0b2" r="2"></circle><path d="m7.5 24.997c-1.379 0-2.5-1.122-2.5-2.5s1.121-2.5 2.5-2.5 2.5 1.122 2.5 2.5-1.121 2.5-2.5 2.5zm0-4c-.827 0-1.5.673-1.5 1.5s.673 1.5 1.5 1.5 1.5-.673 1.5-1.5-.673-1.5-1.5-1.5z" fill="#455a64"></path></g></g><g id="XMLID_3310_"><g id="XMLID_3646_"><g id="XMLID_3647_" fill="#455a64"><path d="m10.014 16.902c-.26 0-.479-.202-.498-.466-.021-.311-.02-.627.005-.94.277-3.572 3.419-6.26 6.981-5.979.275.021.481.262.46.537-.021.276-.287.478-.536.46-3.025-.24-5.674 2.036-5.909 5.058-.021.268-.021.534-.003.795.019.275-.189.514-.465.533-.012.002-.024.002-.035.002z"></path><path d="m16.012 22.495c-.171 0-.342-.007-.515-.02-.275-.021-.48-.262-.459-.538.021-.275.27-.478.537-.459 1.464.116 2.884-.35 4-1.305 1.116-.956 1.793-2.288 1.907-3.752.021-.266.021-.529.004-.788-.018-.275.19-.514.466-.532.293-.017.514.19.532.466.02.306.019.617-.006.931-.134 1.73-.934 3.305-2.253 4.435-1.187 1.017-2.667 1.562-4.213 1.562z"></path></g></g></g><g id="XMLID_3169_"><path d="m15.5 18c-.006 0-.013 0-.019 0-.151-.005-.291-.079-.382-.2l-1.5-2c-.165-.221-.12-.534.101-.7.22-.165.534-.123.7.1l1.13 1.506 3.094-3.536c.182-.208.498-.229.705-.047.208.182.229.498.047.706l-3.5 4c-.095.109-.232.171-.376.171z" fill="#455a64"></path></g></g><g fill="#455a64"><path id="XMLID_3675_" d="m21.5 27h-5c-.276 0-.5-.224-.5-.5s.224-.5.5-.5h5c.276 0 .5.224.5.5s-.224.5-.5.5z"></path><path id="XMLID_3663_" d="m24.5 25h-8c-.276 0-.5-.224-.5-.5s.224-.5.5-.5h8c.276 0 .5.224.5.5s-.224.5-.5.5z"></path></g></g></svg>