<!-- icon666.com - MILLIONS vector ICONS FREE --><svg id="Capa_1" enable-background="new 0 0 512.085 512.085" viewBox="0 0 512.085 512.085" xmlns="http://www.w3.org/2000/svg"><g><g fill="#50758d"><ellipse cx="256.043" cy="117.788" rx="110.269" ry="110.288"></ellipse><ellipse cx="394.273" cy="394.297" rx="110.269" ry="110.288"></ellipse><ellipse cx="117.812" cy="394.297" rx="110.269" ry="110.288"></ellipse><path d="m254.898 460.267c-4.024 0-8.059-.141-12.099-.424-11.797-.824-20.572-1.814-30.518-4.439-4.005-1.058-6.395-5.161-5.338-9.166s5.159-6.391 9.166-5.338c8.8 2.323 16.833 3.219 27.735 3.98 17.168 1.202 34.223-.397 50.692-4.748 4.01-1.061 8.108 1.331 9.167 5.335 1.059 4.005-1.33 8.109-5.335 9.167-14.182 3.747-28.757 5.633-43.47 5.633z"></path><path d="m105.598 291.429c-.091 0-.181-.002-.271-.005-4.14-.146-7.376-3.622-7.229-7.762 1.669-46.978 20.327-87.978 53.956-118.569 3.065-2.787 7.807-2.562 10.595.501 2.787 3.064 2.563 7.808-.501 10.595-30.572 27.811-47.537 65.159-49.06 108.007-.143 4.047-3.471 7.233-7.49 7.233z"></path><path d="m406.488 291.429c-4.019 0-7.347-3.185-7.49-7.233-1.523-42.849-18.488-80.196-49.06-108.007-3.064-2.787-3.288-7.53-.501-10.595s7.531-3.288 10.595-.501c33.628 30.591 52.285 71.591 53.956 118.569.147 4.14-3.089 7.614-7.229 7.762-.091.003-.181.005-.271.005z"></path></g><ellipse cx="256.48" cy="72.455" fill="#ffc682" rx="22.476" ry="22.48"></ellipse><path d="m256.042 235.576c-64.938 0-117.769-52.84-117.769-117.788s52.832-117.788 117.769-117.788c64.938 0 117.77 52.84 117.77 117.788s-52.831 117.788-117.77 117.788zm0-220.576c-56.667 0-102.769 46.11-102.769 102.788s46.102 102.788 102.769 102.788 102.77-46.11 102.77-102.788-46.103-102.788-102.77-102.788z" fill="#2b597f"></path><ellipse cx="394.71" cy="348.964" fill="#ffc682" rx="22.476" ry="22.48"></ellipse><path d="m394.274 512.085c-64.938 0-117.77-52.84-117.77-117.788s52.831-117.788 117.77-117.788c64.938 0 117.769 52.84 117.769 117.788s-52.832 117.788-117.769 117.788zm0-220.576c-56.667 0-102.77 46.11-102.77 102.788s46.103 102.788 102.77 102.788 102.769-46.11 102.769-102.788-46.102-102.788-102.769-102.788z" fill="#2b597f"></path><ellipse cx="118.249" cy="348.964" fill="#ffc682" rx="22.476" ry="22.48"></ellipse><path d="m274.776 85.51c-4.07 5.7-10.75 9.42-18.3 9.42-12.41 0-22.47-10.06-22.47-22.48 0-10.95 7.83-20.08 18.2-22.07-2.65 3.68-4.2 8.19-4.2 13.07 0 12.42 10.06 22.48 22.47 22.48 1.47 0 2.91-.14 4.3-.42z" fill="#ffac5c"></path><path d="m412.996 362.02c-4.06 5.7-10.74 9.42-18.29 9.42-12.41 0-22.47-10.06-22.47-22.48 0-10.95 7.83-20.07 18.19-22.07-2.64 3.68-4.19 8.2-4.19 13.07 0 12.42 10.06 22.48 22.47 22.48 1.47 0 2.9-.14 4.29-.42z" fill="#ffac5c"></path><path d="m136.536 362.02c-4.06 5.7-10.74 9.42-18.29 9.42-12.41 0-22.47-10.06-22.47-22.48 0-10.95 7.83-20.07 18.19-22.07-2.64 3.68-4.19 8.2-4.19 13.07 0 12.42 10.06 22.48 22.47 22.48 1.47 0 2.9-.14 4.29-.42z" fill="#ffac5c"></path><path d="m117.812 512.085c-64.938 0-117.77-52.84-117.77-117.788s52.831-117.788 117.77-117.788 117.77 52.84 117.77 117.788-52.832 117.788-117.77 117.788zm0-220.576c-56.667 0-102.77 46.11-102.77 102.788s46.103 102.788 102.77 102.788 102.77-46.11 102.77-102.788-46.103-102.788-102.77-102.788z" fill="#2b597f"></path><path d="m256.043 120.482c-23.788 0-43.072 19.284-43.072 43.072v7.023c0 8.298 6.727 15.025 15.025 15.025h56.094c8.298 0 15.025-6.727 15.025-15.025v-7.023c0-23.788-19.284-43.072-43.072-43.072z" fill="#93ddb7"></path><path d="m117.812 396.991c-23.788 0-43.072 19.284-43.072 43.072v7.023c0 8.298 6.727 15.025 15.025 15.025h56.094c8.298 0 15.025-6.727 15.025-15.025v-7.023c0-23.789-19.284-43.072-43.072-43.072z" fill="#fd646f"></path><path d="m394.274 396.991c-23.788 0-43.072 19.284-43.072 43.072v7.023c0 8.298 6.727 15.025 15.025 15.025h56.094c8.298 0 15.025-6.727 15.025-15.025v-7.023c-.001-23.789-19.285-43.072-43.072-43.072z" fill="#2edffc"></path><path d="m247.996 185.6h-20c-8.3 0-15.03-6.73-15.03-15.02v-7.03c0-23.78 19.29-43.07 43.08-43.07 3.44 0 6.79.4 10 1.17-18.97 4.51-33.08 21.56-33.08 41.9v7.03c0 8.29 6.73 15.02 15.03 15.02z" fill="#5ed297"></path><path d="m109.766 462.11h-20c-8.3 0-15.03-6.73-15.03-15.02v-7.03c0-23.79 19.29-43.07 43.08-43.07 3.44 0 6.79.4 10 1.17-18.97 4.5-33.08 21.55-33.08 41.9v7.03c0 8.29 6.73 15.02 15.03 15.02z" fill="#fc4755"></path><path d="m386.226 462.11h-20c-8.3 0-15.02-6.73-15.02-15.02v-7.03c0-23.79 19.28-43.07 43.07-43.07 3.44 0 6.79.4 10 1.17-18.97 4.5-33.07 21.55-33.07 41.9v7.03c0 8.29 6.72 15.02 15.02 15.02z" fill="#27bdf3"></path></g></svg>