<!-- icon666.com - MILLIONS vector ICONS FREE --><svg id="Layer_1" enable-background="new 0 0 512 512" viewBox="0 0 512 512" xmlns="http://www.w3.org/2000/svg" xmlns:xlink="http://www.w3.org/1999/xlink"><linearGradient id="SVGID_1_" gradientTransform="matrix(1 0 0 -1 0 512.5)" gradientUnits="userSpaceOnUse" x1="256.05" x2="256.05" y1="512.45" y2=".45"><stop offset="0" stop-color="#f704fe"></stop><stop offset="1" stop-color="#24bce3"></stop></linearGradient><circle clip-rule="evenodd" cx="256" cy="256" fill="url(#SVGID_1_)" fill-rule="evenodd" r="256"></circle><g id="Layer_x0020_1"><g id="_426140160" clip-rule="evenodd" fill="#fffffe" fill-rule="evenodd"><path id="_426143808" d="m176.4 265.4c6.1-38.6 39.5-67.6 79.1-67.9h1.1c39.6.3 72.9 29.3 79.1 67.9 6.1 1.1 10.7 6.4 10.7 12.8s-4.6 11.7-10.7 12.8c-1.9 12-6.5 23.4-13.5 33.3l8 8c1.3 1.3 1.3 3.4 0 4.6l-12.5 12.5c-.6.6-1.5 1-2.3 1s-1.7-.3-2.3-1l-7.6-7.6c-14.1 11-31.6 17-49.5 17-.2 0-.4 0-.6 0-39.6-.3-72.9-29.3-79.1-67.9-6.1-1.1-10.7-6.4-10.7-12.8 0-6.3 4.6-11.7 10.8-12.7zm223.1 116.6v-207.8h-287v207.6h287zm-220.7-147.9c-12.1-6.6-14.7-13.6-14.7-18.3 0-9.7 10.1-18.1 29.2-24.4 17.7-5.8 41.1-9 65.9-9 30.8 0 58.8 4.9 76.3 13l-1.8-3.1c-.9-1.6-.4-3.6 1.2-4.5s3.6-.4 4.5 1.2l8.2 14.1c1.2 2.1-.3 4.9-2.8 4.9h-16.3c-1.8 0-3.3-1.5-3.3-3.3s1.5-3.3 3.3-3.3h4.6c-16.4-7.6-44.1-12.5-73.8-12.5-52.2 0-88.6 14.1-88.6 26.8 0 4.1 4 8.6 11.3 12.5 1.6.9 2.2 2.9 1.3 4.4-.6 1.1-1.7 1.7-2.9 1.7-.5.1-1.2.1-1.6-.2zm-14.2 119c-1.3-2.2.4-5 3-4.9h16.2c1.8 0 3.3 1.5 3.3 3.3s-1.5 3.3-3.3 3.3h-4.6c16.4 7.6 44.1 12.5 73.8 12.5 52.2 0 88.6-14.1 88.6-26.8 0-4.1-4-8.6-11.3-12.5-1.6-.9-2.2-2.9-1.3-4.5s2.9-2.2 4.4-1.3c12.1 6.6 14.7 13.6 14.7 18.3 0 9.7-10.1 18.1-29.2 24.4-17.7 5.8-41.1 9-66 9-30.8 0-58.8-4.9-76.3-13l1.8 3.1c.9 1.6.4 3.6-1.2 4.5-.5.3-1.1.4-1.6.4-1.1 0-2.2-.6-2.8-1.6z"></path><path id="_426144048" d="m259.2 351.9c10.2-2 19.7-13.2 25.9-30.9l-.5-2c-5.4-1-10.8-1.7-16.2-2.1-1.3 4.3-4.8 7.7-9.2 8.8z"></path><path id="_426144336" d="m252.8 351.9v-26.1c-4.4-1.1-7.8-4.5-9.2-8.8-5.8.5-11.6 1.2-17.4 2.3 1.4 4.3 3.1 8.4 5 12.1 5.9 11.7 13.6 19 21.6 20.5z"></path><path id="_426144312" d="m252.8 300.6v-19.2h-32.7c.2 11.2 1.7 21.9 4.3 31.6 6.3-1.2 12.7-2.1 19-2.5 1-4.9 4.7-8.6 9.4-9.9z"></path><path id="_426144240" d="m217.9 314.2c-2.6-10.1-4.2-21.3-4.4-32.9h-22.3c-1.1 4.2-4.2 7.6-8.3 9 1.9 11.3 6.3 21.7 12.6 30.5 7.4-2.6 14.9-4.8 22.4-6.6z"></path><path id="_426143640" d="m213.6 274.9c.2-11.6 1.7-22.8 4.4-32.9-7.5-1.7-14.9-3.9-22.4-6.6-6.3 8.9-10.7 19.3-12.6 30.5 4.1 1.4 7.2 4.8 8.3 9z"></path><path id="_426144024" d="m225.4 334.2c-2.1-4.2-4-8.8-5.6-13.7-6.7 1.5-13.3 3.4-20 5.8 9.4 10.9 21.9 19.1 36.1 23.1-3.8-3.9-7.5-8.9-10.5-15.2z"></path><path id="_426144120" d="m178.6 284.5c3.5 0 6.4-2.9 6.4-6.4s-2.9-6.4-6.4-6.4c-3.6 0-6.4 2.9-6.4 6.4s2.9 6.4 6.4 6.4z"></path><path id="_426143184" d="m219.8 235.6c1.6-4.9 3.5-9.5 5.6-13.7 3.1-6.2 6.7-11.2 10.6-15.1-14.2 4-26.7 12.1-36.1 23.1 6.5 2.2 13.2 4.2 19.9 5.7z"></path><path id="_426142896" d="m252.8 230.4v-26.1c-8 1.5-15.5 8.7-21.6 20.5-1.9 3.7-3.6 7.8-5 12.1 5.8 1.1 11.6 1.9 17.4 2.3 1.3-4.3 4.8-7.6 9.2-8.8z"></path><path id="_426143616" d="m252.8 255.6c-4.7-1.2-8.4-5-9.4-9.8-6.3-.5-12.7-1.3-19-2.5-2.6 9.7-4 20.4-4.3 31.6h32.7z"></path><path id="_426143304" d="m262.5 243.1c0-3.5-2.9-6.4-6.4-6.4-3.6 0-6.4 2.9-6.4 6.4s2.9 6.4 6.4 6.4c3.4-.1 6.4-2.9 6.4-6.4z"></path><path id="_426143016" d="m285.9 236.9c-1.4-4.3-3.1-8.4-5-12.1-6-11.8-13.6-19-21.6-20.6v26.1c4.4 1.1 7.9 4.5 9.2 8.8 5.7-.2 11.5-1 17.4-2.2z"></path><path id="_426141744" d="m292 274.9c-.2-11.2-1.7-21.9-4.2-31.6-6.3 1.2-12.7 2.1-19 2.5-1 4.8-4.7 8.6-9.4 9.8v19.2h32.6z"></path><path id="_426140688" d="m312.2 229.9c-9.4-10.9-21.9-19.1-36.1-23.1 3.9 3.9 7.4 9 10.6 15.1 2.1 4.2 4 8.8 5.6 13.7 6.7-1.5 13.3-3.5 19.9-5.7z"></path><path id="_426140832" d="m329 265.9c-1.9-11.3-6.3-21.7-12.6-30.5-7.4 2.7-14.9 4.9-22.4 6.6 2.6 10.1 4.1 21.3 4.4 32.9h22.3c1.3-4.3 4.3-7.7 8.3-9z"></path><path id="_426140928" d="m339.9 278c0-3.5-2.9-6.4-6.4-6.4s-6.4 2.9-6.4 6.4 2.9 6.4 6.4 6.4c3.5.1 6.4-2.8 6.4-6.4z"></path><path id="_426140568" d="m329 290.4c-4-1.4-7.2-4.8-8.3-9h-22.3c-.2 7.4-.8 14.6-2 21.6l21 5.6c1.1.3 2 1.2 2.3 2.3s0 2.3-.9 3.2l-3.5 3.5 2 2c6.1-8.8 10.1-18.8 11.7-29.2z"></path><path id="_426140880" d="m290.1 301.2c1-6.4 1.6-13.1 1.8-19.9h-32.7v19.2c4.7 1.2 8.4 5 9.4 9.8 4.7.4 9.4.9 14.1 1.7l-2.2-8.3c-.3-1.1 0-2.3.8-3.2.8-.8 2-1.1 3.2-.8z"></path><path id="_426141072" d="m310.4 313.5-21.9-5.9c2 7.3 3.9 14.6 5.9 21.9z"></path><path id="_426139896" d="m323.2 334.5-12.3-12.4-7.9 7.9 12.5 12.5z"></path><path id="_426139800" d="m294.9 338.1c-.8.8-2 1.2-3.2.8-1.1-.3-2-1.2-2.3-2.3l-1.4-5.2c-3.4 7.4-7.5 13.4-12 17.9 8.9-2.5 17.4-6.7 24.8-12.3l-2.5-2.5z"></path><path id="_426139848" d="m262.5 313.5c.1-3.6-2.8-6.7-6.4-6.7-3.8 0-6.5 3-6.4 6.7.1 3.4 3 6.2 6.4 6.2 3.4-.1 6.3-2.8 6.4-6.2z"></path><path id="_426140280" d="m254.2 160.6c-4.6 0-8.4-3.8-8.4-8.4v-6.6c0-4.6 3.8-8.4 8.4-8.4h20.4c4.6 0 8.4 3.7 8.4 8.4v6.6c0 4.6-3.7 8.4-8.4 8.4zm-141.8 7.2h287v-37.6h-287zm185.8-15.6v-6.6c0-4.6 3.7-8.4 8.4-8.4h20.4c4.6 0 8.4 3.7 8.4 8.4v6.6c0 4.6-3.8 8.4-8.4 8.4h-20.4c-4.6 0-8.4-3.7-8.4-8.4zm52.3-6.6c0-4.6 3.8-8.4 8.4-8.4h20.4c4.6 0 8.4 3.7 8.4 8.4v6.6c0 4.6-3.8 8.4-8.4 8.4h-20.4c-4.6 0-8.4-3.8-8.4-8.4z"></path><path id="_426140520" d="m276.5 152.2v-6.6c0-1-.8-1.8-1.8-1.8h-20.4c-1 0-1.8.8-1.8 1.8v6.6c0 1 .8 1.8 1.8 1.8h20.4c.9.1 1.8-.8 1.8-1.8z"></path><path id="_426139968" d="m327 154.1c1 0 1.8-.8 1.8-1.8v-6.6c0-1-.8-1.8-1.8-1.8h-20.4c-1 0-1.8.8-1.8 1.8v6.6c0 1 .8 1.8 1.8 1.8z"></path><path id="_426139992" d="m379.2 154.1c1 0 1.8-.8 1.8-1.8v-6.6c0-1-.8-1.8-1.8-1.8h-20.4c-1 0-1.8.8-1.8 1.8v6.6c0 1 .8 1.8 1.8 1.8z"></path></g></g></svg>