<!-- icon666.com - MILLIONS vector ICONS FREE --><svg id="Layer_1" enable-background="new 0 0 52 52" viewBox="0 0 52 52" xmlns="http://www.w3.org/2000/svg"><g id="_x32_20_1_"><g><g><g><g><g><g><g><g><path d="m43.2421379 27.345602c-.2089844 0-.4179688-.046875-.5815468-.1411133l-4.9877892-2.8798828c-.190918-.1103516-.300293-.2749023-.3007812-.4521484 0-.1762695.1083984-.3408203.2973633-.4506836l4.9550781-2.8798828c.3251953-.1894531.8359375-.1889648 1.1621094-.0004883l4.9882812 2.8793945c.190918.1103516.300293.2753906.300293.4526367.0004883.1767578-.1079102.3408203-.296875.4506836l-4.9555664 2.8798828c-.1625976.0942384-.371582.1416016-.5805664.1416016zm-.0371094-6.5458984c-.1391602 0-.2788086.0292969-.3793945.0878906l-4.9550781 2.8798828c-.0678711.0395508-.0981445.0810547-.0981445.1044922 0 .0239258.0307617.065918.1005859.105957l4.987793 2.8798828c.203125.1181641.5595703.1176758.7607422.0004883l4.9555664-2.8798828c.0678711-.0395508.0981445-.0810547.0981445-.1044922 0-.0239258-.03125-.0664062-.1005859-.1064453l-4.9882812-2.8793945c-.1015626-.059082-.2416993-.0883789-.3813478-.0883789z" fill="#9ea9c9"></path></g></g><g><g><path d="m8.1439943 47.7957993c-.2089849 0-.4184575-.046875-.5815434-.1411133l-4.987793-2.8798828c-.1904297-.1098633-.300293-.2744141-.3007812-.4516602-.0004883-.1767578.1079102-.3413086.296875-.4511719l4.9555664-2.8798828c.3251953-.1884766.8349614-.1889648 1.1621099-.0004883l4.987793 2.8798828c.190918.1103516.3007812.2749023.3007812.4521484.0004883.1767578-.1079102.3408203-.296875.4506836l-4.9555664 2.8798828c-.1625977.0947267-.3715821.1416017-.5805665.1416017zm-.0371093-6.5458985c-.1396489 0-.2788091.0292969-.379395.0878906l-4.9555664 2.8798828c-.0678711.0395508-.0981445.0810547-.0981445.1044922 0 .0239258.03125.065918.1005859.105957l4.9882812 2.8798828c.2026367.1176758.5590825.1181641.7607427.0004883l4.9555664-2.8798828c.0678711-.0395508.0981445-.0805664.0981445-.1040039s-.0317383-.0664062-.1010742-.1064453l-4.987793-2.8798828c-.1015625-.059082-.2416992-.0883789-.3813476-.0883789z" fill="#9ea9c9"></path></g></g><g><g><g><g><path d="m48.8781242 11.1518774-.0100098 2.7000122v.3900146l-.0100098 1.6699829c.0100098-.0100098.0100098-.0299683.0100098-.039978v1.6399527c0 .0200195 0 .0500488-.0100098.0700073l-.0100098 1.6500244c.0200195-.0200195.0200195-.0499878.0200195-.0800171v1.6400146c0 .0300293-.0100098.0599976-.0200195.0900269l-.0100098 2c0 .0999756-.0599976.1999512-.1900024.2699585l-4.9599609 2.8800049c-.2600098.1600342-.6900024.1600342-.960022 0l-4.9899902-2.8800049c-.1300049-.0799561-.2000122-.1799927-.2000122-.2799683l.0299683-11.7300406c0 .0500488.0200195.1100464.0500488.1500244-.0900269-.1500244-.0400391-.3099976.1499634-.4199829l4.960022-2.8800054c.2600098-.1600342.6900024-.1600342.960022 0l4.9899902 2.8800054c.1300049.0799562.2000122.1799928.2000122.2799684z" fill="#b0b8cf"></path></g></g></g><g><g><g enable-background="new"><g><path d="m48.6776886 11.4258852-4.9554939 2.8798008c-.2646713.1538048-.6949997.1538048-.9613838 0l-4.987896-2.8797569c-.1340485-.0774078-.201004-.1789637-.2007408-.2803888l-.0332375 11.7280674c-.0002632.1013813.0666504.2029381.2006989.2803459l4.9879379 2.8797569c.2663841.1538048.6967125.1538048.9613838 0l4.9554939-2.8798008c.1314545-.0763988.1972733-.1763744.1975784-.2764816l.0332375-11.7280674c-.0002632.100151-.0660782.2000827-.1975784.2765245z" fill="#dedffb"></path></g><g><path d="m48.8728523 12.5974493-.0072021 1.2588949v.3812418c0 .0935221-.0647621.1942444-.1942406.2733641l-4.985218 2.8918743c-.2589645.1510391-.690609.1510391-.9567719 0l-3.2739029-1.9015617v-1.6761408l3.3027039 1.9159641c.2661629.1582394.6977654.1582394.9639282 0l4.956459-2.8774738c.1294823-.0719633.1942444-.1654845.1942444-.2661629z" fill="#7e5af2"></path></g><g><path d="m48.8728523 12.5974493-.0072021 1.2588949c0 .1006784-.0647621.1941996-.1942406.2733631l-4.985218 2.8918324c-.2589645.151083-.690609.151083-.9567719 0l-3.2739029-1.9015627v-1.2948551l3.3027039 1.9159641c.2661629.1582394.6977654.1582394.9639282 0l4.956459-2.8774738c.1294823-.0719633.1942444-.1654845.1942444-.2661629z" fill="#b28afd"></path></g><g><path d="m48.8728523 15.8740253-.0072021 1.258894v.3812428c0 .0935211-.0647621.1942444-.1942406.2733631l-4.985218 2.8918762c-.2589645.1510391-.690609.1510391-.9567719 0l-3.2739029-1.9015617v-1.6761417l3.3027039 1.9159641c.2661629.1582394.6977654.1582394.9639282 0l4.956459-2.8774738c.1294823-.0719643.1942444-.1654855.1942444-.266163z" fill="#7e5af2"></path></g><g><path d="m48.8728523 15.8740253-.0072021 1.258894c0 .1006794-.0647621.1942005-.1942406.2733631l-4.985218 2.8918324c-.2589645.151083-.690609.151083-.9567719 0l-3.2739029-1.9015617v-1.2948551l3.3027039 1.9159641c.2661629.1582394.6977654.1582394.9639282 0l4.956459-2.8774738c.1294823-.0719643.1942444-.1654855.1942444-.266163z" fill="#b28afd"></path></g><g><path d="m48.8728523 19.1506004-.0072021 1.2588959v.3812428c0 .0935211-.0647621.1942425-.1942406.2733631l-4.985218 2.8918743c-.2589645.1510391-.690609.1510391-.9567719 0l-3.2739029-1.9015617v-1.6761398l3.3027039 1.9159622c.2661629.1582413.6977654.1582413.9639282 0l4.956459-2.8774738c.1294823-.0719625.1942444-.1654836.1942444-.266163z" fill="#7e5af2"></path></g><g><path d="m48.8728523 19.1506004-.0072021 1.2588959c0 .1006775-.0647621.1941986-.1942406.2733631l-4.985218 2.8918304c-.2589645.151083-.690609.151083-.9567719 0l-3.2739029-1.9015617v-1.2948532l3.3027039 1.9159622c.2661629.1582413.6977654.1582413.9639282 0l4.956459-2.8774738c.1294823-.0719624.1942444-.1654835.1942444-.2661629z" fill="#b28afd"></path></g><g><g><path d="m48.6745491 10.8689976c.2663918.153801.2677956.4030676.0031395.5568686l-4.9554977 2.8798199c-.2646599.1538029-.6949921.1538029-.96138.0000019l-4.9879227-2.879778c-.2663918-.153801-.2677841-.4030571-.0031242-.55686l4.9554977-2.8798194c.2646561-.1538014.694973-.1538124.9613647-.0000114z" fill="#f3f1fc"></path></g></g></g></g><g><g><g><path d="m38.2838326 13.8744745c.1972046.1138544.3585205.387413.3578796.6140232s-.1629982.3191175-.360199.2052622c-.1972198-.1138639-.353447-.3903046-.3528061-.6169147.0006447-.2266102.1579094-.3162356.3551255-.2023707z" fill="#b0b8cf"></path></g></g><g><g><path d="m38.2790756 16.0802364c.1972008.1138535.3585167.387413.3578758.6140232-.0006409.226614-.1629982.3191166-.360199.2052612-.1972198-.113863-.353447-.3902988-.3528061-.6169147.0006448-.2266102.1579095-.3162346.3551293-.2023697z" fill="#ffd06c"></path></g></g><g><g><path d="m38.2743149 18.2859974c.1972008.1138535.3585167.387413.3578758.614027-.0006409.2266102-.1629982.3191185-.360199.2052631-.1972198-.1138649-.353447-.3903046-.3528061-.6169147.0006447-.2266159.1579094-.3162403.3551293-.2023754z" fill="#f45170"></path></g></g><g><g><path d="m38.2695541 20.4917641c.1972008.1138535.3585167.387413.3578758.6140232s-.1629982.3191166-.360199.2052612c-.1972198-.1138649-.353447-.3903046-.3528061-.6169147.0006448-.2266102.1579095-.3162346.3551293-.2023697z" fill="#b28afd"></path></g></g></g><g><g><path d="m47.1457596 10.9470968c.1916771.1106644.192688.290019.0022583.4006844l-3.5656319 2.0721188c-.1904297.1106663-.5000687.1106663-.6917458.000001l-3.5889626-2.0720892c-.1916771-.1106644-.1926765-.2900114-.0022469-.4006777l3.5656319-2.0721188c.1904297-.1106644.5000572-.110672.6917343-.0000076z" fill="#b0b8cf"></path></g></g></g><g><g><g><path d="m13.8681154 31.4518642v1.4800434l-.0100098 1.2299805v2.0900269c.0100098-.0200195.0100098-.0400391.0100098-.0700073l-.0100098 1.25v.3900146c0 .0099487 0 .0299683-.0100098.039978v1.6799927c.0100098-.0300293.0200195-.0599976.0200195-.0900269l-.0100098 1.2600098v.3800049c0 .0200195 0 .0499878-.0100098.0700073v.0100098l-.0100098 2.0100098c0 .0999756-.0700073.2000122-.2000122.2799683l-4.9599607 2.8800048c-.2600098.1500244-.6900029.1500244-.9600224 0l-4.9899902-2.8800049c-.1300049-.0799561-.2000122-.1799927-.2000122-.2799683l.039978-11.7300434c-.0099487-.0999756.0600586-.1999512.1900024-.2799683l4.960022-2.8800049c.2600098-.1500244.7000127-.1500244.9600224 0l4.9899902 2.8800049c.1300049.0800172.2000122.1799928.2000122.2799683z" fill="#b0b8cf"></path></g></g></g><g><g><g enable-background="new"><g><path d="m13.6707201 31.7297859-4.955493 2.8797989c-.2646704.1538048-.6950006.1538048-.9613829 0l-4.987896-2.879755c-.1340474-.0774078-.2010054-.1789646-.2007419-.2803898l-.0332372 11.7280693c-.0002635.1013794.0666504.2029343.2006977.2803421l4.9879408 2.8797569c.2663822.1538086.696712.1538086.9613824 0l4.955493-2.8797989c.1314573-.0763969.1972733-.1763725.1975803-.2764816l.0332375-11.7280674c-.0002636.1001511-.0660795.2000828-.1975807.2765255z" fill="#dedffb"></path></g><g><path d="m13.8658857 32.9013481-.0072002 1.2588959v.3812408c0 .0935211-.0647631.1942444-.1942444.273365l-4.985218 2.8918762c-.2589617.1510391-.690609.1510391-.9567719 0l-3.2739029-1.9015617v-1.6761436l3.3027058 1.915966c.2661629.1582375.6977663.1582375.9639292 0l4.956459-2.8774757c.1294813-.0719605.1942434-.1654854.1942434-.2661629z" fill="#5094ff"></path></g><g><path d="m13.8658857 32.9013481-.0072002 1.2588959c0 .1006775-.0647631.1941986-.1942444.273365l-4.985218 2.8918304c-.2589617.1510811-.690609.1510811-.9567719 0l-3.2739029-1.9015617v-1.294857l3.3027058 1.915966c.2661629.1582375.6977663.1582375.9639292 0l4.956459-2.8774757c.1294813-.0719605.1942434-.1654854.1942434-.2661629z" fill="#57b3fe"></path></g><g><path d="m13.8658857 36.1779251-.0072002 1.2588959v.3812408c0 .0935211-.0647631.1942444-.1942444.273365l-4.985218 2.8918724c-.2589617.1510391-.690609.1510391-.9567719 0l-3.2739029-1.9015617v-1.6761398l3.3027058 1.9159622c.2661629.1582413.6977663.1582413.9639292 0l4.956459-2.8774719c.1294813-.0719643.1942434-.1654854.1942434-.2661629z" fill="#5094ff"></path></g><g><path d="m13.8658857 36.1779251-.0072002 1.2588959c0 .1006775-.0647631.1941986-.1942444.2733612l-4.985218 2.8918343c-.2589617.1510811-.690609.1510811-.9567719 0l-3.2739029-1.9015656v-1.2948532l3.3027058 1.9159622c.2661629.1582413.6977663.1582413.9639292 0l4.956459-2.8774719c.1294813-.0719643.1942434-.1654854.1942434-.2661629z" fill="#57b3fe"></path></g><g><path d="m13.8658857 39.4545021-.0072002 1.2588921v.3812447c0 .0935211-.0647631.1942444-.1942444.2733612l-4.985218 2.8918762c-.2589617.1510391-.690609.1510391-.9567719 0l-3.2739029-1.9015617v-1.6761398l3.3027058 1.9159622c.2661629.1582413.6977663.1582413.9639292 0l4.956459-2.8774719c.1294813-.0719644.1942434-.1654855.1942434-.266163z" fill="#5094ff"></path></g><g><path d="m13.8658857 39.4545021-.0072002 1.2588921c0 .1006813-.0647631.1942024-.1942444.273365l-4.985218 2.8918304c-.2589617.1510849-.690609.1510849-.9567719 0l-3.2739029-1.9015617v-1.2948532l3.3027058 1.9159622c.2661629.1582413.6977663.1582413.9639292 0l4.956459-2.8774719c.1294813-.0719643.1942434-.1654854.1942434-.2661629z" fill="#57b3fe"></path></g><g><g><path d="m13.6675825 31.1728973c.2663908.153801.2677946.4030685.0031385.5568695l-4.9554958 2.879818c-.2646599.1538048-.6949921.1538048-.9613829.0000038l-4.9879217-2.8797798c-.266391-.153801-.2677822-.4030552-.0031226-.5568581l4.9554958-2.8798199c.2646556-.153801.6949763-.1538124.9613671-.0000114z" fill="#f3f1fc"></path></g></g></g></g><g><g><g><path d="m3.2768676 34.1783752c.1972022.1138535.3585203.387413.3578777.6140213-.0006423.2266121-.1629982.3191185-.3602004.205265-.1972191-.1138649-.3534455-.3903084-.352803-.6169167.0006424-.2266081.1579066-.3162345.3551257-.2023696z" fill="#b0b8cf"></path></g></g><g><g><path d="m3.2721069 36.3841362c.1972022.1138535.3585203.387413.357878.6140213-.0006425.2266159-.1629984.3191185-.3602006.205265-.1972191-.1138649-.3534455-.3903008-.352803-.6169167.0006425-.2266082.1579065-.3162345.3551256-.2023696z" fill="#ffd06c"></path></g></g><g><g><path d="m3.2673464 38.5898972c.197202.1138535.35852.387413.3578777.6140289-.0006425.2266083-.1629984.3191147-.3602004.2052612-.1972194-.1138649-.3534455-.3903046-.3528032-.6169167.0006425-.226612.1579065-.3162383.3551259-.2023734z" fill="#f45170"></path></g></g><g><g><path d="m3.2625856 40.7956619c.197202.1138573.3585203.387413.3578777.6140251-.0006423.2266083-.1629984.3191147-.3602004.2052612-.1972194-.1138649-.3534455-.3903046-.3528032-.6169128.0006426-.2266121.1579068-.3162384.3551259-.2023735z" fill="#b28afd"></path></g></g></g><g><g><path d="m12.1387939 31.2509956c.1916761.1106663.1926861.29002.0022573.4006844l-3.5656319 2.0721207c-.1904306.1106644-.5000677.1106644-.6917443 0l-3.5889635-2.0720882c-.1916766-.1106644-.192678-.2900124-.0022473-.4006786l3.5656323-2.0721188c.1904283-.1106644.5000567-.110672.6917329-.0000076z" fill="#b0b8cf"></path></g></g></g></g></g></g><g><g><path d="m9.7248926 32.2194901c-.1603098.0932961-.3397493.169857-.5335436.2248955-.1459408.0454597-.2990656.0789452-.4569664.1004829-.0765629.0119591-.1555204.019146-.2344627.0239182-.4258776.0358963-.8661089-.0071678-1.2584724-.1267929-.1890187-.055027-.3660636-.1292076-.5263586-.2225037-.83499-.4809017-.8397799-1.2632637-.01196-1.7441635.1626902-.093298.3445249-.1698608.5383186-.2272778.3899837-.1172466.8325949-.1579151 1.2584724-.1244164.0789423.0047894.1578999.0143547.2344627.0263138.1579008.0239334.3110256.0574188.4569664.1028767.1890192.0550385.3684587.1292057.5263596.2225037.8349895.4808997.8397789 1.2608661.007184 1.7441635z" fill="#1d2943"></path></g><g opacity=".6"><path d="m3.35236 26.0771351 2.7641618 5.4929695c0 .0100117.0100107.0199776.0199761.0299435.0798149.2293873.269341.4388885.5685339.6184044.1595392.0897369.3390999.1695518.5285811.2194252.3989835.1196747.8378744.1695061 1.2667551.1296425.0798149-.0099678.1595392-.0099678.2393541-.0199776.1596298-.0298958.3092031-.0598373.4588223-.1096649.1895266-.0498734.3690424-.1296883.5385923-.2194252.2992373-.1695938.488719-.3890171.5685339-.6184044.0100107-.0099659.0100107-.0099659.0100107-.0199318l2.7666416-5.5029812z" fill="#8fabfe"></path></g><g><g><g><g enable-background="new"><g><g><path d="m13.2992868 25.3693008-.0052528 1.2227554c-.0052528.7504387-.4985514 1.4956226-1.4798946 2.0676517-1.9731617 1.1492767-5.1900902 1.1492767-7.173789 0-1.0075765-.577282-1.5061276-1.3381939-1.5061276-2.0938835l.0105059-1.2280083z" fill="#ffd06c"></path></g></g><g><g><path d="m11.817009 27.4340096c-.3820944.2223721-.8097839.4048576-1.2716875.5360394-.347846.1083488-.7128162.188158-1.0891676.2394962-.1824846.0285053-.3706779.0456295-.558836.0570107-1.0150666.0855522-2.0643468-.0170879-2.9995346-.3022156-.4505219-.1311455-.8725033-.3079586-1.2545629-.5303307-1.9901762-1.1462135-2.0015924-3.0109501-.0285058-4.1571636.3877678-.2223721.8211656-.4048576 1.2830687-.5417118.9295144-.2794533 1.984468-.3763866 2.9995346-.2965431.188158.0114174.3763514.034214.558836.0627193.3763514.0570469.7413216.1368561 1.0891676.2452049.4505215.1311817.878211.3079586 1.2545624.5303307 1.9901761 1.1462135 2.0015926 3.0052432.0171251 4.1571636z" fill="#f9a83d"></path></g><g><path d="m8.2372866 27.6141109c-1.2371378 0-2.3915091-.2731533-3.250689-.7692394-.7374649-.4256172-1.1607771-.9721832-1.1615458-1.4995289-.0007689-.5278587.4020438-1.0529003 1.1341281-1.4782619.8553362-.4971085 2.0079136-.7710323 3.245307-.7710323 1.2379065 0 2.3943272.2741795 3.2563257.771801.7336216.4235687 1.1548843.9680843 1.155653 1.4938927.0005121.5296516-.4040937 1.0567436-1.1400213 1.4841557-.8522616.4953154-2.0027896.7682131-3.2391577.7682131z" fill="#ffd06c"></path></g></g></g></g></g></g></g><g><g><path d="m44.7318611 11.8314161c-.1603127.093298-.3397522.1698608-.5335464.2248983-.1459389.0454588-.2990646.0789433-.4569664.100482-.076561.01196-.1555176.019145-.2344627.0239201-.4258766.0358934-.8661079-.0071707-1.2584724-.1267967-.1890182-.0550232-.3660622-.1292057-.5263596-.2225037-.8349876-.4808998-.8397789-1.2632618-.0119591-1.7441616.162693-.093298.3445244-.1698608.5383186-.2272787.3899841-.1172466.8325958-.1579151 1.2584724-.1244164.0789452.0047903.1579018.0143547.2344627.0263147.1579018.0239334.3110275.0574179.4569664.1028767.1890221.0550385.3684616.1292057.5263596.2225037.8349915.4808998.8397789 1.2608662.0071869 1.7441616z" fill="#1d2943"></path></g><g opacity=".6"><path d="m38.3593254 5.6890631 2.764164 5.4929705c0 .0100107.0100098.0199757.0199738.0299416.0798149.2293882.2693443.4388914.5685349.6184072.1595383.089735.3390999.1695499.5285835.2194223.398983.1196775.8378716.1695051 1.2667542.1296425.0798149-.0099649.1595383-.0099649.2393532-.0199757.1596298-.0298967.3092041-.0598383.4588242-.1096668.1895256-.0498724.3690414-.1296873.5385895-.2194223.2992401-.1695957.4887199-.389019.5685349-.6184072.0100098-.0099659.0100098-.0099659.0100098-.0199308l2.7666435-5.5029812h-9.7299655z" fill="#8fabfe"></path></g><g><g><g><g enable-background="new"><g><g><path d="m48.3062553 4.9812288-.0052567 1.2227559c-.0052528.7504373-.4985504 1.4956217-1.4798927 2.0676503-1.9731598 1.1492786-5.1900902 1.1492786-7.17379 0-1.007576-.5772815-1.5061264-1.3381929-1.5061264-2.093883l.0105057-1.2280087z" fill="#ffd06c"></path></g></g><g><g><path d="m46.8239746 7.045938c-.3820953.2223721-.8097839.4048572-1.2716866.5360389-.347847.1083493-.7128143.1881585-1.0891685.2394962-.1824837.0285058-.3706779.04563-.5588341.0570116-1.0150681.0855517-2.0643463-.0170898-2.9995346-.3022161-.4505234-.1311469-.8725052-.3079586-1.2545624-.5303307-1.9901772-1.1462135-2.0015945-3.0109506-.0285072-4.1571641.3877678-.2223721.821167-.4048572 1.2830696-.5417123.929512-.279453 1.9844666-.3763862 2.9995346-.2965424.1881561.0114162.3763504.0342138.5588341.0627193.3763542.0570462.7413216.1368551 1.0891685.2452044.4505234.131182.878212.3079588 1.2545624.5303309 1.9901772 1.1462137 2.0015946 3.005243.0171242 4.1571643z" fill="#f9a83d"></path></g><g><path d="m43.2442513 7.2260389c-1.2371368 0-2.3915062-.2731543-3.2506866-.7692394-.7374649-.4256182-1.160778-.9721828-1.1615448-1.4995294-.0007706-.5278587.4020424-1.0528991 1.1341248-1.478261.8553391-.4971099 2.0079155-.7710328 3.2453079-.7710328 1.2379074 0 2.3943291.2741792 3.2563286.7718015.7336197.4235682 1.1548805.9680829 1.1556511 1.4938922.0005112.5296526-.4040947 1.0567427-1.1400223 1.4841547-.8522607.495316-2.0027887.7682142-3.2391587.7682142z" fill="#ffd06c"></path></g><g><g><path d="m45.4401665 5.8097825-.2538795-.1465759-.23386.1359053.2538757.1465759-.3354874.1949635-.2538757-.1465759-.0648918.0377121-.3722229.2163119-.3734399.217019-.5533524-.319479.3734398-.2170191-2.0741539-1.1975121-.3734398.2170196-.5533524-.319479.3734398-.2170196.3722229-.2163119.0648918-.0377116-.2625046-.151557.3354874-.1949635.2625046.1515567.23386-.135905-.2625045-.1515569.3256874-.1892691.2711334.1565375c.4851646-.2276931 1.0194359-.2440648 1.488987.0270298.374649.2163043.4781647.4930971.2275352.7044232.2708359-.1131339.728199-.2604227 1.3850784.118825.3376808.1949601.6478806.5258212.0521393.9705362l.2723694.1572509zm-1.0680313-.3144956.2228432-.1295013c.2987518-.1736169.2044144-.3472304-.0112572-.4717488-.3191986-.1842895-.6102371-.1679206-.8330803-.0384192l-.2424279.1408838zm-1.3605843-.7855339.2044754-.1188278c.2522278-.1465783.2132912-.2981343-.0122414-.4283452-.1589813-.0917878-.4307327-.1408849-.7013245.016367l-.2044754.1188278z" fill="#f9a83d"></path></g></g></g></g></g></g><g opacity=".35"><g><path d="m43.9042854 2.0505192v5.8279657c-1.0150681.0855517-2.0643463-.0170898-2.9995346-.3022161v-5.229207c.929512-.2794532 1.9844666-.3763863 2.9995346-.2965426z" fill="#fff"></path></g><g><path d="m45.5522881 2.358443v5.2235336c-.347847.1083493-.7128143.1881585-1.0891685.2394962v-5.7082342c.3763541.0570461.7413215.1368551 1.0891685.2452044z" fill="#fff"></path></g></g></g></g></g><g><g><g><g><path d="m25.4979973 39.7791977c-.1674805 0-.3344727-.0385742-.4672852-.1162109l-4.6411133-2.6967773c-.0615234-.0356445-.0996094-.1015625-.0996094-.1733398.0004883-.0712891.0385742-.137207.1000977-.1728516l9.9492188-5.7446308c.0625-.0351562.1381836-.0356445.2006836.0004883l4.6411133 2.6972675c.159668.0927734.2504883.2333984.25.3852539 0 .152832-.0927734.2939453-.2543945.3867188l-9.2109375 5.3183594c-.1337891.0771483-.3007813.1157225-.4677735.1157225zm-4.6088867-2.9853516 4.3427734 2.5234375c.1386719.0810547.3930664.0805664.5336914-.0004883l9.2114258-5.3183594c.034668-.0200195.0483398-.0361328.0532227-.043457-.0043945-.0014648-.0175781-.0170898-.050293-.0361328l-4.5410156-2.6391621z" fill="#9ea9c9"></path></g></g></g><g><g><g><g><g><g><g><g><g><g><g><path d="m31.4688282 32.9544411.0313549 1.1436577c0 .1920547-.12113.3841095-.3781776.5288811l-4.1659546 2.4050369c-.5554638.316124-1.4743538.2836304-1.9323101-.0856934l-3.9857311-3.2264023v-1.0759811l4.213707 2.3859673c.4579563.3693199 1.1303234.7284927 1.6857872.4064522l4.1591167-1.9613876c.2511329-.1447717.3722076-.3284761.3722076-.5205308z" fill="#9ea9c9"></path></g></g></g><g><g><g><path d="m21.0109158 32.6461601 3.9884987 3.2216644c.4578514.3707809 1.3775024.4092369 1.9340763.0878983l4.1624069-2.4031677c.5565758-.3213387.4931927-.8541603-.1454277-1.120575l-5.553566-2.3180695z" fill="#c9cee2"></path></g></g></g><g><g><path d="m35.7509995 12.1293592c-.0894012-.0521584-.2514038 1.5152521-.3855057 1.5971956l-13.4779968 9.8797512c-.2756615.1639328-2.2556267.3086109-2.2556267.628973l-1.5085564 13.6044197c0 .1639328-.894043.9993935-.797184 1.0515518l-1.7200346-.9990082c-.096859-.0521126-.1490173-.163887-.1490173-.3278198l-.0447006-15.2733593c0-.3203621.2309608-.71521.5066223-.8791428l17.754364-10.2443266c.1415596-.0819445.2682037-.0894022.357605-.0372429z" fill="#4c5c75"></path></g></g><g><g><g><path d="m35.9001884 12.4562387c0-.325839-.2327538-.4521894-.5054016-.2892694l-17.7552795 10.244194c-.2759571.1629181-.508709.5585899-.508709.8777924l.0417652 13.7028465 18.7604389-10.8281898z" fill="#1d2943"></path></g></g><g><g><path d="m35.3955383 25.8528576-17.6859779 10.2076931-.0428429-13.0472546 17.6982308-10.207694z" fill="#fff"></path></g></g><g><g><path d="m35.9367561 27.7310944c0 .3192024-.2227669.7148743-.5053978.8777943l-17.7486267 10.244192c-.2826118.1662483-.5053787.0299149-.5053787-.2892685l-.0033283-1.5727196 18.7594051-10.8260612z" fill="#e3e7f0"></path></g></g></g><g><g><g><path d="m27.1193752 32.3173676c0 .3575363-.2543888.7906952-.5637932.9763451-.316246.17873-.5637932.0274887-.5637932-.3231659 0-.3643799.2475471-.7975388.5637932-.9763069.3094044-.1787683.5637932-.0343686.5637932.3231277z" fill="#9ea9c9"></path></g></g></g></g></g></g></g></g></g></g></g></g></g><g><path d="m16.7079582 49.9764633c-.2290039 0-.4560547-.0517578-.6313477-.1547852l-5.5292959-3.1987305c-.0957031-.0556641-.128418-.1777344-.0732422-.2734375.0561523-.0961914.1787109-.1269531.2734375-.0732422l5.5302725 3.199707c.2285156.1342773.6347656.1337891.8710938-.0004883l14.2041016-8.3955078c.0810547-.0478516.0893555-.1264648.0893555-.1577148-.0004883-.03125-.0097656-.109375-.0908203-.15625l-3.3842773-1.953125c-.0957031-.0551758-.128418-.1777344-.0732422-.2734375.0556641-.0957031.1777344-.1279297.2734375-.0732422l3.3837891 1.953125c.1806641.1044922.2895508.2915039.2910156.5004883.0009766.2094727-.1054688.3979492-.2856445.5043945l-14.2075195 8.3974609c-.1816408.1035158-.4121096.1547853-.6411135.1547853z" fill="#9ea9c9"></path></g><g><path d="m34.6513176 37.3460922c-.2021484 0-.4042969-.0522461-.5849609-.15625l-1.8496094-1.0654297c-.0957031-.0551758-.1289062-.1772461-.0737305-.2729492.0551758-.0966797.1791992-.1289062.2729492-.0737305l1.8496094 1.0654297c.2416992.1386719.5390625.137207.7788086-.0043945l14.1713867-8.3715839c.0820312-.0498047.1113281-.1010742.1103516-.1293945-.0004883-.0366211-.0458984-.0849609-.1152344-.1230469l-3.543457-2.0522461c-.0957031-.0551758-.128418-.1772461-.0727539-.2729492.0551758-.0957031.1787109-.128418.2729492-.0727539l3.5400391 2.0498047c.1972656.1088867.3149414.2783203.3183594.4628906.0039062.1860352-.1074219.3613281-.3051758.480957l-14.1733399 8.3730488c-.1831055.1083984-.3896484.1625976-.5961914.1625976z" fill="#9ea9c9"></path></g></g><g><g><path d="m9.9673138 24.9538746.4644651.4161701-2.1417112 1.244627-.896061-.7835026-.2628073.2533531-.3090811-.1784477.3142495-.3028526-1.1266303-.997118.8786507-.5106163.9548301.8382053.3153816-.3021984.309081.1784497-.3656912.3523502.5944186.5301494z" fill="#f9a83d"></path></g></g><g opacity=".35"><g><path d="m8.8973179 22.438591v5.8279648c-1.0150666.0855522-2.0643468-.0170879-2.9995346-.3022156v-5.2292061c.9295144-.2794533 1.984468-.3763866 2.9995346-.2965431z" fill="#fff"></path></g><g><path d="m10.5453215 22.7465153v5.2235336c-.347846.1083488-.7128162.188158-1.0891676.2394962v-5.7082348c.3763513.0570469.7413215.1368561 1.0891676.245205z" fill="#fff"></path></g></g></g><g><g><g><path d="m18.5427818 25.6944447.0214405 5.3516159 1.4153958-.8171788-.0214405-5.3516178z" fill="#678aee"></path></g></g><g><g><path d="m21.7676601 25.6674767.0217209 3.528141 1.4338913-.827858-.021719-3.528141z" fill="#dba660"></path></g></g><g><g><path d="m24.9925385 25.5651703.0218772 1.7697945 1.4442082-.8338147-.0218773-1.7697944z" fill="#b28afd"></path></g></g><g><g><path d="m28.242609 18.2510681.0214405 7.1985264 1.4153958-.8171806-.0214405-7.1985245z" fill="#57b3fe"></path></g></g><g><g><path d="m31.4728661 18.2304401.0216007 5.3625851 1.426012-.823307-.0216026-5.362587z" fill="#f45170"></path></g></g><g><g><g><path d="m34.7162514 20.0967522v-.2355156l-.0082703-1.6238003v-.2355175l-.0041122-1.6237984v-.2355175l-.0041351-1.8593159-1.6155548.9296579-.2065887.1198387-1.4089394.8139544-.2065907.1198139-1.4089622.8139801-.2065907.1156788-1.4089375.8181171-.2024555.1156769-1.4089623.8139802-.2065907.1198139-1.4089375.8139801-.2065907.1156788-1.4089375.8180904-.2065907.1157036-1.4089622.8139553-.2065926.1198387-1.4089375.8139553-.2065907.1157017-1.6155529.933794.0082722 1.8593178v.2354908l.0041351 1.6279354v.2355156l.004137 1.6196899v.2396278l.0082455 1.8593159 1.6155529-.933794.2024555-.1198139 1.4130745-.8139553.2024536-.1157017 1.4089622-.8139553.2065907-.1198387 1.4089394-.8139553.2065907-.1198387 1.4089622-.8139553.2065907-.1157036 1.4089375-.8139553.2024555-.1198139 1.4130726-.8139801.2024803-.1198139 1.4130726-.8139801.2024555-.1156788 1.4089642-.8139801.2065887-.1198139 1.6155281-.933794zm-14.7588291 2.9335785.0082474 1.6238251-1.4130745.8139553-.0041352-1.6238003zm.0082473 1.8593158.0041351 1.6238251-1.4089375.8139553-.0082722-1.6238003zm.0041352 1.8593159.004137 1.623827-1.4089375.8139553-.004137-1.6238003zm-1.4006901 4.2970982-.0041103-1.6238003 1.4089375-.8139801.0041351 1.6238251zm3.0038357-8.9494992.0082722 1.6238003-1.4130974.8139553-.0041122-1.6238003zm.0082721 1.8593159.004137 1.6238003-1.4089642.8139553-.0082703-1.6238003zm.0041371 1.8593178.0041103 1.6238003-1.4089375.8139553-.004137-1.6238003zm-1.400692 4.2970714-.0041351-1.6238003 1.4089375-.8139553.0041351 1.6238003zm3.0038376-8.9494991.0041103 1.6238003-1.4089375.8139553-.0041351-1.6238003zm.0041103 1.8593159.0082722 1.6279373-1.4089375.8098183-.0082722-1.6238003zm.0082722 1.8634529.0041351 1.6196632-1.4089622.8139553-.0041103-1.6196632zm-1.400692 4.2929363-.0041351-1.6238003 1.4089622-.8098202.0041351 1.6238003zm3.0038376-8.945364.0041351 1.6238003-1.4089622.8139553-.0041103-1.6238003zm.0041351 1.8593178.004137 1.6238003-1.4089642.8139553-.0041351-1.6238003zm-1.4048271 2.6732712 1.4130745-.8139553.0041351 1.6238003-1.4130726.8139553zm.0124073 3.4831161-.0041351-1.6238003 1.4089375-.8139553.004137 1.6238003zm3.0038128-8.9494991.0041351 1.6238003-1.4089375.8139801-.0041351-1.6238251zm.0041351 1.8593178.004137 1.6238003-1.4089375.8139801-.004137-1.6238251zm-1.4048004 2.6732712 1.4130726-.8139553.004137 1.6238003-1.4130993.8139801zm.0123825 3.4831409-.004137-1.6238251 1.4089642-.8139553.0041351 1.6238003zm3.0038357-8.9495239.004137 1.6238003-1.4089642.8139801-.0041351-1.6237984zm.004137 1.8593178.0041351 1.6279354-1.4089622.809845-.004137-1.6238003zm-1.4048271 2.6774063 1.4089622-.8139553.0041103 1.6196651-1.4089375.8139801zm.0124073 3.4790058-.0041351-1.6238003 1.4089375-.8098431.0041351 1.6237984zm3.0038109-8.9453869.004137 1.6238003-1.4089375.8139801-.0082722-1.6238003zm.004137 1.8593159.0041351 1.6238003-1.4089375.8139801-.0041351-1.6238003zm.0041352 1.8593158.004137 1.6238003-1.4089642.8139801-.0041103-1.6237984zm-1.4006901 4.2970982-.004137-1.6238003 1.4089642-.8139801.0082455 1.6237984zm1.5948734-8.1355438 1.4130993-.8139801.0041351 1.6238003-1.4130993.8139801zm1.4172344 1.0453357.0041103 1.6238003-1.4089375.8139801-.0041351-1.6238003zm.0041104 1.8593159.004137 1.6238003-1.4089375.8139801-.004137-1.6237984zm-1.4006653 4.2970982-.0041351-1.6238003 1.4089375-.8139801.0082703 1.6237984zm1.5948734-8.1355438 1.4089394-.8139811.0041351 1.623826-1.4089375.8139553zm1.4172096 1.0453357.0041351 1.6279354-1.4089622.809845-.0041103-1.6238003zm.0041352 1.8634529.0041351 1.619688-1.4089603.8139553-.004137-1.6196632zm-1.4006901 4.2929612-.0041351-1.6238003 1.4089603-.809845.0041389 1.6238003zm1.5948734-8.1355439 1.4089622-.809845.0041389 1.6238251-1.4089661.8139553zm1.4172096 1.0494709.0041351 1.6238251-1.4089355.8139553-.0041351-1.6237984zm.0041352 1.8593178.0041389 1.6238251-1.4089394.8139553-.0041351-1.6238003zm-1.4006653 4.2970963-.0041351-1.6238003 1.4089394-.8139801.0041351 1.6238251z" fill="#dedffb"></path></g></g></g></g><g><g><path d="m18.3647537 32.2934418.0009575.8006897 16.3546753-9.4423771-.0009575-.8006897z" fill="#dedffb"></path></g></g><g><g><path d="m28.764782 27.9198112-10.4000245 6.0044556.0009766.8006592 10.3990479-6.0039063z" fill="#dedffb"></path></g></g></g></svg>