<!-- icon666.com - MILLIONS vector ICONS FREE --><svg fill="none" viewBox="0 0 24 24" xmlns="http://www.w3.org/2000/svg"><path clip-rule="evenodd" d="m22 12c0 5.5228-4.4772 10-10 10-5.52285 0-10-4.4772-10-10 0-5.52285 4.47715-10 10-10 5.5228 0 10 4.47715 10 10zm-15.10704 5.1071c-1.2742-1.2742-1.2742-3.3401 0-4.6143l2.00004-2c1.2742-1.27424 3.3401-1.27424 4.6143 0l-1.4142 1.4142c-.4932-.4932-1.2927-.4932-1.7859 0l-2.00003 2c-.49315.4932-.49315 1.2927 0 1.7859.49315.4931 1.2927.4931 1.78583 0l.4-.4c.3906-.3906 1.0237-.3906 1.4142 0 .3906.3905.3906 1.0236 0 1.4142l-.4.4c-1.2742 1.2742-3.34004 1.2742-4.61424 0zm10.21414-5.5999c1.2742-1.2742 1.2742-3.34009 0-4.61429-1.2742-1.27419-3.3401-1.27419-4.6143 0l-.4.40001c-.3905.39053-.3905 1.02369 0 1.41422.3905.39052 1.0237.39052 1.4142 0l.4-.40001c.4932-.49315 1.2927-.49315 1.7859 0 .4931.49315.4931 1.2927 0 1.78587l-2.0001 2c-.4931.4932-1.2927.4932-1.7858 0l-1.4142 1.4142c1.2742 1.2742 3.3401 1.2742 4.6143 0z" fill="rgb(0,0,0)" fill-rule="evenodd" style="fill: rgb(255, 255, 255);"></path></svg>