<!-- icon666.com - MILLIONS vector ICONS FREE --><svg id="Layer_1" enable-background="new 0 0 512 512" viewBox="0 0 512 512" xmlns="http://www.w3.org/2000/svg"><g clip-rule="evenodd" fill-rule="evenodd"><path d="m319.557 60.242c-2.343-2.343-2.343-6.142 0-8.484 2.342-2.343 6.142-2.343 8.484 0 8.851 8.851 15.998 19.46 20.895 31.279 4.707 11.363 7.306 23.791 7.306 36.79s-2.598 25.427-7.306 36.79c-4.897 11.819-12.044 22.427-20.895 31.279-2.343 2.342-6.142 2.342-8.484 0-2.343-2.343-2.343-6.142 0-8.484 7.795-7.795 14.061-17.069 18.317-27.341 4.103-9.904 6.368-20.793 6.368-32.243s-2.265-22.339-6.368-32.243c-4.256-10.273-10.522-19.548-18.317-27.343zm-38.779 38.78c-2.343-2.343-2.343-6.142 0-8.484 2.343-2.343 6.142-2.343 8.484 0 3.794 3.794 6.866 8.362 8.982 13.47 2.03 4.902 3.151 10.247 3.151 15.819s-1.121 10.917-3.151 15.819c-2.115 5.107-5.188 9.676-8.982 13.47-2.343 2.342-6.141 2.342-8.484 0-2.343-2.343-2.343-6.142 0-8.484 2.737-2.737 4.928-5.972 6.403-9.533 1.426-3.443 2.214-7.249 2.214-11.273 0-4.023-.788-7.829-2.214-11.273-1.475-3.56-3.666-6.794-6.403-9.531zm19.391-19.392c10.286 10.286 16.649 24.498 16.649 40.196 0 7.738-1.526 15.086-4.29 21.76-2.865 6.917-7.093 13.171-12.359 18.437-2.342 2.343-2.342 6.142 0 8.484 2.343 2.343 6.142 2.343 8.484 0 6.322-6.322 11.432-13.911 14.937-22.374 3.368-8.133 5.228-17.02 5.228-26.306 0-19.01-7.706-36.222-20.165-48.681-2.342-2.342-6.142-2.342-8.484 0-2.343 2.343-2.343 6.142 0 8.484z" fill="#a6e7f0"></path><g><path d="m52.086 16h157.171c19.875 0 36.085 16.21 36.085 36.085v324.028c0 19.875-16.21 36.085-36.085 36.085h-157.171c-19.875.001-36.086-16.21-36.086-36.085v-324.028c0-19.875 16.211-36.085 36.086-36.085z" fill="#9facba"></path><path d="m52.086 28c-13.252 0-24.086 10.834-24.086 24.085v324.028c0 13.251 10.834 24.085 24.086 24.085h157.171c13.251 0 24.085-10.834 24.085-24.085v-324.028c0-13.251-10.834-24.085-24.085-24.085z" fill="#d4f2f6"></path><path d="m150.661 375.589c3.314 0 6 2.686 6 6s-2.686 6-6 6h-34.204c-3.314 0-6-2.686-6-6s2.686-6 6-6z" fill="#9facba"></path><path d="m97.863 59.706h-28.024c-5.581 0-10.133 4.552-10.133 10.133v28.024c0 5.581 4.552 10.133 10.133 10.133h28.024c5.581 0 10.133-4.552 10.133-10.133v-28.024c0-5.581-4.552-10.133-10.133-10.133z" fill="#f79595"></path><path d="m191.502 59.706h-28.024c-5.581 0-10.133 4.552-10.133 10.133v28.024c0 5.581 4.552 10.133 10.133 10.133h28.024c5.581 0 10.133-4.552 10.133-10.133v-28.024c.001-5.581-4.552-10.133-10.133-10.133z" fill="#fad97f"></path><path d="m97.863 133.95c-9.341 0-18.683 0-28.024 0-5.581 0-10.133 4.552-10.133 10.133v28.024c0 5.581 4.552 10.133 10.133 10.133h28.024c5.581 0 10.133-4.552 10.133-10.133 0-9.341 0-18.683 0-28.024 0-5.581-4.552-10.133-10.133-10.133z" fill="#b3e59f"></path><path d="m191.502 133.95c-9.341 0-18.682 0-28.024 0-5.581 0-10.133 4.552-10.133 10.133v28.024c0 5.581 4.552 10.133 10.133 10.133h28.024c5.581 0 10.133-4.552 10.133-10.133 0-9.341 0-18.683 0-28.024.001-5.581-4.552-10.133-10.133-10.133z" fill="#6bd9e7"></path><path d="m97.863 282.439h-28.024c-5.581 0-10.133 4.552-10.133 10.133v28.024c0 5.581 4.552 10.133 10.133 10.133h28.024c5.581 0 10.133-4.552 10.133-10.133v-28.024c0-5.581-4.552-10.133-10.133-10.133z" fill="#6bd9e7"></path><path d="m97.863 208.194c-9.341 0-18.683 0-28.024 0-5.581 0-10.133 4.552-10.133 10.133v28.024c0 5.581 4.552 10.133 10.133 10.133h28.024c5.581 0 10.133-4.552 10.133-10.133 0-9.341 0-18.683 0-28.024 0-5.58-4.552-10.133-10.133-10.133z" fill="#fad97f"></path><path d="m191.502 208.194c-9.341 0-18.682 0-28.024 0-5.581 0-10.133 4.552-10.133 10.133v28.024c0 5.581 4.552 10.133 10.133 10.133h28.024c5.581 0 10.133-4.552 10.133-10.133 0-9.341 0-18.683 0-28.024.001-5.58-4.552-10.133-10.133-10.133z" fill="#f79595"></path></g><path d="m157.936 246.925c9.154-9.154 24.133-9.154 33.287 0l99.592 99.593c1.706 1.706 4.605.233 4.232-2.151-3.316-21.216 21.383-35.567 38.106-21.916 1.783 1.455 4.417-.07 4.042-2.341-3.516-21.288 21.276-35.829 38.074-22.118 1.783 1.455 4.417-.07 4.042-2.341-3.704-22.423 23.667-36.694 39.834-20.526 15.717 15.716 31.433 31.433 47.149 47.149 39.607 39.607 39.607 104.418 0 144.025-29.112 29.112-71.841 36.822-108.169 23.136-8.855-3.336-16.944-4.81-26.406-4.81h-91.86c-13.076 0-12.452-15.29-11.466-18.967 4.594-17.145 17.329-28.109 38.261-28.109h33.548c5.566 0 8.35-6.72 4.414-10.656l-146.68-146.681c-9.154-9.154-9.154-24.133 0-33.287z" fill="#ffdec2"></path></g></svg>