<!-- icon666.com - MILLIONS vector ICONS FREE --><svg version="1.1" id="Capa_1" xmlns="http://www.w3.org/2000/svg" xmlns:xlink="http://www.w3.org/1999/xlink" x="0px" y="0px" viewBox="0 0 558.297 558.297" style="enable-background:new 0 0 558.297 558.297;" xml:space="preserve"><g><g><path d="M445.044,79.551h-4.543V16.056C440.501,7.201,433.302,0,424.446,0H122.357c-8.854,0-16.055,7.201-16.055,16.056v526.177 c0,8.855,7.201,16.064,16.055,16.064h302.099c8.854,0,16.055-7.209,16.055-16.064v-263.59h4.543c3.824,0,6.941-3.873,6.941-8.625 v-21.353c0-4.753-3.107-8.625-6.941-8.625h-4.543v-26.24h4.543c3.824,0,6.941-3.873,6.941-8.625V154.1 c0-3.156-1.377-5.929-3.424-7.43c2.047-1.501,3.424-4.274,3.424-7.43V88.176C451.976,83.423,448.868,79.551,445.044,79.551z M270.614,494.773l15.167,10.434c1.988,1.385,2.506,4.121,1.139,6.1c-1.359,1.941-4.199,2.457-6.102,1.139l-19.813-13.646 c-1.109-0.764-1.808-2.018-1.884-3.365c-0.086-1.34,0.478-2.658,1.482-3.549l19.813-17.326c0.805-0.689,1.826-1.08,2.889-1.08 c1.262,0,2.467,0.555,3.299,1.5c0.766,0.871,1.148,2,1.07,3.156c-0.076,1.166-0.602,2.238-1.482,3.012L270.614,494.773z M244.26,35.869c0-2.419,1.97-4.389,4.389-4.389h43.329c2.418,0,4.389,1.97,4.389,4.389c0,2.41-1.971,4.379-4.389,4.379h-43.329 C246.229,40.249,244.26,38.279,244.26,35.869z M404.681,95.252v357.876H139.646V95.252H404.681z" fill="#000000" style="fill: rgb(255, 255, 255);"></path></g></g></svg>