<!-- icon666.com - MILLIONS vector ICONS FREE --><svg enable-background="new 0 0 520 520" viewBox="0 0 520 520" xmlns="http://www.w3.org/2000/svg"><g id="_x39_12_x2C__Security_x2C__Hand_x2C__Lock_x2C__Privacy"><g><g><path d="m452.5 70.29c11.05 0 20 8.95 20 20s-8.95 20-20 20-20-8.95-20-20 8.95-20 20-20z" fill="#f88f19"></path><g fill="#ffec6c"><circle cx="460" cy="387.79" r="7.5"></circle><circle cx="455" cy="257.79" r="7.5"></circle><circle cx="425" cy="147.79" r="7.5"></circle></g><path d="m428.19 346.69c-2.87 6.449-8.011 11.63-14.44 14.55l-100.39 45.51c-15.5 7.03-32.15 10.55-48.801 10.55-16.359 0-32.72-3.399-48.01-10.2-17.04-7.569-36.99.091-44.57 17.131l-7.51 16.92-78.889-36.271 10.59-23.859c25.12-56.471 91.26-81.891 147.73-56.78l7.94 3.53c30.83 13.72 66.061 13.59 96.8-.351l41.29-18.72c24.156-10.947 49.043 13.751 38.26 37.99z" fill="#eab883"></path><path d="m379.38 426.03c4.14 0 7.5 3.359 7.5 7.5 0 4.149-3.36 7.5-7.5 7.5-4.149 0-7.5-3.351-7.5-7.5 0-4.14 3.35-7.5 7.5-7.5z" fill="#ffec6c"></path><path d="m396.09 210.75c0 49.54-40.17 89.71-89.71 89.71-49.55 0-89.71-40.17-89.71-89.71 0-49.715 40.328-89.71 89.71-89.71 49.255 0 89.71 39.865 89.71 89.71z" fill="#3f4751"></path><path d="m371.17 107.75v40.95c-5.85-6.11-12.56-11.39-19.939-15.66v-25.29c0-24.78-20.08-44.86-44.851-44.86-12.39 0-23.6 5.02-31.72 13.14s-13.141 19.33-13.141 31.72v25.29c-7.37 4.27-14.08 9.55-19.93 15.66v-40.95c0-17.9 7.25-34.09 18.97-45.82 11.73-11.72 27.921-18.97 45.82-18.97 35.781 0 64.791 29 64.791 64.79z" fill="#757d8c"></path><path d="m306.38 147.62c34.86 0 63.12 28.26 63.12 63.13 0 34.86-28.26 63.13-63.12 63.13-34.87 0-63.13-28.27-63.13-63.13 0-34.87 28.26-63.13 63.13-63.13z" fill="#d0dce7"></path><path d="m322.5 200.29c0 5.49-2.74 10.33-6.93 13.25l-1.87 20.46h-14.65l-1.859-20.46c-4.19-2.92-6.94-7.76-6.94-13.25 0-8.91 7.22-16.12 16.13-16.12 8.899 0 16.119 7.21 16.119 16.12z" fill="#232b3f"></path><circle cx="180" cy="122.79" fill="#ffec6c" r="7.5"></circle><path d="m164.47 441.15-15.94 35.89-79.33-35.28 16.38-36.88z" fill="#4d5db1"></path><circle cx="155" cy="272.79" fill="#ffec6c" r="7.5"></circle><circle cx="92.5" cy="225.29" fill="#f88f19" r="30"></circle><circle cx="70" cy="62.79" fill="#ffec6c" r="7.5"></circle><circle cx="55" cy="342.79" fill="#ffec6c" r="7.5"></circle></g></g></g></svg>