<!-- icon666.com - MILLIONS vector ICONS FREE --><svg id="Layer_1" enable-background="new 0 0 68 68" viewBox="0 0 68 68" xmlns="http://www.w3.org/2000/svg"><g><g><g><g><g><g><g><path d="m53.8100739 45.7909355v10.5078659c0 1.8047829-1.4630661 3.267849-3.2678452 3.267849h-45.2396574c-1.8047822 0-3.2678471-1.4630661-3.2678471-3.267849v-10.5078659c0-1.8047791 1.4630649-3.2678452 3.2678471-3.2678452h45.2396584c1.8047781.0000001 3.2678442 1.4630662 3.2678442 3.2678452z" fill="#4cc66e"></path><path d="m53.8059883 45.7937012v10.5010262c0 1.8113594-1.4604607 3.2719231-3.263752 3.2719231h-45.2356896l45.2356911-17.0448723c1.8032898-.0000001 3.2637505 1.4605636 3.2637505 3.271923z" fill="#14a142"></path></g><g><path d="m53.8100739 28.7473774v10.507864c0 1.8047829-1.4630661 3.267849-3.2678452 3.267849h-45.2396574c-1.8047822 0-3.2678471-1.4630661-3.2678471-3.267849v-10.507864c0-1.8047829 1.4630649-3.2678471 3.2678471-3.2678471h45.2396584c1.8047781 0 3.2678442 1.4630642 3.2678442 3.2678471z" fill="#4cc66e"></path><path d="m53.8059883 28.7501411v10.5010262c0 1.8113594-1.4604607 3.2719231-3.263752 3.2719231h-45.2356896l45.2356896-17.0448704c1.8032913 0 3.263752 1.4605617 3.263752 3.2719211z" fill="#14a142"></path></g></g><g><path d="m13.6741009 51.0482979c0 1.7462196-1.4115582 3.1577797-3.1577778 3.1577797-1.7460213 0-3.1657467-1.4115601-3.1657467-3.1577797 0-1.7460213 1.4197254-3.1657448 3.1657467-3.1657448 1.7462196 0 3.1577778 1.4197235 3.1577778 3.1657448z" fill="#ffd80c"></path><path d="m12.7480021 53.2839622c-1.240242 1.2320747-3.2310848 1.2320747-4.4713278 0l4.4713278-4.4713287c1.2402429 1.2320748 1.2320756 3.239254 0 4.4713287z" fill="#ffa300"></path><g><path d="m20.6921978 51.0470123c0 1.0008202-.8090115 1.8098297-1.8098297 1.8098297-1.0007038 0-1.8143978-.8090096-1.8143978-1.8098297 0-1.0007057.813694-1.8143959 1.8143978-1.8143959 1.0008182 0 1.8098297.8136902 1.8098297 1.8143959z" fill="#e5e8ef"></path><path d="m20.1614189 52.3283463c-.710825.7061462-1.8518448.7061462-2.5626698 0l2.5626698-2.5626678c.710825.7061423.7061443 1.8565253 0 2.5626678z" fill="#cdd4df"></path></g><g><path d="m26.2923107 51.0470123c0 1.0008202-.8090115 1.8098297-1.8098297 1.8098297-1.0007038 0-1.8143978-.8090096-1.8143978-1.8098297 0-1.0007057.813694-1.8143959 1.8143978-1.8143959 1.0008183 0 1.8098297.8136902 1.8098297 1.8143959z" fill="#c175ff"></path><path d="m25.7615337 52.3283463c-.7108269.7061462-1.8518467.7061462-2.5626717 0l2.5626717-2.5626678c.710825.7061423.7061444 1.8565253 0 2.5626678z" fill="#b244f1"></path></g><path d="m48.603714 51.0448685c0 .3783836-.1537743.7203102-.4006119.9691734-.2488632.2468872-.5907898.4006119-.9691734.4006119h-15.2318993c-.7567654 0-1.3697853-.613018-1.3697853-1.3697853 0-.3782806.1537743-.7203064.4006119-.9691696.2488632-.2467918.5907898-.4006119.9691734-.4006119h15.2318993c.7567138 0 1.3697853.6131172 1.3697853 1.3697815z" fill="#e5e8ef"></path><path d="m38.5712166 52.4136086h-6.5744934c-.7556248 0-1.3602314-.6151466-1.3602314-1.3710365 0-.3779411.1512833-.7232056.3995571-.9714775.2482719-.2372055.5829926-.399559.9606743-.399559h6.5744934c-.3779449 0-.7234726.1623535-.9717445.399559-.2482719.2482719-.399292.5935364-.399292.9714775 0 .7558898.6151466 1.3710365 1.3710365 1.3710365z" fill="#cdd4df"></path></g><g><path d="m13.6741009 33.9952011c0 1.7462196-1.4115582 3.1577797-3.1577778 3.1577797-1.7460213 0-3.1657467-1.4115601-3.1657467-3.1577797 0-1.7460213 1.4197254-3.1657467 3.1657467-3.1657467 1.7462196 0 3.1577778 1.4197254 3.1577778 3.1657467z" fill="#ffd80c"></path><path d="m12.7480021 36.2308655c-1.240242 1.2320747-3.2310848 1.2320747-4.4713278 0l4.4713278-4.4713287c1.2402429 1.2320747 1.2320756 3.2392539 0 4.4713287z" fill="#ffa300"></path><g><path d="m20.6921978 33.9939156c0 1.0008163-.8090115 1.8098297-1.8098297 1.8098297-1.0007038 0-1.8143978-.8090134-1.8143978-1.8098297 0-1.0007057.813694-1.8143959 1.8143978-1.8143959 1.0008182 0 1.8098297.8136901 1.8098297 1.8143959z" fill="#e5e8ef"></path><path d="m20.1614189 35.2752495c-.710825.7061462-1.8518448.7061462-2.5626698 0l2.5626698-2.5626678c.710825.7061424.7061443 1.8565254 0 2.5626678z" fill="#cdd4df"></path></g><g><path d="m26.2923107 33.9939156c0 1.0008163-.8090115 1.8098297-1.8098297 1.8098297-1.0007038 0-1.8143978-.8090134-1.8143978-1.8098297 0-1.0007057.813694-1.8143959 1.8143978-1.8143959 1.0008183 0 1.8098297.8136901 1.8098297 1.8143959z" fill="#c175ff"></path><path d="m25.7615337 35.2752495c-.7108269.7061462-1.8518467.7061462-2.5626717 0l2.5626717-2.5626678c.710825.7061424.7061444 1.8565254 0 2.5626678z" fill="#b244f1"></path></g><path d="m48.603714 33.9917717c0 .3783836-.1537743.7203102-.4006119.9691734-.2488632.2468872-.5907898.4006119-.9691734.4006119h-15.2318993c-.7567654 0-1.3697853-.613018-1.3697853-1.3697853 0-.3782845.1537743-.7203102.4006119-.9691734.2488632-.246788.5907898-.4006081.9691734-.4006081h15.2318993c.7567138 0 1.3697853.6131172 1.3697853 1.3697815z" fill="#e5e8ef"></path><path d="m38.5712166 35.3605118h-6.5744934c-.7556248 0-1.3602314-.6151466-1.3602314-1.3710365 0-.3779449.1512833-.7232056.3995571-.9714813.2482719-.2372017.5829926-.3995552.9606743-.3995552h6.5744934c-.3779449 0-.7234726.1623535-.9717445.3995552-.2482719.2482758-.399292.5935364-.399292.9714813 0 .7558898.6151466 1.3710365 1.3710365 1.3710365z" fill="#cdd4df"></path></g></g><g><g><g><path d="m53.8100739 11.702507v10.5078659c0 1.8047829-1.4630661 3.2678471-3.2678452 3.2678471h-45.2396574c-1.8047822 0-3.2678471-1.4630642-3.2678471-3.2678471v-10.5078659c0-1.8047819 1.4630649-3.2678471 3.2678471-3.2678471h45.2396584c1.8047781.0000001 3.2678442 1.4630652 3.2678442 3.2678471z" fill="#4cc66e"></path><path d="m53.8059883 11.7052717v10.5010271c0 1.8113594-1.4604607 3.2719212-3.263752 3.2719212h-45.2356896l45.2356896-17.0448704c1.8032913 0 3.263752 1.4605627 3.263752 3.2719221z" fill="#14a142"></path></g></g><g><path d="m13.6741009 16.9598694c0 1.7462196-1.4115582 3.1577778-3.1577778 3.1577778-1.7460213 0-3.1657467-1.4115582-3.1657467-3.1577778 0-1.7460213 1.4197254-3.1657467 3.1657467-3.1657467 1.7462196 0 3.1577778 1.4197254 3.1577778 3.1657467z" fill="#ffd80c"></path><path d="m12.7480021 19.1955318c-1.240242 1.2320766-3.2310848 1.2320766-4.4713278 0l4.4713278-4.4713268c1.2402429 1.2320748 1.2320756 3.2392521 0 4.4713268z" fill="#ffa300"></path><g><path d="m20.6921978 16.9585819c0 1.0008183-.8090115 1.8098316-1.8098297 1.8098316-1.0007038 0-1.8143978-.8090134-1.8143978-1.8098316 0-1.0007038.813694-1.8143969 1.8143978-1.8143969 1.0008182.0000001 1.8098297.8136931 1.8098297 1.8143969z" fill="#e5e8ef"></path><path d="m20.1614189 18.2399178c-.710825.7061443-1.8518448.7061443-2.5626698 0l2.5626698-2.5626707c.710825.7061452.7061443 1.8565263 0 2.5626707z" fill="#cdd4df"></path></g><g><path d="m26.2923107 16.9585819c0 1.0008183-.8090115 1.8098316-1.8098297 1.8098316-1.0007038 0-1.8143978-.8090134-1.8143978-1.8098316 0-1.0007038.813694-1.8143969 1.8143978-1.8143969 1.0008183.0000001 1.8098297.8136931 1.8098297 1.8143969z" fill="#c175ff"></path><path d="m25.7615337 18.2399178c-.7108269.7061443-1.8518467.7061443-2.5626717 0l2.5626717-2.5626707c.710825.7061452.7061444 1.8565263 0 2.5626707z" fill="#b244f1"></path></g><path d="m48.603714 16.95644c0 .3783836-.1537743.7203102-.4006119.9691734-.2488632.2468872-.5907898.4006119-.9691734.4006119h-15.2318993c-.7567654 0-1.3697853-.6130199-1.3697853-1.3697853 0-.3782845.1537743-.7203102.4006119-.9691725.2488632-.246789.5907898-.4006119.9691734-.4006119h15.2318993c.7567138 0 1.3697853.6131182 1.3697853 1.3697844z" fill="#e5e8ef"></path><path d="m38.5712166 18.3251801h-6.5744934c-.7556248 0-1.3602314-.6151485-1.3602314-1.3710365 0-.3779449.1512833-.7232075.3995571-.9714804.2482719-.2372036.5829926-.3995562.9606743-.3995562h6.5744934c-.3779449 0-.7234726.1623526-.9717445.3995562-.2482719.2482729-.399292.5935354-.399292.9714804 0 .7558879.6151466 1.3710365 1.3710365 1.3710365z" fill="#cdd4df"></path></g></g></g></g></g><g><g><g><g><g><path d="m51.8426132 26.9519348-12.8680878 3.7080536c-.4207306.1212368-.7104607.5062447-.7104607.9440937v6.8112316c0 9.0325737 5.2376442 17.2456093 13.427475 21.055336l.008728.0040627c.2627449.1222229.5660439.1222229.8287926 0l.0000114-.0000038c8.1951485-3.8121452 13.4362068-12.0304794 13.4362068-21.0688858v-6.8017406c0-.437849-.2897339-.8228569-.7104645-.9440937l-12.868103-3.7080536c-.1777495-.05122-.3663481-.05122-.5440978-.0000001z" fill="#ffd80c"></path><path d="m65.2541122 30.6589851-5.5099372-1.5884571v9.3360958c0 4.5187378-1.3114891 8.8341599-3.6444054 12.4914589-1.8006477 2.8220673-4.2072144 5.2590675-7.0941658 7.0941658.8569984.5497017 1.7529869 1.04319 2.6878662 1.4802475h.0086632c.2597427.1255379.5627022.1255379.8267784 0 4.0945663-1.9044151 7.4533424-4.9126778 9.7905922-8.5744133 2.3330154-3.657299 3.6445084-7.9727211 3.6445084-12.4914589v-6.8042011c-.0000001-.4370594-.2900696-.8223381-.7099-.9434376z" fill="#ffbe00"></path><path d="m62.2502861 33.6974716v5.3368454c0 6.8646469-3.8521576 13.1882515-9.8945732 16.3609428-.0822105.0475502-.1600914.0866508-.2423058.1299744-6.1765099-3.1338005-10.1326485-9.5353928-10.1326485-16.4909172v-5.3368454l10.1326485-2.917387 7.6307678 2.1945896z" fill="#e5e8ef"></path></g><path d="m59.744175 32.9746742v5.4319496c0 4.5187378-1.3114891 8.8341599-3.6444054 12.4914589-1.051857 1.644886-2.3070259 3.1597939-3.7440567 4.4971771 6.0424156-3.1726913 9.8945732-9.4962959 9.8945732-16.3609428v-5.3368454z" fill="#cdd4df"></path></g></g></g><path d="m53.779171 42.736763.7474937 4.9077568c.04179.2743607-.1705704.5215111-.4480934.5215111h-3.9259834c-.2775192 0-.4898796-.2471466-.4480972-.5214996l.7473869-4.9077682c-.5728912-.4732933-.9364967-1.1905327-.9364967-1.9972763 0-1.5534439 1.3572769-2.7820473 2.9452095-2.57798 1.1313629.1453896 2.0613403 1.0526085 2.2260399 2.181324.1409187.9657095-.2423173 1.8443068-.9074593 2.3939322z" fill="#33527d"></path></g></g></svg>