<!-- icon666.com - MILLIONS vector ICONS FREE --><svg viewBox="0 0 64 64" xmlns="http://www.w3.org/2000/svg"><g id="_11._Server" data-name="11. Server"><path d="m17 32h-11.18a3 3 0 1 0 0 2h11.18a1 1 0 0 0 0-2zm-14 2a1 1 0 1 1 1-1 1 1 0 0 1 -1 1z" fill="#0074ff"></path><path d="m17 24a1 1 0 0 0 0-2h-5v-7a3 3 0 0 0 -3-3h-3.18a3 3 0 1 0 0 2h3.18a1 1 0 0 1 1 1v7h-4.18a3 3 0 1 0 0 2h4.18v2a3 3 0 0 0 3 3h4a1 1 0 0 0 0-2h-4a1 1 0 0 1 -1-1v-2zm-14-10a1 1 0 1 1 1-1 1 1 0 0 1 -1 1zm0 10a1 1 0 1 1 1-1 1 1 0 0 1 -1 1z" fill="#0074ff"></path><path d="m13 39h4a1 1 0 0 0 0-2h-4a3 3 0 0 0 -3 3v2h-4.18a3 3 0 1 0 0 2h4.18v7a1 1 0 0 1 -1 1h-3.18a3 3 0 1 0 0 2h3.18a3 3 0 0 0 3-3v-7h5a1 1 0 0 0 0-2h-5v-2a1 1 0 0 1 1-1zm-10 5a1 1 0 1 1 1-1 1 1 0 0 1 -1 1zm0 10a1 1 0 1 1 1-1 1 1 0 0 1 -1 1z" fill="#0074ff"></path><path d="m13 11h4a1 1 0 0 0 0-2h-4a1 1 0 0 0 0 2z" fill="#0074ff"></path><path d="m17 55h-4a1 1 0 0 0 0 2h4a1 1 0 0 0 0-2z" fill="#0074ff"></path><rect fill="#f5f7ff" height="60" rx="4" width="38" x="17" y="3"></rect><path d="m51 60h-30a4 4 0 0 1 -4-4v3a4 4 0 0 0 4 4h30a4 4 0 0 0 4-4v-3a4 4 0 0 1 -4 4z" fill="#ccd3eb"></path><rect fill="#96a1c3" height="10" rx="1" width="30" x="21" y="7"></rect><path d="m63 5v2.48a12.36 12.36 0 0 1 -8 11.52 12.33 12.33 0 0 1 -8-11.52v-2.48a20.94 20.94 0 0 0 8-4 21 21 0 0 0 8 4z" fill="#0074ff"></path><path d="m55 13c-.55 0-.57-.16-2.71-2.3a1 1 0 0 1 1.41-1.41l1.3 1.32 2.29-2.29a1 1 0 0 1 1.41 1.41l-3 3a1 1 0 0 1 -.7.27z" fill="#f5f7ff"></path><rect fill="#96a1c3" height="10" rx="1" width="30" x="21" y="21"></rect><rect fill="#96a1c3" height="10" rx="1" width="30" x="21" y="35"></rect><rect fill="#96a1c3" height="10" rx="1" width="30" x="21" y="49"></rect><g fill="#033c59"><path d="m52 22a2 2 0 0 0 -2-2h-28a2 2 0 0 0 -2 2v8a2 2 0 0 0 2 2h28a2 2 0 0 0 2-2zm-30 8v-8h28v8z"></path><path d="m52 36a2 2 0 0 0 -2-2h-28a2 2 0 0 0 -2 2v8a2 2 0 0 0 2 2h28a2 2 0 0 0 2-2zm-30 8v-8h28v8z"></path><path d="m25 48h-3a2 2 0 0 0 -2 2v8a2 2 0 0 0 2 2h28a2 2 0 0 0 2-2v-8a2 2 0 0 0 -2-2h-15a1 1 0 0 0 0 2h15v8h-28v-8h3a1 1 0 0 0 0-2z"></path><path d="m31 50a1 1 0 0 0 0-2h-2a1 1 0 0 0 0 2z"></path><path d="m63.22 4.06a19.73 19.73 0 0 1 -7.64-3.83 1 1 0 0 0 -1.21 0 19.79 19.79 0 0 1 -7.64 3.83 1 1 0 0 0 -.73.94v1h-24a2 2 0 0 0 -2 2v8a2 2 0 0 0 2 2c30.4 0 28.23.1 28.87-.22a13.16 13.16 0 0 0 3.13 1.92v39.3a3 3 0 0 1 -3 3h-30a3 3 0 0 1 -3-3v-52a3 3 0 0 1 3-3h22a1 1 0 0 0 0-2h-22a5 5 0 0 0 -5 5v52a5 5 0 0 0 5 5h30a5 5 0 0 0 5-5v-39.32a13.39 13.39 0 0 0 8-12.2v-2.48a1 1 0 0 0 -.78-.94zm-41.22 3.94h24a13.27 13.27 0 0 0 3.08 8h-27.08zm40-.52a11.39 11.39 0 0 1 -7 10.52 11.37 11.37 0 0 1 -7-10.52v-1.69a21.44 21.44 0 0 0 7-3.51 21.44 21.44 0 0 0 7 3.51z"></path><path d="m35 11h-10a1 1 0 0 0 0 2h10a1 1 0 0 0 0-2z"></path><path d="m44 10a1 1 0 0 0 -1 1v2a1 1 0 0 0 2 0v-2a1 1 0 0 0 -1-1z"></path><path d="m35 25h-10a1 1 0 0 0 0 2h10a1 1 0 0 0 0-2z"></path><path d="m44 24a1 1 0 0 0 -1 1v2a1 1 0 0 0 2 0v-2a1 1 0 0 0 -1-1z"></path><path d="m47 24a1 1 0 0 0 -1 1v2a1 1 0 0 0 2 0v-2a1 1 0 0 0 -1-1z"></path><path d="m35 39h-10a1 1 0 0 0 0 2h10a1 1 0 0 0 0-2z"></path><path d="m44 38a1 1 0 0 0 -1 1v2a1 1 0 0 0 2 0v-2a1 1 0 0 0 -1-1z"></path><path d="m47 38a1 1 0 0 0 -1 1v2a1 1 0 0 0 2 0v-2a1 1 0 0 0 -1-1z"></path><path d="m24 54a1 1 0 0 0 1 1h10a1 1 0 0 0 0-2h-10a1 1 0 0 0 -1 1z"></path><path d="m45 55v-2a1 1 0 0 0 -2 0v2a1 1 0 0 0 2 0z"></path><path d="m48 55v-2a1 1 0 0 0 -2 0v2a1 1 0 0 0 2 0z"></path></g></g></svg>