<!-- icon666.com - MILLIONS vector ICONS FREE --><svg id="Layer_1" enable-background="new 0 0 26 26" viewBox="0 0 26 26" xmlns="http://www.w3.org/2000/svg"><g id="_x35_7"><path d="m21.5 1h-17c-1.9299316 0-3.5 1.5700073-3.5 3.5v2.9199829h24v-2.9199829c0-1.9299927-1.5700684-3.5-3.5-3.5zm-16.8000488 3.8699951c-.3874464.409132-1.0413251.3892169-1.4099121 0-.3599308-.3408594-.4161875-.9941287 0-1.4100342.4267364-.4267364 1.1353545-.3427787 1.4099121 0 .3559255.3201161.4365372.9966278 0 1.4100342zm4 0c-.3874464.409132-1.0413251.3892169-1.4099121 0-.3580728-.3390994-.4169588-.9933581 0-1.4100342.4267364-.4267364 1.135354-.3427787 1.4099121 0 .3753338.3375719.4208936 1.0114422 0 1.4100342zm4 0c-.3874464.409132-1.0413246.3892169-1.4099121 0-.359931-.3408594-.4161873-.9941287 0-1.4100342.4650764-.4650769 1.1740828-.2944269 1.4099121 0 .3559255.3201161.4365368.9966278 0 1.4100342z" fill="#000000" style="fill: rgb(255, 255, 255);"></path><path d="m1 21.5c0 1.9299927 1.5700684 3.5 3.5 3.5h17c1.9299316 0 3.5-1.5700073 3.5-3.5v-12.0800171h-24zm5.75-5.1300049c0-1.3900146 1.1300049-2.5100098 2.5200195-2.5100098h6.9699707c1.3800049 0 2.5100098 1.1199951 2.5100098 2.5100098v1.6400146c0 1.3800049-1.1300049 2.5099487-2.5100098 2.5099487h-6.9699707c-1.3900146 0-2.5200195-1.1299438-2.5200195-2.5099487z" fill="#000000" style="fill: rgb(255, 255, 255);"></path></g></svg>