<!-- icon666.com - MILLIONS vector ICONS FREE --><svg viewBox="0 0 64 64" xmlns="http://www.w3.org/2000/svg"><g id="Icons"><g><g><g><g><path d="m56 52h-48v-34c0-1.105.895-2 2-2h44c1.105 0 2 .895 2 2z" fill="#0a5078"></path></g></g><g><g><path d="m53 50h-42c-.552 0-1-.448-1-1v-30c0-.552.448-1 1-1h42c.552 0 1 .448 1 1v30c0 .552-.448 1-1 1z" fill="#00325a"></path></g></g><g><g><path d="m58 52h-52c-1.105 0-2 .895-2 2 0 1.105.895 2 2 2h52c1.105 0 2-.895 2-2 0-1.105-.895-2-2-2z" fill="#00a0c8"></path></g></g><g><g><path d="m34 54h-4c-1.105 0-2-.895-2-2h8c0 1.105-.895 2-2 2z" fill="#f0f0f0"></path></g></g></g><g><g><circle cx="32" cy="25" fill="#00143c" r="16"></circle></g></g><g><g><circle cx="32" cy="24" fill="#c80a50" r="16"></circle></g></g><g fill="#fab400"><path d="m39.778 16.222c-.391-.391-1.023-.391-1.414 0-.391.39-.391 1.023 0 1.414 1.699 1.7 2.636 3.96 2.636 6.364 0 4.962-4.037 9-9 9v-2c0-.379-.214-.725-.553-.895s-.744-.133-1.047.095l-4 3c-.252.189-.4.485-.4.8s.148.611.4.8l4 3c.177.132.388.2.6.2.152 0 .306-.035.447-.105.339-.17.553-.516.553-.895v-2c6.065 0 11-4.935 11-11 0-2.938-1.145-5.7-3.222-7.778z"></path><path d="m23 24c0-4.962 4.038-9 9-9v2c0 .379.214.725.553.895.141.07.295.105.447.105.212 0 .424-.068.6-.2l4-3c.252-.188.4-.485.4-.8s-.148-.611-.4-.8l-4-3c-.303-.228-.709-.264-1.047-.095-.339.17-.553.516-.553.895v2c-6.065 0-11 4.935-11 11 0 2.938 1.144 5.7 3.222 7.778.195.195.451.293.707.293s.512-.098.707-.293c.391-.39.391-1.023 0-1.414-1.7-1.7-2.636-3.96-2.636-6.364z"></path></g><g><g><g><path d="m20 47c-.552 0-1-.448-1-1v-2c0-.552.448-1 1-1 .552 0 1 .448 1 1v2c0 .552-.448 1-1 1z" fill="#00143c"></path></g></g><g><g><path d="m24 47c-.552 0-1-.448-1-1v-2c0-.552.448-1 1-1 .552 0 1 .448 1 1v2c0 .552-.448 1-1 1z" fill="#00143c"></path></g></g><g><g><path d="m28 47c-.552 0-1-.448-1-1v-2c0-.552.448-1 1-1 .552 0 1 .448 1 1v2c0 .552-.448 1-1 1z" fill="#00143c"></path></g></g><g><g><path d="m32 47c-.552 0-1-.448-1-1v-2c0-.552.448-1 1-1 .552 0 1 .448 1 1v2c0 .552-.448 1-1 1z" fill="#00143c"></path></g></g><g><g><path d="m20 46c-.552 0-1-.448-1-1v-2c0-.552.448-1 1-1 .552 0 1 .448 1 1v2c0 .552-.448 1-1 1z" fill="#fab400"></path></g></g><g><g><path d="m24 46c-.552 0-1-.448-1-1v-2c0-.552.448-1 1-1 .552 0 1 .448 1 1v2c0 .552-.448 1-1 1z" fill="#fab400"></path></g></g><g><g><path d="m28 46c-.552 0-1-.448-1-1v-2c0-.552.448-1 1-1 .552 0 1 .448 1 1v2c0 .552-.448 1-1 1z" fill="#fab400"></path></g></g><g><g><path d="m32 46c-.552 0-1-.448-1-1v-2c0-.552.448-1 1-1 .552 0 1 .448 1 1v2c0 .552-.448 1-1 1z" fill="#fab400"></path></g></g><g><g><path d="m36 46c-.552 0-1-.448-1-1v-2c0-.552.448-1 1-1 .552 0 1 .448 1 1v2c0 .552-.448 1-1 1z" fill="#00143c"></path></g></g><g><g><path d="m40 46c-.552 0-1-.448-1-1v-2c0-.552.448-1 1-1 .552 0 1 .448 1 1v2c0 .552-.448 1-1 1z" fill="#00143c"></path></g></g><g><g><path d="m44 46c-.552 0-1-.448-1-1v-2c0-.552.448-1 1-1 .552 0 1 .448 1 1v2c0 .552-.448 1-1 1z" fill="#00143c"></path></g></g></g></g></g></svg>