<!-- icon666.com - MILLIONS vector ICONS FREE --><svg id="Layer_1" viewBox="0 0 48 48" xmlns="http://www.w3.org/2000/svg"><g><g><g><path d="m2 2h44v7.6h-44z" fill="#2daacd"></path></g><g><path d="m48 35.1h-8.6v-2h6.6v-31.1h-44v31.1h6.6v2h-8.6v-35.1h48z" fill="#467487"></path></g></g><g><g><path d="m4.1 4.8h2.1v2h-2.1z" fill="#467487"></path></g><g><path d="m8.6 4.8h2.1v2h-2.1z" fill="#467487"></path></g><g><path d="m13.1 4.8h2.1v2h-2.1z" fill="#467487"></path></g></g><g><path d="m24 48c-7.7 0-13.9-6.2-13.9-13.9s6.2-13.9 13.9-13.9 13.9 6.2 13.9 13.9-6.2 13.9-13.9 13.9zm0-25.8c-6.6 0-11.9 5.3-11.9 11.9s5.3 11.9 11.9 11.9 11.9-5.3 11.9-11.9-5.3-11.9-11.9-11.9z" fill="#467487"></path></g><g><path d="m24 48c-4.3 0-7.6-6.1-7.6-13.9s3.3-13.9 7.6-13.9 7.6 6.1 7.6 13.9-3.3 13.9-7.6 13.9zm0-25.8c-2.7 0-5.6 4.8-5.6 11.9s2.9 11.9 5.6 11.9 5.6-4.8 5.6-11.9-2.9-11.9-5.6-11.9z" fill="#467487"></path></g><g><path d="m23 21.2h2v25.8h-2z" fill="#467487"></path></g><g><path d="m11.1 33.1h25.8v2h-25.8z" fill="#467487"></path></g><g><g><path d="m35.9 18c-1.9 0-3.5-1.6-3.5-3.5s1.6-3.5 3.5-3.5 3.5 1.6 3.5 3.5-1.6 3.5-3.5 3.5zm0-5c-.8 0-1.5.7-1.5 1.5s.7 1.5 1.5 1.5 1.5-.7 1.5-1.5-.7-1.5-1.5-1.5z" fill="#467487"></path></g><g><path d="m33 25-1.4-1.4 3.3-3.7v-2.9h2v3.7z" fill="#467487"></path></g></g><g><g><path d="m12.3 18c-1.9 0-3.5-1.6-3.5-3.5s1.6-3.5 3.5-3.5 3.5 1.6 3.5 3.5-1.6 3.5-3.5 3.5zm0-5c-.8 0-1.5.7-1.5 1.5s.7 1.5 1.5 1.5 1.5-.7 1.5-1.5-.7-1.5-1.5-1.5z" fill="#467487"></path></g><g><path d="m15.2 25-3.9-4.3v-3.7h2v2.9l3.3 3.7z" fill="#467487"></path></g></g><g><g><path d="m24 18c-1.9 0-3.5-1.6-3.5-3.5s1.6-3.5 3.5-3.5 3.5 1.6 3.5 3.5-1.6 3.5-3.5 3.5zm0-5c-.8 0-1.5.7-1.5 1.5s.7 1.5 1.5 1.5 1.5-.7 1.5-1.5-.7-1.5-1.5-1.5z" fill="#467487"></path></g><g><path d="m23 17h2v4h-2z" fill="#467487"></path></g></g></g></svg>