<!-- icon666.com - MILLIONS vector ICONS FREE --><svg viewBox="0 0 64 64" xmlns="http://www.w3.org/2000/svg" xmlns:xlink="http://www.w3.org/1999/xlink"><linearGradient id="linear-gradient" gradientUnits="userSpaceOnUse" x1="3.25" x2="60.75" y1="32" y2="32"><stop offset="0" stop-color="#5bb4f6"></stop><stop offset=".61" stop-color="#2191e5"></stop><stop offset="1" stop-color="#007edb"></stop></linearGradient><g id="Layer_7" data-name="Layer 7"><rect fill="url(#linear-gradient)" height="57.5" rx="12.75" width="57.5" x="3.25" y="3.25"></rect><path d="m36.59 38.63v-2.81a8.47 8.47 0 0 0 4.51-6.63h.29a3.14 3.14 0 0 0 2.86-3.36 3.76 3.76 0 0 0 -.71-2.21s0 0 0 0c.05-.23 1.17-5.58-1.87-9s-8.83-3.37-9.08-3.36a.76.76 0 0 0 -.73.59 13 13 0 0 0 -.23 2 12 12 0 0 0 -5.9 1.2c-4.67 2.49-5.92 8.39-6 8.64a.72.72 0 0 0 .25.72 3.73 3.73 0 0 0 -.28 1.41 3.66 3.66 0 0 0 .79 2.32 2.68 2.68 0 0 0 2.08 1h.27a8.23 8.23 0 0 0 2.67 5.29 8.41 8.41 0 0 0 1.86 1.33v2.82c-9.37 1.42-16.12 7-16.12 13.42a.76.76 0 0 0 .75.75h40a.76.76 0 0 0 .75-.75c0-6.42-6.75-12-16.16-13.37zm4.8-10.94h-.23v-3.61c.3 0 .57.06.8.07a1.34 1.34 0 0 1 .33.3 2.15 2.15 0 0 1 .46 1.38c0 1-.62 1.86-1.36 1.86zm-8.15-14.92c1.5.1 5.29.57 7.32 2.84s1.8 5.66 1.62 7.05c-1.5-.09-5.29-.56-7.32-2.84s-1.79-5.65-1.62-7.05zm-6.8 3.62a10.71 10.71 0 0 1 5.23-1 9.36 9.36 0 0 0 1.69 5 8.61 8.61 0 0 1 -2.81 2.47 11.9 11.9 0 0 1 -6.87.94 20.7 20.7 0 0 1 -2.27-.42c.46-1.58 1.85-5.3 5.03-6.99zm-4.75 10.81a2.23 2.23 0 0 1 -.45-1.37 2.32 2.32 0 0 1 .21-.95c.39.09.86.18 1.39.27v2.54h-.23a1.19 1.19 0 0 1 -.92-.49zm6.57 12.8a.75.75 0 0 0 .65-.74v-3.91a.75.75 0 0 0 -.43-.68 7.35 7.35 0 0 1 -1.91-1.28 6.7 6.7 0 0 1 -2.23-4.95v-3.12c.43 0 .88.05 1.35.05a11.88 11.88 0 0 0 5.57-1.23 10.15 10.15 0 0 0 3.13-2.68 11.46 11.46 0 0 0 5.27 2.38v4.56s0 0 0 0a0 0 0 0 1 0 0 7 7 0 0 1 -4.06 6.18.74.74 0 0 0 -.51.71v3.94a.75.75 0 0 0 .65.74l1.32.2a5.11 5.11 0 0 1 -10.12 0zm-15.47 11.25c.47-4.87 5.52-9.08 12.66-10.72a6.64 6.64 0 0 0 13.1 0c7.14 1.64 12.19 5.85 12.66 10.72z" fill="#fff"></path></g></svg>