<!-- icon666.com - MILLIONS vector ICONS FREE --><svg viewBox="0 0 64 64" xmlns="http://www.w3.org/2000/svg" xmlns:xlink="http://www.w3.org/1999/xlink"><linearGradient id="linear-gradient" gradientUnits="userSpaceOnUse" x1="3.25" x2="60.75" y1="32" y2="32"><stop offset="0" stop-color="#5bb4f6"></stop><stop offset=".61" stop-color="#2191e5"></stop><stop offset="1" stop-color="#007edb"></stop></linearGradient><g id="Layer_56" data-name="Layer 56"><rect fill="url(#linear-gradient)" height="57.5" rx="12.75" width="57.5" x="3.25" y="3.25"></rect><path d="m52.61 51.65-3.3-6.15a12.32 12.32 0 0 0 1.69-7.13 16.84 16.84 0 0 0 .7-1.91 19.27 19.27 0 1 0 -34.94 4.31l-5.38 10a.75.75 0 0 0 .62 1.13.7.7 0 0 0 .31-.07l10.53-4.76a19 19 0 0 0 4.77 2.21 19.55 19.55 0 0 0 5.1.82 12.31 12.31 0 0 0 9.53 1 12 12 0 0 0 2.93-1.33l6.47 2.92a.67.67 0 0 0 .31.07.75.75 0 0 0 .66-1.1zm-24.56-3.81a17.52 17.52 0 0 1 -4.72-2.24.77.77 0 0 0 -.79 0l-8.83 4 4.53-8.44a1.08 1.08 0 0 0 .08-.19.78.78 0 0 0 -.13-.63 17.77 17.77 0 1 1 32.19-4.86 12.36 12.36 0 1 0 -20.09 12.88 16.94 16.94 0 0 1 -2.24-.52zm17.4.4a.77.77 0 0 0 -.58 0 .79.79 0 0 0 -.19.09 10.76 10.76 0 0 1 -2.88 1.37 10.89 10.89 0 1 1 6-4.59.74.74 0 0 0 -.09.58 1 1 0 0 0 .08.21l2.44 4.53z" fill="#fff"></path></g></svg>