<!-- icon666.com - MILLIONS vector ICONS FREE --><svg viewBox="0 0 64 64" xmlns="http://www.w3.org/2000/svg" xmlns:xlink="http://www.w3.org/1999/xlink"><linearGradient id="linear-gradient" gradientUnits="userSpaceOnUse" x1="3.25" x2="60.75" y1="32" y2="32"><stop offset="0" stop-color="#5bb4f6"></stop><stop offset=".61" stop-color="#2191e5"></stop><stop offset="1" stop-color="#007edb"></stop></linearGradient><g id="Layer_24" data-name="Layer 24"><rect fill="url(#linear-gradient)" height="57.5" rx="12.75" width="57.5" x="3.25" y="3.25"></rect><g fill="#fff"><path d="m38.12 11.25a14.6 14.6 0 0 0 -10.85 24.42l-15.8 15.8a.75.75 0 0 0 0 1.06.75.75 0 0 0 1.06 0l15.8-15.8a14.62 14.62 0 1 0 9.79-25.48zm0 27.77a13.14 13.14 0 1 1 13.13-13.13 13.15 13.15 0 0 1 -13.13 13.11z"></path><path d="m43.36 25.14h-10.49a.75.75 0 0 0 0 1.5h10.49a.75.75 0 0 0 0-1.5z"></path></g></g></svg>