<!-- icon666.com - MILLIONS vector ICONS FREE --><svg viewBox="0 0 64 64" xmlns="http://www.w3.org/2000/svg" xmlns:xlink="http://www.w3.org/1999/xlink"><linearGradient id="linear-gradient" gradientUnits="userSpaceOnUse" x1="3.25" x2="60.75" y1="32" y2="32"><stop offset="0" stop-color="#5bb4f6"></stop><stop offset=".61" stop-color="#2191e5"></stop><stop offset="1" stop-color="#007edb"></stop></linearGradient><g id="Layer_90" data-name="Layer 90"><rect fill="url(#linear-gradient)" height="57.5" rx="12.75" width="57.5" x="3.25" y="3.25"></rect><g fill="#fff"><path d="m52 19.31h-40a.75.75 0 0 0 -.75.75v23.88a.75.75 0 0 0 .75.75h40a.75.75 0 0 0 .75-.75v-23.88a.75.75 0 0 0 -.75-.75zm-.75 23.88h-38.5v-22.38h38.5z"></path><path d="m16.28 40.86h16.22a.75.75 0 0 0 .75-.75c0-2.74-2.72-5.11-6.56-5.8v-.51a3.81 3.81 0 0 0 1.86-3.25v-1.28h.23a.77.77 0 0 0 .73-.59 5.05 5.05 0 0 0 -.86-4 5.84 5.84 0 0 0 -4-1.51.75.75 0 0 0 -.73.59 3.39 3.39 0 0 0 -.07.46 4.92 4.92 0 0 0 -2.19.55 6 6 0 0 0 -2.66 3.78.75.75 0 0 0 .5.86s.3.09.74.18v1a3.73 3.73 0 0 0 1.24 2.78 3.42 3.42 0 0 0 .61.47v.51c-3.83.69-6.55 3.06-6.55 5.8a.74.74 0 0 0 .74.71zm11.25-15.21a3 3 0 0 1 .58 2.07 3.67 3.67 0 0 1 -2.23-1 2.94 2.94 0 0 1 -.58-2.07 3.79 3.79 0 0 1 2.23 1zm-5.19.41a3.66 3.66 0 0 1 1.52-.37 4.15 4.15 0 0 0 .52 1.53 2.87 2.87 0 0 1 -.79.66 4.44 4.44 0 0 1 -2.52.33l-.39-.06a4 4 0 0 1 1.66-2.09zm.59 9.64a.75.75 0 0 0 .65-.74v-1.6a.75.75 0 0 0 -.43-.68 2.15 2.15 0 0 1 -.66-.45 2.26 2.26 0 0 1 -.76-1.68v-.8h.1a5.2 5.2 0 0 0 2.47-.56 4.63 4.63 0 0 0 1.12-.87 5.29 5.29 0 0 0 1.63.71v1.51a2.39 2.39 0 0 1 -1.38 2.11.75.75 0 0 0 -.48.7v1.65a.75.75 0 0 0 .66.74c3 .38 5.29 1.86 5.8 3.66h-14.52c.5-1.84 2.79-3.32 5.8-3.7z"></path><path d="m36.27 25.15h11.16a.75.75 0 0 0 0-1.5h-11.16a.75.75 0 0 0 0 1.5z"></path><path d="m36.27 30.39h11.16a.75.75 0 0 0 0-1.5h-11.16a.75.75 0 1 0 0 1.5z"></path><path d="m36.27 35.63h11.16a.75.75 0 0 0 0-1.5h-11.16a.75.75 0 0 0 0 1.5z"></path><path d="m36.27 40.86h11.16a.75.75 0 0 0 0-1.5h-11.16a.75.75 0 1 0 0 1.5z"></path></g></g></svg>