<!-- icon666.com - MILLIONS vector ICONS FREE --><svg viewBox="0 0 64 64" xmlns="http://www.w3.org/2000/svg" xmlns:xlink="http://www.w3.org/1999/xlink"><linearGradient id="linear-gradient" gradientUnits="userSpaceOnUse" x1="3.25" x2="60.75" y1="32" y2="32"><stop offset="0" stop-color="#5bb4f6"></stop><stop offset=".61" stop-color="#2191e5"></stop><stop offset="1" stop-color="#007edb"></stop></linearGradient><g id="Layer_92" data-name="Layer 92"><rect fill="url(#linear-gradient)" height="57.5" rx="12.75" width="57.5" x="3.25" y="3.25"></rect><path d="m47.81 52.75h-10.87a.76.76 0 0 1 -.75-.75v-12.24h-8.38v12.24a.76.76 0 0 1 -.75.75h-10.87a.76.76 0 0 1 -.75-.75v-19.25h-3.44a.74.74 0 0 1 -.69-.46.75.75 0 0 1 .16-.82l20-20a.75.75 0 0 1 1.06 0l6.06 6.06v-2.33a.76.76 0 0 1 .75-.75h6a.76.76 0 0 1 .75.75v9.8l6.43 6.43a.75.75 0 0 1 .16.82.74.74 0 0 1 -.69.46h-3.43v19.29a.76.76 0 0 1 -.75.75zm-10.12-1.5h9.37v-19.25a.75.75 0 0 1 .75-.75h2.38l-5.37-5.37a.75.75 0 0 1 -.22-.53v-9.35h-4.51v3.39a.75.75 0 0 1 -1.28.53l-6.81-6.86-18.19 18.19h2.38a.75.75 0 0 1 .75.75v19.25h9.37v-12.25a.75.75 0 0 1 .75-.75h9.88a.75.75 0 0 1 .75.75z" fill="#fff"></path></g></svg>