<!-- icon666.com - MILLIONS vector ICONS FREE --><svg viewBox="0 0 64 64" xmlns="http://www.w3.org/2000/svg" xmlns:xlink="http://www.w3.org/1999/xlink"><linearGradient id="linear-gradient" gradientUnits="userSpaceOnUse" x1="3.25" x2="60.75" y1="32" y2="32"><stop offset="0" stop-color="#5bb4f6"></stop><stop offset=".61" stop-color="#2191e5"></stop><stop offset="1" stop-color="#007edb"></stop></linearGradient><g id="Layer_82" data-name="Layer 82"><rect fill="url(#linear-gradient)" height="57.5" rx="12.75" width="57.5" x="3.25" y="3.25"></rect><path d="m50.06 22a.74.74 0 0 0 -.36-.61l-17.32-10a.77.77 0 0 0 -.75 0l-17.33 10a1 1 0 0 0 -.27.28.79.79 0 0 0 -.1.37v19.96a.74.74 0 0 0 .37.65l17.33 10a.77.77 0 0 0 .75 0l17.32-10a.74.74 0 0 0 .37-.65v-20s-.01 0-.01 0zm-26.72-4.13 15.82 9.13-7.16 4.13-15.82-9.13zm25.23 5.43v6l-15.82 9.1v-6zm-17.32 9.13v6l-15.82-9.16v-6zm-15.82-1.43 15.82 9.13v2l-15.82-9.08zm17.32 9.13 15.82-9.13v2l-15.82 9.18zm-.75-27.26 15.82 9.13-7.16 4.13-15.82-9.13zm-16.57 21.91 15.82 9.13v6.79l-15.82-9.13zm17.32 15.92v-6.79l15.82-9.13v6.79z" fill="#fff"></path></g></svg>