<!-- icon666.com - MILLIONS vector ICONS FREE --><svg viewBox="0 0 64 64" xmlns="http://www.w3.org/2000/svg" xmlns:xlink="http://www.w3.org/1999/xlink"><linearGradient id="linear-gradient" gradientUnits="userSpaceOnUse" x1="3.25" x2="60.75" y1="32" y2="32"><stop offset="0" stop-color="#5bb4f6"></stop><stop offset=".61" stop-color="#2191e5"></stop><stop offset="1" stop-color="#007edb"></stop></linearGradient><g id="Layer_87" data-name="Layer 87"><rect fill="url(#linear-gradient)" height="57.5" rx="12.75" width="57.5" x="3.25" y="3.25"></rect><g fill="#fff"><path d="m45.35 19.76h-26.7a.75.75 0 0 0 0 1.5h26.7a.75.75 0 0 0 0-1.5z"></path><path d="m45.35 31.25h-26.7a.75.75 0 0 0 0 1.5h26.7a.75.75 0 0 0 0-1.5z"></path><path d="m45.35 42.74h-26.7a.75.75 0 0 0 0 1.5h26.7a.75.75 0 0 0 0-1.5z"></path><path d="m50 11.25h-36a2.75 2.75 0 0 0 -2.75 2.75v36a2.75 2.75 0 0 0 2.75 2.75h36a2.75 2.75 0 0 0 2.75-2.75v-36a2.75 2.75 0 0 0 -2.75-2.75zm1.25 38.75a1.25 1.25 0 0 1 -1.25 1.25h-36a1.25 1.25 0 0 1 -1.25-1.25v-36a1.25 1.25 0 0 1 1.25-1.25h36a1.25 1.25 0 0 1 1.25 1.25z"></path></g></g></svg>