<svg id="Layer_1" data-name="Layer 1" xmlns="http://www.w3.org/2000/svg" viewBox="0 0 150.06 113.25"><defs><style>.cls-1{fill:#222220;}.cls-2{fill:#fff;}.cls-3{fill:#fce527;}</style></defs><title>14</title><path class="cls-1" d="M8.24,98.69H0V93.62H22.48v5.08H14.24v14h-6Z" transform="translate(0 0)"/><path class="cls-1" d="M24.6,112.65v-19h6v19Z" transform="translate(0 0)"/><path class="cls-1" d="M50.11,104.05V93.62h5.52v19H50.51L40.23,102.13v10.52H34.71v-19h5.36Z" transform="translate(0 0)"/><path class="cls-1" d="M65.62,112.65h-5.8v-19h5.8v7.16h1.6l7-7.16h7.28l-9.28,9.12,9.64,9.92H74.13l-6.92-7.2h-1.6Z" transform="translate(0 0)"/><path class="cls-1" d="M106.37,103.17c0,5.68-4.68,10.08-12.44,10.08s-12.48-4.4-12.48-10.08,4.68-10.08,12.48-10.08S106.37,97.49,106.37,103.17Zm-6.08,0c0-3.12-2.52-5.4-6.36-5.4s-6.36,2.28-6.36,5.4,2.48,5.44,6.36,5.44S100.29,106.29,100.29,103.17Z" transform="translate(0 0)"/><path class="cls-1" d="M115,98.45v3.44h12.8v4H115v6.76h-5.8v-19h19.08v4.84Z" transform="translate(0 0)"/><path class="cls-1" d="M136.78,98.45v3.44h12.8v4h-12.8v6.76H131v-19h19.08v4.84Z" transform="translate(0 0)"/><path class="cls-2" d="M114.39,33.78l1-3.36-3.47.11A8.18,8.18,0,0,1,107.47,29c.16,0,.31,0,.47,0a5.59,5.59,0,0,0,5-3.12l1.49-3.31a26.89,26.89,0,0,1-3.59-.21,5.56,5.56,0,0,1-2.92-1.77,5.53,5.53,0,0,0-4-1.75,5.77,5.77,0,0,0-1.75.28,6.44,6.44,0,0,0,.2-.82,7.43,7.43,0,0,0-1.52-5.46L98.25,9.61l-1.62,3.8a3.39,3.39,0,0,1-1.14,1.34,7.05,7.05,0,0,0-1.92-3.57,8.62,8.62,0,0,0-6.23-2.6,7.78,7.78,0,0,0-1.22.09L83,9.28a10.85,10.85,0,0,1,1.28-3L86,3.53,81.61,4l-1.39-3-2.7,1.39L75,0,72.53,2.46,69.82,1.07,68.43,4l-4.37-.5L65.8,6.24a10.72,10.72,0,0,1,1.27,3l-3-.59-.1,0a8,8,0,0,0-1.26-.09,8.61,8.61,0,0,0-6.23,2.6,7.06,7.06,0,0,0-1.93,3.57,3.35,3.35,0,0,1-1.13-1.31L51.8,9.61l-2.65,3.25a7.48,7.48,0,0,0-1.49,5.44,6.72,6.72,0,0,0,.2.82,5.7,5.7,0,0,0-1.75-.28,5.54,5.54,0,0,0-4,1.75,5.64,5.64,0,0,1-2.89,1.77,20.38,20.38,0,0,1-3.62.21l1.49,3.31a5.6,5.6,0,0,0,5,3.12c.16,0,.31,0,.47,0a8.18,8.18,0,0,1-4.45,1.56l-3.53-.11,1.07,3.36a6.94,6.94,0,0,0,5.79,4.91,5.55,5.55,0,0,1-3,4.09l-2.63,1.08,1.44,2.5a6.37,6.37,0,0,0,5.42,2.93,8.28,8.28,0,0,0,1.7-.18A18.89,18.89,0,0,0,44.85,51a6.2,6.2,0,0,1,.1,4.09l-1.3,2.72,2.9.76a8.17,8.17,0,0,0,2,.25A6.12,6.12,0,0,0,50,58.63a6.49,6.49,0,0,0,1-.31,8.84,8.84,0,0,0,1.36,1.84c1.86,1.91,4.5,2.88,7.83,2.88h0l2.38,0-4.92,2,3.74,1.81a49.4,49.4,0,0,0,4.61,2l-.47,1.28,1.29.59a20.21,20.21,0,0,0,6.71,1.4s1,0,1.54,0,1.53,0,1.53,0a20.18,20.18,0,0,0,6.67-1.39l1.29-.59-.47-1.28a49.94,49.94,0,0,0,4.66-2.07l3.67-1.78-4.91-2,2.39,0c3.34,0,6-1,7.84-2.88a8.76,8.76,0,0,0,1.36-1.84,6.75,6.75,0,0,0,1,.31,6.19,6.19,0,0,0,1.42.16,8.29,8.29,0,0,0,2-.25l2.92-.77-1.27-2.67a6.16,6.16,0,0,1,.08-4.15c.2-.61.38-1.23.52-1.84a8.37,8.37,0,0,0,1.71.18,6.33,6.33,0,0,0,5.43-3l1.42-2.47-2.63-1.08a5.53,5.53,0,0,1-3-4.09,7,7,0,0,0,5.79-4.91M67.3,10.43h0l0,0Z" transform="translate(0 0)"/><path class="cls-2" d="M75,10.28c-2.79,0-4.88.92-5.33,2L75,14.38l5.34-2.11c-.45-1.08-2.54-2-5.34-2" transform="translate(0 0)"/><path class="cls-2" d="M75.07,66H75a21.83,21.83,0,0,1-5.14-.66L68.48,69a23.61,23.61,0,0,0,13.08,0l-1.35-3.65a21.89,21.89,0,0,1-5.14.66" transform="translate(0 0)"/><path class="cls-2" d="M85.28,62.38a29.65,29.65,0,0,1-4.55,1.82l1.09,3a27.29,27.29,0,0,0,5.06-1.88l-2.27-.75Z" transform="translate(0 0)"/><path class="cls-2" d="M64.76,62.38l.67,2.19-2.27.75a27.42,27.42,0,0,0,5.05,1.88l1.1-3a29.71,29.71,0,0,1-4.55-1.82" transform="translate(0 0)"/><path class="cls-2" d="M75,6.79a12.07,12.07,0,0,1,5.75,1.39,14.2,14.2,0,0,1,.62-1.69l-.6.07-.63.07-.27-.57-.8-1.69-1.46.76-.57.29L76.61,5,75,3.39,73.43,5,73,5.41l-.57-.29-1.47-.76-.79,1.69-.27.57-.63-.07-.6-.07a14.63,14.63,0,0,1,.62,1.69A12.09,12.09,0,0,1,75,6.79" transform="translate(0 0)"/><path class="cls-2" d="M107.12,26.37a2.5,2.5,0,0,0,.83.14,3.13,3.13,0,0,0,2.73-1.65,7.7,7.7,0,0,1-4.53-2.51,3,3,0,0,0-2.21-1,3.52,3.52,0,0,0-1.84.56c2.83,1.51,3.41,3.93,5,4.47" transform="translate(0 0)"/><path class="cls-2" d="M42.1,26.51a2.44,2.44,0,0,0,.82-.14c1.62-.54,2.2-3,5-4.47a3.52,3.52,0,0,0-1.84-.56,3,3,0,0,0-2.22,1,7.7,7.7,0,0,1-4.52,2.51,3.13,3.13,0,0,0,2.73,1.65" transform="translate(0 0)"/><path class="cls-2" d="M107.88,36.2H108c3,0,4-3.18,4-3.18h-.06a10.75,10.75,0,0,1-8.08-4.09c-2.05-2.61-3.74-4.9-7.06-5.8l-.33-.06-.07-.33c-.09-.51.26-1,1-1.5,4.59-3,1.47-6.83,1.47-6.83s-1.31,3.06-4.24,3.06h-.22a6.19,6.19,0,0,1-1-.1l-.54-.1a4.36,4.36,0,0,0-1.18-4.36,6.1,6.1,0,0,0-4.43-1.84,4.85,4.85,0,0,0-.88.07c1,1.32,1.75,3.52.58,4.88-1,1.17-3.48,1.22-3.48,3,0,.74.69,1.59,1.92,2.36,3.71,2.34,7.39,5.44,8.93,9.59,1.91,5.18-.24,8.62-3.32,10.6a4.34,4.34,0,0,0,2.36,1c.29,0,.56,0,.82,0a7,7,0,0,0,4.48-1.39A7.8,7.8,0,0,1,97,44.88a7.64,7.64,0,0,1-6.12,2.65A3.28,3.28,0,0,0,92,50a6.19,6.19,0,0,0,2.66,1s-3.48.71-3.87,5.85a7.87,7.87,0,0,1-.92,3.75h.06c8.08,0,7.87-6.93,7.87-6.93a3.92,3.92,0,0,0,2.82,2.59,3.36,3.36,0,0,0,.84.1,5.83,5.83,0,0,0,1.36-.17,8.49,8.49,0,0,1,0-6,14.14,14.14,0,0,0,.81-5,4.54,4.54,0,0,0,3.79,1.66h0a3.79,3.79,0,0,0,3.23-1.7c-5.39-2.24-4.85-9.45-4.85-9.45a3.88,3.88,0,0,0,2.06.57m-1.62,7.54c-2.19-1.08-3.58-3.95-3.91-5C102,44.45,99.21,48.39,96,52.19a12.16,12.16,0,0,0-2.27,3.88,9,9,0,0,1,1.78-3.93c3-3.64,5.91-8.17,6.12-13.4a15.92,15.92,0,0,0-2.26-9.06,8.15,8.15,0,0,1-2.08,8.57S102.8,31.6,95,24.79c-3.1-2.59-6.5-4.19-8.25-5.33,6.31,2.06,9.4-.21,9.4-.21A7.67,7.67,0,0,1,90,20.72c.44.21.9.44,1.39.7,5.32,2.89,10.11,7.65,10.92,14.24v-.05c1.24,6.47,4,8.13,4,8.13" transform="translate(0 0)"/><path class="cls-2" d="M55.37,50.94A6.19,6.19,0,0,0,58,50a3.28,3.28,0,0,0,1.17-2.46,7.66,7.66,0,0,1-6.13-2.65,7.85,7.85,0,0,1-1.78-3.69,6.94,6.94,0,0,0,4.48,1.39c.27,0,.54,0,.83,0a4.35,4.35,0,0,0,2.37-1c-3.08-2-5.24-5.41-3.33-10.6,1.53-4.15,5.22-7.26,8.93-9.59,1.23-.77,1.92-1.63,1.92-2.36,0-1.74-2.47-1.79-3.48-3-1.17-1.36-.44-3.55.57-4.88a4.82,4.82,0,0,0-.88-.07,6.1,6.1,0,0,0-4.43,1.84,4.35,4.35,0,0,0-1.18,4.36l-.54.11a6.43,6.43,0,0,1-1,.1h-.21c-2.94,0-4.24-3.06-4.24-3.06S48,18.24,52.59,21.25c.79.51,1.14,1,1,1.5l-.07.33-.33.06c-3.32.9-5,3.19-7.06,5.8A10.74,10.74,0,0,1,38.1,33H38s1,3.18,4,3.18h.14a3.88,3.88,0,0,0,2.06-.57s.53,7.21-4.86,9.45a3.8,3.8,0,0,0,3.23,1.7h0a4.54,4.54,0,0,0,3.79-1.66,14.17,14.17,0,0,0,.81,5,8.51,8.51,0,0,1,0,6,5.81,5.81,0,0,0,1.35.17,3.32,3.32,0,0,0,.84-.1,3.92,3.92,0,0,0,2.82-2.59s-.21,6.93,7.87,6.93h.06a7.92,7.92,0,0,1-.91-3.75c-.38-5.14-3.87-5.85-3.87-5.85m-1.3,1.25c-3.24-3.8-6-7.74-6.39-13.43-.34,1-1.72,3.9-3.91,5,0,0,2.75-1.66,4-8.13v.05c.82-6.59,5.6-11.35,10.93-14.24.49-.27.95-.49,1.39-.7a7.67,7.67,0,0,1-6.24-1.47s3.08,2.27,9.4.21C61.49,20.6,58.1,22.2,55,24.79c-7.76,6.81-2.21,13.46-2.21,13.46a8.15,8.15,0,0,1-2.08-8.57,15.87,15.87,0,0,0-2.26,9.06c.21,5.24,3.09,9.76,6.11,13.4a9,9,0,0,1,1.79,3.93,12.28,12.28,0,0,0-2.28-3.88" transform="translate(0 0)"/><path class="cls-2" d="M69,25.6c.13.14.26.3.39.45l.09.11.35.48.08.11c.13.2.26.42.39.63A5.89,5.89,0,0,0,75,30.61a5.89,5.89,0,0,0,4.69-3.22c.13-.22.26-.44.4-.64l.06-.09c.12-.17.24-.34.36-.5l.08-.1c.13-.16.26-.32.4-.46l.06-.06a4.83,4.83,0,0,1,2.23-1.33L82.88,24h0l-1.64-1-1.68-1L75,24.5h0l-4.5-2.45-1.68,1-1.64,1h0l-.42.24A4.83,4.83,0,0,1,69,25.53l.07.07m4.15-.2H77v1.31a1.61,1.61,0,0,0-1.32-.44v1.88A2.85,2.85,0,0,0,76,29.49H74.16a2.8,2.8,0,0,0,.36-1.33V26.28a1.61,1.61,0,0,0-1.32.44Z" transform="translate(0 0)"/><path class="cls-2" d="M74.63,22.87V15.22l-4.87-1.65L71,21Zm-1-5.77v1.23l-.24-.11a3,3,0,0,1-1-.57,2.22,2.22,0,0,1-1-1.49Z" transform="translate(0 0)"/><path class="cls-2" d="M79,21l1.28-7.41-4.87,1.65v7.65ZM76.46,17.1l2.21-.93a2.22,2.22,0,0,1-1,1.49,3,3,0,0,1-1,.57l-.23.11Z" transform="translate(0 0)"/><path class="cls-2" d="M67.74,40.61a4.29,4.29,0,0,0,1.34.21l0-.14a2.71,2.71,0,0,0,.07-.27,7.68,7.68,0,0,0,.12-1.21,1.7,1.7,0,0,1-.64-.68.85.85,0,0,0-.82-.56,2.65,2.65,0,0,0-1.24.43,2.17,2.17,0,0,0,1.12,2.21" transform="translate(0 0)"/><path class="cls-2" d="M78.51,36.55c-.9,1-2.68,2.7-2.76,2.78l-.11.11-5.59-.09a5.76,5.76,0,0,1-.18,1.37l0,.18,6.65,1.2c.69-.48,2.6-1.88,3.34-2.42a3.24,3.24,0,0,1-.47-2.37,3.34,3.34,0,0,1-.84-.75" transform="translate(0 0)"/><path class="cls-2" d="M79.27,29.82A5.71,5.71,0,0,1,75,31.72h0a5.9,5.9,0,0,1-.61,0,4.48,4.48,0,0,1-.6-.09A2.27,2.27,0,0,0,73.9,33a2.31,2.31,0,0,0,1.4,1.16l.23.09v.25a2.33,2.33,0,0,0,1.83,2.15c.29-.3.55-.57.75-.79a1.84,1.84,0,0,1,.35-2.15,3,3,0,0,0,1.46,3l.28.13-.08.3a2.36,2.36,0,0,0,1.47,2.93l.37.14-.16.36a2.31,2.31,0,0,0,1.07,3H87v-3.3a2.63,2.63,0,0,1-2.26-2.21,2.4,2.4,0,0,1-1.58-.9A2,2,0,0,1,83.06,35a2.85,2.85,0,0,0,.69,1.82,2.14,2.14,0,0,0,1.36.65l.3,0,0,.31A2,2,0,0,0,87,39.62V32.88a8.83,8.83,0,0,1,.67-3.06Z" transform="translate(0 0)"/><polygon class="cls-2" points="68.1 32.91 67.98 37.2 68.47 37.27 69.66 33.16 69.06 31.89 68.1 32.91"/><path class="cls-2" d="M81.24,52.58h.12c.74.21.93,2.88,2.23,3.12a1.69,1.69,0,0,0,.35,0,1,1,0,0,0,.84-.45s-.65-1-1.14-1.72c-.65-.91-1.15-2-2.37-2h-.09a1.22,1.22,0,0,0-.64.21,2.51,2.51,0,0,0-1.36-.41,9.45,9.45,0,0,0-1.64.35h0l-2.7-.27a1.43,1.43,0,0,1-.88-.63l0-.07c0-.07,0-.15,0-.22a3.19,3.19,0,0,0-2.41-3.17s.07-.42-.09-.58l-.6.72-2-1,1.4,1.63L69,49.49a.37.37,0,0,0-.07.44l.51.45.65-.39a.3.3,0,0,1,.16,0c.18,0,.45,0,.69,0s.49-.06.52-.3c-.08.82-.84,2.24-.34,3.36l.37.85-2.39-.34L68,55.45A1.52,1.52,0,0,0,68,57.13l.42.52a3.94,3.94,0,0,0,.72-1l-.19-.21a.4.4,0,0,1-.05-.52l.7-1.16,2.82.66.15-.25a.82.82,0,0,1,.77-.41,2.51,2.51,0,0,1,.38,0,12.16,12.16,0,0,0,2.25.24,3.22,3.22,0,0,0,2.38-.73c1,1.52,3.09,1.76,2.93,2.53l-.55,2.59c.36,0,.71,0,1-.08l.52-2.7c.06-.29.11-.69.11-.69a5,5,0,0,1-1-1.15c-.37-.7-.17-1.07-.51-2a.4.4,0,0,1,.34-.21m-10.56-3.8a.24.24,0,0,1-.23-.26.24.24,0,0,1,.26-.23.24.24,0,1,1,0,.49" transform="translate(0 0)"/><path class="cls-2" d="M66.83,55s.94-.39,1-.66l-.12-.31a.42.42,0,0,1,.09-.54l1-.7,1.69.32a1.43,1.43,0,0,1-.28-.89l-1.61-.34-1.52.92a1.47,1.47,0,0,0-.48,1.75Z" transform="translate(0 0)"/><path class="cls-2" d="M78.76,59.43l1,0s.87-2.54.92-2.62a21.24,21.24,0,0,1-1.89-1c.26.39.88.82.76,1.16Z" transform="translate(0 0)"/><path class="cls-3" d="M87,44.38H63v9c0,3.69,2.67,6,6.61,6,3.29,0,4.16.13,5.39,1.34a4,4,0,0,1,3-1.27l0-.14L78.79,57l-1.28-1.46a4.63,4.63,0,0,1-1.59.19,13,13,0,0,1-2.38-.25,1.11,1.11,0,0,0-.25,0c-.11,0-.11,0-.14.06l-.15.25-.27.45-.52-.12-2.3-.54-.32.52,0,.06.28.31-.12.4a4.15,4.15,0,0,1-.89,1.31l-.58.62-.52-.66-.39-.49a2,2,0,0,1-.28-1.92h0l-.65.27-.29-.63-.2-.45a2.19,2.19,0,0,1,.73-2.65l1.85-1,1.76.35c0-.17.11-.77.16-.93h-.1l-1,.38-1-.68a.52.52,0,0,1,0-.74l.95-1.44-2.41-3,3.7,1.52.25-.3.5-.6.57.54a1.08,1.08,0,0,1,.3.53c1,.4,2.84,1.57,3,3.47l-.57.23h0a.7.7,0,0,0,.27.22l2.64.26.24-.07a4.27,4.27,0,0,1,1.4-.27,3.23,3.23,0,0,1,1.38.32,2.08,2.08,0,0,1,.59-.12h.13a3.26,3.26,0,0,1,2.68,1.9l.29.42c.49.7,1.14,1.71,1.16,1.76l.29.45-.36.41a1.76,1.76,0,0,1-1.39.69,2.56,2.56,0,0,1-.48,0A2.08,2.08,0,0,1,83,56.3c0,.14,0,.31-.08.45l-.46,2.41A5.64,5.64,0,0,0,87,53.4Z" transform="translate(0 0)"/><path class="cls-3" d="M63,43.65H81.69a3,3,0,0,1-.68-3,3.11,3.11,0,0,1-.7-.46c-.73.54-3,2.16-3.54,2.57l-.12.08-7.32-1.32h-.15a6.1,6.1,0,0,1-.71,0,.71.71,0,0,1-.69.56h-.12a.73.73,0,0,1-.6-.83l0-.16a2.93,2.93,0,0,1-1.14-3L66,38l.11-.08s.14-.1.33-.2l-.53-.08a.37.37,0,0,1-.3-.42.36.36,0,0,1,.42-.3l1.27.2.12-4.46,1.89-2,1.18,2.48L69.2,37.39l1.12.18a.37.37,0,0,1,.3.42.36.36,0,0,1-.36.3H70.2l-.91-.15,0,.07a1,1,0,0,0,.44.41l5.58.09,1.43-1.41a3,3,0,0,1-2-2.49,2.93,2.93,0,0,1-1.59-1.45,3,3,0,0,1-.13-2,6.52,6.52,0,0,1-2.33-1.56H62.36A9,9,0,0,1,63,32.88Z" transform="translate(0 0)"/><path class="cls-1" d="M70.71,48.29a.24.24,0,0,0-.26.23.24.24,0,0,0,.23.26.24.24,0,1,0,0-.49" transform="translate(0 0)"/><path class="cls-1" d="M87,64.66l-1.38-.53L86,62.7l.42-1.56a32.64,32.64,0,0,1-5.9,2.33c-1,.28-1.72.41-1.72.41v1.06a24.84,24.84,0,0,1-3.71.32H75a24.78,24.78,0,0,1-3.71-.32V63.88s-.74-.13-1.72-.41a32.57,32.57,0,0,1-5.9-2.33l.41,1.56.39,1.43-1.39.53-1.54.57A40.29,40.29,0,0,0,68,67.94l-.53,1.44A19.88,19.88,0,0,0,75,70.68h.06a19.87,19.87,0,0,0,7.56-1.3l-.53-1.44a39.94,39.94,0,0,0,6.44-2.7Zm-23.83.67,2.27-.75-.67-2.19a29.68,29.68,0,0,0,4.55,1.82l-1.1,3a27.51,27.51,0,0,1-5.05-1.88M75,69.93A25.22,25.22,0,0,1,68.48,69l1.35-3.65A21.87,21.87,0,0,0,75,66h.11a21.93,21.93,0,0,0,5.14-.66L81.56,69a25.2,25.2,0,0,1-6.54.92m6.8-2.71-1.1-3a29.66,29.66,0,0,0,4.55-1.82l-.67,2.19,2.27.75a27.39,27.39,0,0,1-5.06,1.88" transform="translate(0 0)"/><path class="cls-1" d="M75,7.68A10.37,10.37,0,0,1,81.33,9.6,12.53,12.53,0,0,1,83,5.42l-2.27.26L79.51,3.16,77.23,4.33,75,2.15l-2.2,2.18L70.53,3.16,69.35,5.68l-2.27-.26A12.5,12.5,0,0,1,68.71,9.6,10.39,10.39,0,0,1,75,7.68M69.25,6.56l.63.07.27-.57.79-1.69,1.47.76.57.29L73.43,5,75,3.39,76.61,5l.45.45.57-.29,1.46-.76.8,1.69.27.57.63-.07.6-.07a14.2,14.2,0,0,0-.62,1.69,12.6,12.6,0,0,0-11.49,0,14.63,14.63,0,0,0-.62-1.69Z" transform="translate(0 0)"/><path class="cls-1" d="M108,37.18c3.64,0,4.86-3.7,4.91-3.86l.41-1.3-1.36,0h0a9.76,9.76,0,0,1-7.34-3.72l-.27-.34c-1.86-2.36-3.62-4.61-6.78-5.64a3.19,3.19,0,0,1,.4-.3,5.93,5.93,0,0,0,2.89-4,5.91,5.91,0,0,0-1.2-4.27l-1-1.25L98,14c0,.09-1.11,2.47-3.35,2.47h-.17l-.44,0a5.4,5.4,0,0,0-1.6-4.24,7.1,7.1,0,0,0-5.13-2.13,6.79,6.79,0,0,0-1.07.08l-1.53.3.94,1.24c.74,1,1.41,2.73.62,3.65a4.3,4.3,0,0,1-1.28.77c-1,.47-2.44,1.14-2.44,2.82,0,1.09.85,2.23,2.38,3.19,4.53,2.85,7.32,5.82,8.53,9.1,1.87,5-.57,7.93-2.94,9.44l-1.06.68.93.85a5.34,5.34,0,0,0,2.94,1.25c.32,0,.62,0,.91,0a9.33,9.33,0,0,0,2.74-.4,7,7,0,0,1-.77,1.09,6.69,6.69,0,0,1-5.41,2.32h-.89l-.07.89a4.21,4.21,0,0,0,1.49,3.24,3.46,3.46,0,0,0,.83.54,7.78,7.78,0,0,0-2.35,5.47A7.54,7.54,0,0,1,89.09,60l-1,1.5,1.78,0q4.4,0,6.74-2.41a7.63,7.63,0,0,0,1.76-3,4.77,4.77,0,0,0,2,1,4.67,4.67,0,0,0,1.07.12,7,7,0,0,0,1.6-.19l1.13-.3-.5-1.06a7.54,7.54,0,0,1,0-5.24,17.25,17.25,0,0,0,.77-3.4,6.24,6.24,0,0,0,2.91.68,4.81,4.81,0,0,0,4.1-2.18l.55-1-1-.42c-3.35-1.39-4.09-5.12-4.23-7.14a6.24,6.24,0,0,0,1,.12Zm2.65,7.9a3.79,3.79,0,0,1-3.23,1.7h0a4.55,4.55,0,0,1-3.79-1.66,14.15,14.15,0,0,1-.82,5,8.49,8.49,0,0,0,0,6,5.82,5.82,0,0,1-1.36.17,3.37,3.37,0,0,1-.84-.1,3.92,3.92,0,0,1-2.82-2.59s.21,6.93-7.87,6.93h-.06a7.88,7.88,0,0,0,.92-3.75c.38-5.14,3.86-5.85,3.86-5.85A6.18,6.18,0,0,1,92,50a3.28,3.28,0,0,1-1.17-2.46A7.63,7.63,0,0,0,97,44.88a7.8,7.8,0,0,0,1.79-3.69,6.94,6.94,0,0,1-4.48,1.39c-.26,0-.54,0-.82,0a4.34,4.34,0,0,1-2.36-1c3.08-2,5.23-5.41,3.32-10.6-1.53-4.15-5.22-7.26-8.93-9.59-1.23-.77-1.92-1.63-1.92-2.36,0-1.74,2.47-1.79,3.48-3,1.17-1.36.44-3.55-.58-4.88a4.85,4.85,0,0,1,.88-.07,6.1,6.1,0,0,1,4.43,1.84,4.36,4.36,0,0,1,1.18,4.36l.54.11a6.3,6.3,0,0,0,1,.1h.22c2.93,0,4.24-3.06,4.24-3.06s3.11,3.83-1.47,6.83c-.79.51-1.14,1-1,1.5l.07.33.33.06c3.32.9,5,3.19,7.06,5.8A10.75,10.75,0,0,0,111.94,33H112s-1,3.18-4,3.18h-.14a3.88,3.88,0,0,1-2.06-.57s-.53,7.21,4.85,9.45" transform="translate(0 0)"/><path class="cls-1" d="M101.63,22.76a9,9,0,0,1,2.84,2.55,5.35,5.35,0,0,0,2.34,2,3.48,3.48,0,0,0,1.13.18,4.08,4.08,0,0,0,3.62-2.22l.58-1.29-1.41-.08a6.73,6.73,0,0,1-3.89-2.22,4,4,0,0,0-2.91-1.29,4.57,4.57,0,0,0-2.4.73l-1.29.91Zm2.3-1.42a3,3,0,0,1,2.21,1,7.7,7.7,0,0,0,4.53,2.51,3.14,3.14,0,0,1-2.73,1.65,2.5,2.5,0,0,1-.83-.14c-1.61-.54-2.19-3-5-4.47a3.51,3.51,0,0,1,1.84-.56" transform="translate(0 0)"/><path class="cls-1" d="M102.27,35.61v0c-.82-6.59-5.6-11.35-10.92-14.24-.49-.26-.95-.49-1.39-.7a7.68,7.68,0,0,0,6.25-1.47s-3.08,2.27-9.4.21c1.75,1.13,5.14,2.73,8.25,5.33,7.75,6.81,2.21,13.46,2.21,13.46a8.15,8.15,0,0,0,2.08-8.57,15.93,15.93,0,0,1,2.26,9.06c-.21,5.24-3.09,9.76-6.12,13.4a9,9,0,0,0-1.78,3.93A12.16,12.16,0,0,1,96,52.19c3.24-3.8,6-7.74,6.38-13.43.34,1,1.72,3.9,3.91,5,0,0-2.76-1.66-4-8.13" transform="translate(0 0)"/><path class="cls-1" d="M61,60a7.77,7.77,0,0,1-.75-3.27,7.78,7.78,0,0,0-2.35-5.47,3.41,3.41,0,0,0,.83-.54,4.19,4.19,0,0,0,1.49-3.24l-.06-.89h-.9a6.69,6.69,0,0,1-5.4-2.32A7.29,7.29,0,0,1,53,43.14a9.29,9.29,0,0,0,2.73.4c.29,0,.59,0,.91,0a5.36,5.36,0,0,0,2.94-1.26l.93-.85-1.06-.68c-2.37-1.52-4.8-4.4-2.94-9.44,1.21-3.28,4-6.25,8.53-9.1,1.53-1,2.37-2.11,2.37-3.19,0-1.68-1.4-2.34-2.43-2.82a4.27,4.27,0,0,1-1.28-.77c-.8-.92-.13-2.69.61-3.65l.95-1.24-1.54-.3a6.72,6.72,0,0,0-1.06-.08,7.09,7.09,0,0,0-5.13,2.13A5.41,5.41,0,0,0,56,16.48l-.44,0h-.16c-2.25,0-3.31-2.38-3.35-2.47l-.63-1.49-1,1.25a5.94,5.94,0,0,0-1.19,4.27,5.92,5.92,0,0,0,2.89,4,3,3,0,0,1,.4.3c-3.16,1-4.92,3.28-6.78,5.64l-.27.34a9.76,9.76,0,0,1-7.35,3.72L36.7,32l.42,1.3c0,.16,1.26,3.86,4.9,3.86h.18a6.38,6.38,0,0,0,1-.12c-.15,2-.89,5.75-4.24,7.14l-1,.42.55,1a4.81,4.81,0,0,0,4.11,2.19,6.25,6.25,0,0,0,2.9-.68,17.15,17.15,0,0,0,.77,3.4,7.54,7.54,0,0,1,0,5.24l-.5,1.06,1.14.3a7,7,0,0,0,1.6.19,4.63,4.63,0,0,0,1.07-.12,4.75,4.75,0,0,0,2-1,7.63,7.63,0,0,0,1.75,3q2.34,2.41,6.74,2.41l1.78,0Zm-.86.55c-8.08,0-7.87-6.93-7.87-6.93a3.92,3.92,0,0,1-2.82,2.59,3.32,3.32,0,0,1-.84.1,5.78,5.78,0,0,1-1.35-.17,8.51,8.51,0,0,0,0-6,14.17,14.17,0,0,1-.81-5,4.54,4.54,0,0,1-3.79,1.66h0a3.8,3.8,0,0,1-3.23-1.7c5.38-2.24,4.86-9.45,4.86-9.45a3.88,3.88,0,0,1-2.06.57H42c-3,0-4-3.18-4-3.18h.06a10.74,10.74,0,0,0,8.07-4.09c2.05-2.61,3.74-4.9,7.06-5.8l.33-.06.07-.33c.09-.51-.26-1-1-1.5-4.58-3-1.47-6.83-1.47-6.83s1.3,3.06,4.24,3.06h.21a6.44,6.44,0,0,0,1-.1l.54-.11a4.35,4.35,0,0,1,1.18-4.36,6.1,6.1,0,0,1,4.43-1.84,4.81,4.81,0,0,1,.88.07c-1,1.32-1.74,3.52-.57,4.88,1,1.17,3.48,1.22,3.48,3,0,.74-.69,1.59-1.92,2.36-3.71,2.34-7.39,5.44-8.93,9.59-1.91,5.18.25,8.62,3.33,10.6a4.35,4.35,0,0,1-2.37,1c-.29,0-.56,0-.83,0a6.94,6.94,0,0,1-4.48-1.39,7.85,7.85,0,0,0,1.78,3.69,7.66,7.66,0,0,0,6.13,2.65A3.28,3.28,0,0,1,58,50a6.19,6.19,0,0,1-2.67,1s3.48.71,3.87,5.85a7.92,7.92,0,0,0,.91,3.75Z" transform="translate(0 0)"/><path class="cls-1" d="M42.1,27.47a3.48,3.48,0,0,0,1.13-.18,5.34,5.34,0,0,0,2.34-2,9,9,0,0,1,2.84-2.55l1.4-.75-1.3-.91a4.56,4.56,0,0,0-2.4-.73,4,4,0,0,0-2.91,1.29,6.73,6.73,0,0,1-3.89,2.22L37.9,24l.58,1.29a4.08,4.08,0,0,0,3.62,2.21m1.79-5.13a3,3,0,0,1,2.22-1A3.52,3.52,0,0,1,48,21.9c-2.83,1.51-3.41,3.93-5,4.47a2.44,2.44,0,0,1-.82.14,3.13,3.13,0,0,1-2.73-1.65,7.7,7.7,0,0,0,4.52-2.51" transform="translate(0 0)"/><path class="cls-1" d="M48.45,38.74a15.87,15.87,0,0,1,2.26-9.06,8.15,8.15,0,0,0,2.08,8.57S47.24,31.6,55,24.79c3.1-2.59,6.49-4.19,8.24-5.33-6.31,2.06-9.4-.21-9.4-.21a7.67,7.67,0,0,0,6.24,1.47c-.44.21-.9.44-1.39.7-5.33,2.89-10.11,7.65-10.93,14.24v-.05c-1.24,6.47-4,8.13-4,8.13,2.19-1.08,3.57-3.95,3.91-5,.37,5.69,3.14,9.63,6.39,13.43a12.27,12.27,0,0,1,2.28,3.88,9,9,0,0,0-1.79-3.93c-3-3.64-5.9-8.17-6.11-13.4" transform="translate(0 0)"/><path class="cls-1" d="M73.2,25.41v1.31a1.61,1.61,0,0,1,1.32-.44v1.88a2.8,2.8,0,0,1-.36,1.33H76a2.85,2.85,0,0,1-.36-1.33V26.28a1.61,1.61,0,0,1,1.32.44V25.41H73.2Z" transform="translate(0 0)"/><path class="cls-1" d="M72.39,17.66a3,3,0,0,0,1,.57l.24.11V17.1l-2.21-.93a2.22,2.22,0,0,0,1,1.49" transform="translate(0 0)"/><path class="cls-1" d="M77.65,17.66a2.21,2.21,0,0,0,1-1.49l-2.21.93v1.23l.23-.11a2.94,2.94,0,0,0,1-.57" transform="translate(0 0)"/><path class="cls-1" d="M81.64,12.65c0-1.87-3.14-3.55-6.61-3.55h0c-3.47,0-6.61,1.68-6.61,3.55l.07.46,1.39,8-1.39.81L64.86,24h0s-.81.42-1.19.67c-1.37,1-1.66,2.34-.87,2.91a2.71,2.71,0,0,1,2.77-2.32,3.6,3.6,0,0,1,2.87,1.56,7.4,7.4,0,0,1,.54.76c.21.34.42.64.62.93H60.36a10,10,0,0,1,1.33,4.4V53.4c0,5,3.82,7.34,8,7.34,3.19,0,3.62-.15,5.39,1.61,1.75-1.76,2.18-1.61,5.38-1.61,4.13,0,7.95-2.37,7.95-7.34V32.88a10,10,0,0,1,1.33-4.4H80.41c.21-.29.42-.59.62-.93a8.62,8.62,0,0,1,.54-.76,3.61,3.61,0,0,1,2.87-1.56,2.72,2.72,0,0,1,2.77,2.32c.8-.57.51-2-.87-2.91C86,24.38,85.17,24,85.17,24h0l-3.6-2.1-1.39-.81,1.39-8Zm-11.88.92,4.87,1.65v7.65L71,21Zm1,16.25a6.51,6.51,0,0,0,2.33,1.56,3,3,0,0,0,.13,2,2.92,2.92,0,0,0,1.59,1.45,3,3,0,0,0,2,2.49L75.35,38.7l-5.58-.09a1,1,0,0,1-.44-.41l0-.07.91.15h.06a.36.36,0,0,0,.36-.3.37.37,0,0,0-.3-.42l-1.12-.18,1.24-4.29-1.18-2.48-1.89,2-.12,4.46L66,36.87a.36.36,0,0,0-.42.3.37.37,0,0,0,.3.42l.53.08c-.19.11-.32.19-.33.21L66,38l0,.13a2.93,2.93,0,0,0,1.14,3l0,.16a.73.73,0,0,0,.6.83h.12a.71.71,0,0,0,.69-.56,6.07,6.07,0,0,0,.71,0h.15l7.32,1.32.12-.08c.58-.41,2.81-2,3.54-2.57a3.12,3.12,0,0,0,.7.46,3,3,0,0,0,.68,3H63V32.88a8.94,8.94,0,0,0-.67-3.06Zm9,9.85c-.74.55-2.65,1.94-3.34,2.42l-6.65-1.2,0-.18a5.79,5.79,0,0,0,.18-1.37l5.59.09.11-.11c.08-.08,1.86-1.8,2.76-2.78a3.37,3.37,0,0,0,.84.75,3.24,3.24,0,0,0,.47,2.37M68.68,38.52a1.7,1.7,0,0,0,.64.68,7.77,7.77,0,0,1-.12,1.21c0,.09,0,.18-.07.27l0,.14a4.29,4.29,0,0,1-1.34-.21,2.17,2.17,0,0,1-1.12-2.21A2.65,2.65,0,0,1,67.86,38a.84.84,0,0,1,.81.56M68,37.19l.11-4.29,1-1,.6,1.26-1.19,4.11ZM79.76,59.41l-1,0L79.55,57c.12-.34-.5-.78-.76-1.17a20.87,20.87,0,0,0,1.89,1c0,.08-.92,2.62-.92,2.62m2.49-2.8-.52,2.7c-.33,0-.68.07-1,.08l.55-2.59c.16-.77-1.91-1-2.93-2.53a3.21,3.21,0,0,1-2.38.73,12.18,12.18,0,0,1-2.25-.24,2.41,2.41,0,0,0-.38,0,.82.82,0,0,0-.77.41l-.15.25-2.82-.66-.7,1.16a.41.41,0,0,0,.05.52l.19.21a3.94,3.94,0,0,1-.72,1L68,57.13A1.52,1.52,0,0,1,68,55.45l1.12-1.89,2.39.34-.37-.85c-.5-1.12.26-2.54.34-3.36,0,.25-.26.3-.52.3s-.51,0-.69,0a.29.29,0,0,0-.16,0l-.65.39L69,49.93a.37.37,0,0,1,.07-.44l1.18-1.33-1.4-1.63,2,1,.6-.72c.16.16.09.58.09.58a3.19,3.19,0,0,1,2.41,3.17c0,.07,0,.14,0,.22l0,.07a1.43,1.43,0,0,0,.88.63l2.7.27h0a9.47,9.47,0,0,1,1.64-.35,2.5,2.5,0,0,1,1.36.41,1.21,1.21,0,0,1,.64-.21h.09c1.21,0,1.72,1.1,2.37,2,.49.69,1.14,1.72,1.14,1.72a1,1,0,0,1-.84.45,1.75,1.75,0,0,1-.35,0c-1.3-.24-1.49-2.91-2.23-3.12l-.12,0a.4.4,0,0,0-.34.21c.34.91.14,1.28.51,2a5,5,0,0,0,1,1.15s-.05.39-.11.69M67.72,54.06l.12.31c-.08.27-1,.66-1,.66l-.2-.44a1.47,1.47,0,0,1,.48-1.75l1.52-.92,1.61.34a1.43,1.43,0,0,0,.28.89l-1.69-.32-1,.7a.42.42,0,0,0-.09.54m14.78,5.1L83,56.75c0-.14.05-.31.07-.45a2.07,2.07,0,0,0,.42.13,2.58,2.58,0,0,0,.48,0,1.76,1.76,0,0,0,1.39-.69l.36-.41-.29-.45s-.67-1.06-1.16-1.76l-.28-.42a3.26,3.26,0,0,0-2.68-1.9h-.13a2.05,2.05,0,0,0-.59.12,3.22,3.22,0,0,0-1.38-.32,4.28,4.28,0,0,0-1.4.27l-.24.07-2.64-.26a.71.71,0,0,1-.27-.23h0l.57-.23c-.16-1.9-2-3.07-3-3.47a1.08,1.08,0,0,0-.3-.54l-.57-.54-.5.6-.25.3-3.7-1.52,2.4,3-.95,1.44a.52.52,0,0,0,0,.74l1,.68,1-.38h.1c0,.15-.11.76-.16.93l-1.76-.35-1.85,1A2.19,2.19,0,0,0,66,54.89l.21.45.29.63.65-.27h0a2,2,0,0,0,.28,1.92l.39.49.52.66.58-.62a4.11,4.11,0,0,0,.89-1.31l.12-.4-.28-.31,0-.06.32-.52,2.3.54.52.12.28-.46.15-.25c0-.05,0-.06.14-.06l.25,0a13,13,0,0,0,2.38.25,4.63,4.63,0,0,0,1.59-.19L78.79,57,78,59.33l0,.14a4,4,0,0,0-3,1.27c-1.23-1.22-2.09-1.34-5.39-1.34-3.94,0-6.61-2.31-6.61-6v-9H87v9a5.64,5.64,0,0,1-4.52,5.76m5.19-29.34A8.81,8.81,0,0,0,87,32.88v6.73a2,2,0,0,1-1.58-1.82l0-.31-.3,0a2.14,2.14,0,0,1-1.36-.65A2.85,2.85,0,0,1,83.06,35a2,2,0,0,0,.11,2.25,2.4,2.4,0,0,0,1.58.9A2.63,2.63,0,0,0,87,40.36v3.3H82.87a2.31,2.31,0,0,1-1.07-3l.16-.36-.37-.14a2.36,2.36,0,0,1-1.47-2.93l.08-.3-.28-.13a3,3,0,0,1-1.46-3,1.84,1.84,0,0,0-.35,2.15c-.2.22-.46.5-.75.79a2.33,2.33,0,0,1-1.83-2.16V34.3l-.23-.09A2.32,2.32,0,0,1,73.9,33a2.27,2.27,0,0,1-.1-1.46,4.28,4.28,0,0,0,.6.09,5.92,5.92,0,0,0,.61,0h0a5.71,5.71,0,0,0,4.24-1.9ZM81.22,23l1.64,1h0l.41.24a4.84,4.84,0,0,0-2.23,1.33L81,25.6c-.14.15-.27.3-.4.46l-.08.1q-.19.24-.36.5l-.06.09c-.14.2-.27.42-.4.64A5.89,5.89,0,0,1,75,30.61a5.89,5.89,0,0,1-4.68-3.22c-.13-.22-.26-.43-.39-.63l-.08-.11-.35-.48-.09-.11c-.13-.16-.26-.31-.39-.45L69,25.53a4.83,4.83,0,0,0-2.23-1.32l.42-.24h0l1.64-1,1.68-1L75,24.5h0l4.5-2.45ZM79,21l-3.59,1.89V15.22l4.87-1.65Zm-4-6.6-5.33-2.11c.45-1.07,2.55-2,5.33-2s4.88.92,5.34,2Z" transform="translate(0 0)"/></svg>